<svg width="29" height="26" viewBox="0 0 29 26" fill="none" xmlns="http://www.w3.org/2000/svg">
<g clip-path="url(#clip0_702_31)">
<path d="M3.60618 14.0295C3.88865 14.0767 4.16641 14.1082 4.44888 14.1503C4.97615 14.2291 5.49871 14.3078 6.02599 14.3761C6.35553 14.4181 6.68978 14.4444 7.01933 14.4759C7.49482 14.5232 7.9703 14.5757 8.44579 14.6125C8.79887 14.6388 9.14725 14.6545 9.49563 14.6755C9.86754 14.6965 10.2395 14.7175 10.6114 14.7333V12.8949C10.6114 12.4169 10.9503 12.0283 11.3646 12.0283H13.7279C14.1422 12.0283 14.4812 12.4169 14.4812 12.8949V14.7386C14.5471 14.7386 14.6083 14.7333 14.6742 14.7333C15.3427 14.707 16.0206 14.6703 16.708 14.6177C16.7692 14.6125 16.8351 14.6072 16.901 14.602C17.5836 14.5442 18.271 14.4759 18.963 14.3919C19.0054 14.3866 19.0477 14.3814 19.0901 14.3761C19.1419 14.3289 19.1937 14.2816 19.2455 14.2343C19.2784 14.2028 19.3114 14.1765 19.3443 14.145C19.462 14.0347 19.5844 13.9349 19.7115 13.8404C19.7539 13.8089 19.7963 13.7773 19.8386 13.7458C19.9611 13.6565 20.0835 13.5725 20.2059 13.4937C20.2576 13.4622 20.3094 13.4307 20.3612 13.3992C20.4789 13.3309 20.6013 13.2678 20.719 13.2048C20.7849 13.1733 20.8461 13.1418 20.912 13.1103C21.025 13.0577 21.1427 13.0105 21.2557 12.9685C21.331 12.9369 21.4063 12.9107 21.4864 12.8844C21.5947 12.8476 21.7029 12.8214 21.8159 12.7899C21.9007 12.7689 21.9854 12.7426 22.0748 12.7216C22.1831 12.7006 22.2914 12.6848 22.3997 12.6638C22.4891 12.648 22.5833 12.6323 22.6727 12.6218C22.7999 12.606 22.927 12.606 23.0588 12.6008C23.1294 12.5955 23.2 12.5903 23.2753 12.5903C23.5107 12.5903 23.7461 12.606 23.9721 12.6375C24.0192 12.6428 24.0662 12.6533 24.1086 12.6586C24.2922 12.6848 24.4711 12.7216 24.6453 12.7636C24.6641 12.7689 24.6877 12.7689 24.7065 12.7741C24.7348 12.6638 24.7489 12.5535 24.7489 12.4379V6.9228C24.7489 5.61492 23.7932 4.54865 22.621 4.54865H17.5507H17.546V2.08522C17.546 1.16078 16.9151 0.414917 16.143 0.414917H8.96365C8.19157 0.414917 7.56073 1.16603 7.56073 2.08522V4.54865H7.55602H2.47631C1.30407 4.54865 0.348389 5.61492 0.348389 6.9228V12.4379C0.348389 12.8319 0.527285 13.1996 0.823876 13.4149C0.828583 13.4202 0.828583 13.4202 0.833291 13.4202C0.837999 13.4202 0.837999 13.4254 0.842707 13.4254C0.861538 13.4359 0.875661 13.4412 0.889785 13.4569C0.8992 13.4622 0.908616 13.4674 0.922739 13.4779C0.922739 13.4779 0.922739 13.4779 0.927447 13.4779C1.00748 13.5252 1.09693 13.5567 1.19108 13.5777C1.99612 13.7458 2.80115 13.8981 3.60618 14.0295ZM8.96365 1.43391H16.1383C16.4067 1.43391 16.6279 1.72805 16.6279 2.08522V4.5434H8.47404V2.08522C8.47404 1.72805 8.6906 1.43391 8.96365 1.43391ZM3.89806 6.38179H21.2039C21.4581 6.38179 21.6606 6.60764 21.6606 6.89128C21.6606 7.17492 21.4581 7.40078 21.2039 7.40078H7.36771V8.8032C7.36771 9.08684 7.16527 9.31269 6.91105 9.31269C6.65683 9.31269 6.45439 9.08684 6.45439 8.8032V7.40078H3.89336C3.63914 7.40078 3.4367 7.17492 3.4367 6.89128C3.4367 6.60764 3.64384 6.38179 3.89806 6.38179Z" fill="#C1BFD9"/>
<path d="M17.6496 22.691C17.6401 22.6752 17.6354 22.6542 17.626 22.6384C17.5413 22.4388 17.4613 22.234 17.3906 22.0239C17.3671 21.9504 17.3389 21.8768 17.32 21.8033C17.2918 21.714 17.2682 21.6247 17.2447 21.5302C17.207 21.3936 17.1741 21.2518 17.1458 21.1099C17.1364 21.0679 17.127 21.0259 17.1176 20.9839C17.0799 20.779 17.0517 20.5742 17.0328 20.3641C17.0281 20.3273 17.0281 20.2958 17.0234 20.259C17.0046 20.0384 16.9905 19.8178 16.9905 19.592C16.9905 19.3661 17.0046 19.1455 17.0234 18.9249C17.0281 18.8776 17.0328 18.8356 17.0376 18.7883C17.0564 18.6255 17.0752 18.4627 17.1035 18.2998C17.1129 18.2316 17.127 18.1633 17.1411 18.0897C17.1694 17.9479 17.2023 17.8114 17.2353 17.6748C17.2541 17.6065 17.2682 17.533 17.2871 17.4647C17.3389 17.2756 17.4001 17.0918 17.4707 16.9132C17.4989 16.8449 17.5272 16.7766 17.5554 16.7083C17.6072 16.5875 17.6543 16.4667 17.7108 16.3459C17.7437 16.2776 17.7767 16.2093 17.8096 16.1411C17.8708 16.015 17.9414 15.8942 18.0074 15.7734C18.0356 15.7209 18.0639 15.6736 18.0968 15.6211C18.1203 15.579 18.1439 15.537 18.1721 15.495C18.1439 15.5003 18.1203 15.5003 18.0921 15.5003C17.5413 15.558 16.9952 15.6053 16.4491 15.6421C16.3078 15.6526 16.1713 15.6578 16.0301 15.6683C15.6064 15.6946 15.1827 15.7209 14.7637 15.7366C14.6695 15.7419 14.5754 15.7471 14.4812 15.7524V17.6643C14.4812 18.1423 14.1423 18.531 13.728 18.531H11.3647C10.9457 18.531 10.6067 18.1423 10.6067 17.6643V15.7524C10.5455 15.7524 10.4843 15.7419 10.4231 15.7419C9.72635 15.7156 9.0296 15.6736 8.32814 15.6211C8.23398 15.6158 8.14453 15.6053 8.05038 15.5948C7.33479 15.537 6.6145 15.4635 5.89892 15.3742C5.8283 15.3637 5.75768 15.3532 5.68707 15.3479C4.94323 15.2534 4.20411 15.1483 3.46028 15.0275C3.42262 15.0223 3.38495 15.0118 3.352 15.0065C2.57992 14.8752 1.80784 14.7334 1.04047 14.5706H1.03577V23.7625C1.03577 24.7605 1.76077 25.5693 2.65525 25.5693H20.0317L20.027 25.5641C19.0054 24.8865 18.1768 23.8885 17.6496 22.691Z" fill="#C1BFD9"/>
<path d="M24.4099 13.7458C24.3487 13.7301 24.2922 13.7196 24.231 13.7091C24.1322 13.688 24.0333 13.6723 23.9297 13.6565C23.8685 13.646 23.8073 13.6408 23.7414 13.6355C23.6143 13.625 23.4825 13.6145 23.3507 13.6145C23.3224 13.6145 23.2989 13.6093 23.2706 13.6093C23.1671 13.6093 23.0682 13.6198 22.9646 13.625C22.894 13.6303 22.8234 13.6303 22.7528 13.6355C22.6586 13.646 22.5692 13.6618 22.475 13.6775C22.395 13.6933 22.3102 13.7038 22.2302 13.7196C22.1502 13.7353 22.0702 13.7616 21.9901 13.7826C21.9007 13.8088 21.8112 13.8299 21.7218 13.8614C21.6512 13.8824 21.5852 13.9139 21.5193 13.9402C21.4205 13.9769 21.3216 14.0137 21.2275 14.061C21.171 14.0872 21.1192 14.1135 21.0627 14.145C20.9591 14.1975 20.8508 14.2501 20.752 14.3131C20.7096 14.3394 20.6672 14.3656 20.6249 14.3971C20.5166 14.4654 20.4083 14.5389 20.3047 14.6125C20.2718 14.6387 20.2388 14.665 20.2059 14.6913C20.0976 14.7753 19.9893 14.8646 19.8857 14.9592C19.8575 14.9854 19.8339 15.0064 19.8104 15.0327C19.7068 15.1325 19.6033 15.2323 19.5044 15.3426C19.4762 15.3741 19.4479 15.4109 19.415 15.4424C19.3208 15.5527 19.2266 15.663 19.1372 15.7838C19.1231 15.7996 19.1137 15.8206 19.0995 15.8363C18.351 16.8658 17.899 18.1737 17.899 19.6024C17.899 19.8072 17.9085 20.0068 17.9273 20.2064C17.932 20.2327 17.9367 20.2589 17.9367 20.2852C17.9555 20.448 17.9744 20.6056 18.0026 20.7632C18.0214 20.8735 18.0497 20.9838 18.0732 21.0941C18.0874 21.1624 18.1015 21.2307 18.1203 21.2937C18.1627 21.446 18.2098 21.5931 18.2568 21.7402C18.2663 21.7612 18.271 21.7822 18.2804 21.8032C18.77 23.1636 19.6974 24.2876 20.865 24.9442C20.8697 24.9495 20.8791 24.9495 20.8838 24.9547C21.025 25.0335 21.1663 25.1018 21.3122 25.1701C21.3216 25.1753 21.3357 25.1806 21.3499 25.1858C21.4958 25.2488 21.6417 25.3014 21.7924 25.3539C21.8018 25.3592 21.8112 25.3591 21.8206 25.3591C22.1361 25.4589 22.4656 25.5272 22.7999 25.5587C22.8046 25.5587 22.8046 25.564 22.8093 25.564C22.9599 25.5798 23.1153 25.5903 23.2659 25.5903C26.2318 25.5903 28.6422 22.9062 28.6422 19.6024C28.6516 16.7293 26.8297 14.3288 24.4099 13.7458ZM20.5448 20.1066H19.4715C19.2172 20.1066 19.0148 19.8808 19.0148 19.5971C19.0148 19.3135 19.2172 19.0876 19.4715 19.0876H20.5448C20.799 19.0876 21.0015 19.3135 21.0015 19.5971C21.0015 19.8755 20.799 20.1066 20.5448 20.1066ZM23.2848 19.1979C24.3205 19.1979 25.1632 20.0699 25.1632 21.1414C25.1632 22.0501 24.5559 22.8064 23.7414 23.0218V23.3002C23.7414 23.5838 23.539 23.8097 23.2848 23.8097C23.0305 23.8097 22.8281 23.5838 22.8281 23.3002V23.0218C22.0137 22.8117 21.4064 22.0501 21.4064 21.1414C21.4064 20.8577 21.6088 20.6319 21.863 20.6319C22.1172 20.6319 22.3197 20.8577 22.3197 21.1414C22.3197 21.6509 22.7528 22.0658 23.2848 22.0658C23.8167 22.0658 24.2499 21.6509 24.2499 21.1414C24.2499 20.6319 23.8167 20.2169 23.2848 20.2169C22.249 20.2169 21.4064 19.345 21.4064 18.2735C21.4064 17.3648 22.0137 16.6084 22.8281 16.3931V16.0779C22.8281 15.7943 23.0305 15.5684 23.2848 15.5684C23.539 15.5684 23.7414 15.7943 23.7414 16.0779V16.3931C24.5559 16.6032 25.1632 17.3648 25.1632 18.2735C25.1632 18.5571 24.9607 18.783 24.7065 18.783C24.4523 18.783 24.2499 18.5571 24.2499 18.2735C24.2499 17.764 23.8167 17.349 23.2848 17.349C22.7528 17.349 22.3197 17.764 22.3197 18.2735C22.3197 18.783 22.7528 19.1979 23.2848 19.1979ZM27.0839 20.1066H26.0106C25.7564 20.1066 25.5539 19.8808 25.5539 19.5971C25.5539 19.3135 25.7564 19.0876 26.0106 19.0876H27.0839C27.3382 19.0876 27.5406 19.3135 27.5406 19.5971C27.5406 19.8755 27.3382 20.1066 27.0839 20.1066Z" fill="#C1BFD9"/>
<path d="M11.5247 13.042V15.2638V17.5224H13.5725V15.2901C13.5725 15.2796 13.5678 15.2743 13.5678 15.2638V13.042H11.5247Z" fill="#C1BFD9"/>
</g>
<defs>
<clipPath id="clip0_702_31">
<rect width="29" height="26" fill="white"/>
</clipPath>
</defs>
</svg>
