<svg width="18" height="17" viewBox="0 0 18 17" fill="none" xmlns="http://www.w3.org/2000/svg">
<path d="M5.33168 5.66571C6.98802 5.66571 8.33075 4.3974 8.33075 2.83285C8.33075 1.26831 6.98802 0 5.33168 0C3.67534 0 2.33261 1.26831 2.33261 2.83285C2.33261 4.3974 3.67534 5.66571 5.33168 5.66571Z" fill="#C1BFD9"/>
<path d="M10.0958 8.59755C9.3038 7.22723 7.76415 6.29541 5.99814 6.29541H4.66522C2.09278 6.29541 0 8.2722 0 10.7021V14.1644C0 14.3383 0.149205 14.4792 0.33323 14.4792H8.39124C8.17081 13.9329 8.0288 13.3156 7.99817 12.6166C7.99778 10.9734 8.82325 9.52139 10.0958 8.59755Z" fill="#C1BFD9"/>
<path d="M17.394 14.7451C19.165 11.8954 16.8265 8.12657 13.3291 8.18375C10.7568 8.18371 8.66399 10.1605 8.66399 12.5904C8.61434 16.1106 13.0196 18.2658 16.0243 16.1834L17.4995 16.9574C17.7474 17.0986 18.0736 16.8516 17.9804 16.5919L17.394 14.7451ZM11.4677 13.0357C10.8354 13.6042 9.92589 12.7385 10.5262 12.1426C11.1647 11.5917 12.0631 12.4205 11.4677 13.0357ZM13.8004 13.0351C13.1834 13.6071 12.253 12.7339 12.8591 12.1424C13.5 11.5922 14.3941 12.4224 13.8004 13.0351ZM15.1923 13.0281C14.5888 12.4353 15.5032 11.588 16.1324 12.1431C16.7361 12.7351 15.8037 13.6147 15.1923 13.0281Z" fill="#C1BFD9"/>
</svg>
