<svg width="26" height="26" viewBox="0 0 26 26" fill="none" xmlns="http://www.w3.org/2000/svg">
<path d="M12.2372 21.4634L13.0725 18.8488C12.5209 17.6469 11.5554 16.7205 10.3807 16.2634L10.2388 16.2172C9.33842 16.9146 8.22999 17.331 7.04057 17.331C5.85018 17.331 4.73755 16.9202 3.83719 16.2172L3.69535 16.2634C2.01956 16.9146 0.758788 18.5204 0.540388 20.5199L0.22941 23.8907C0.174778 24.4831 0.605532 24.9988 1.15713 24.9988H6.87802C6.81288 24.6704 6.8339 24.324 6.93791 24.0024L7.33611 22.7475C7.58196 21.9802 8.25859 21.4633 9.0119 21.4633L12.2372 21.4634Z" fill="#C1BFD9"/>
<path d="M7.03861 15.8064C9.28385 15.8064 11.1035 13.8507 11.1035 11.4392C11.1035 9.02766 9.28377 7.07324 7.03861 7.07324C4.79336 7.07324 2.97266 9.03 2.97266 11.4392C2.97266 13.8497 4.79342 15.8064 7.03861 15.8064Z" fill="#C1BFD9"/>
<path d="M25.4237 16.4485H15.5887C15.4385 16.4485 15.3051 16.5512 15.2557 16.7036L13.249 22.9892H9.0106C8.86036 22.9892 8.72692 23.0919 8.67754 23.2443L8.27619 24.4991C8.19739 24.744 8.36759 25.0002 8.60925 25.0002L22.9349 24.9979C23.0851 24.9979 23.2186 24.8952 23.2679 24.7429L25.7559 16.9495C25.8336 16.7047 25.6645 16.4485 25.4228 16.4485L25.4237 16.4485ZM19.2585 21.6621C18.7752 21.6621 18.3844 21.2423 18.3844 20.7232C18.3844 20.2041 18.7762 19.7843 19.2585 19.7843C19.7408 19.7843 20.1326 20.2041 20.1326 20.7232C20.1326 21.2423 19.7418 21.6621 19.2585 21.6621Z" fill="#C1BFD9"/>
<path d="M19.6442 0.213135C16.8736 0.213135 14.6274 2.62582 14.6274 5.60149C14.6274 8.57733 16.8737 10.9898 19.6442 10.9898C22.4146 10.9898 24.6609 8.57716 24.6609 5.60149C24.6609 2.62564 22.4146 0.213135 19.6442 0.213135ZM20.1527 8.45224V9.14511C20.1527 9.23539 20.0855 9.30761 20.0014 9.30761H19.288C19.204 9.30761 19.1367 9.23426 19.1367 9.14511V8.45224C18.3792 8.38453 17.7688 7.75258 17.6868 6.94687C17.6774 6.8487 17.7446 6.76068 17.8371 6.76068H18.5599C18.6293 6.76068 18.6913 6.81146 18.706 6.88481C18.7596 7.16467 18.9907 7.37456 19.266 7.37456H20.0245C20.3586 7.37456 20.6276 7.06424 20.5929 6.69746C20.5635 6.3781 20.2893 6.14678 19.9909 6.14678H19.329C18.5158 6.14678 17.7877 5.51935 17.6889 4.65268C17.5776 3.66413 18.2584 2.82682 19.1367 2.74896V2.05609C19.1367 1.96581 19.204 1.89359 19.288 1.89359H20.0014C20.0854 1.89359 20.1527 1.96694 20.1527 2.05609V2.74896C20.9102 2.81554 21.5206 3.44862 21.6026 4.25433C21.612 4.35364 21.5448 4.44053 21.4523 4.44053H20.7295C20.6601 4.44053 20.5982 4.38975 20.5834 4.3164C20.5299 4.03653 20.2987 3.82664 20.0235 3.82664H19.2996C19.0001 3.82664 18.727 4.05685 18.6965 4.3762C18.6618 4.74294 18.9308 5.05442 19.2649 5.05442H19.9604C20.7736 5.05442 21.5017 5.68186 21.6005 6.54852C21.7118 7.53707 21.031 8.37439 20.1527 8.45224Z" fill="#C1BFD9"/>
<path d="M19.6442 15.3664C19.2922 15.3664 19.0065 15.0594 19.0065 14.6814V12.5237C19.0065 12.1457 19.2922 11.8387 19.6442 11.8387C19.9962 11.8387 20.282 12.1457 20.282 12.5237V14.6814C20.282 15.0594 19.9962 15.3664 19.6442 15.3664Z" fill="#C1BFD9"/>
<path d="M17.315 14.8313C16.963 14.8313 16.6772 14.5244 16.6772 14.1463V11.9887C16.6772 11.6107 16.963 11.3037 17.315 11.3037C17.667 11.3037 17.9527 11.6107 17.9527 11.9887V14.1463C17.9527 14.5244 17.667 14.8313 17.315 14.8313Z" fill="#C1BFD9"/>
<path d="M21.9734 14.8313C21.6215 14.8313 21.3357 14.5244 21.3357 14.1463V11.9887C21.3357 11.6107 21.6215 11.3037 21.9734 11.3037C22.3254 11.3037 22.6112 11.6107 22.6112 11.9887V14.1463C22.6112 14.5244 22.3254 14.8313 21.9734 14.8313Z" fill="#C1BFD9"/>
</svg>
