<svg width="28" height="26" viewBox="0 0 28 26" fill="none" xmlns="http://www.w3.org/2000/svg">
<g clip-path="url(#clip0_702_27)">
<path d="M7.00522 21.4709C6.31376 21.4709 5.75052 21.9884 5.75052 22.6237C5.75052 23.2603 6.31376 23.7764 7.00522 23.7764C7.69812 23.7764 8.25993 23.259 8.25993 22.6237C8.25993 21.9871 7.69669 21.4709 7.00522 21.4709ZM7.00522 23.1491C6.68974 23.1491 6.43332 22.9135 6.43332 22.6237C6.43332 22.3338 6.68973 22.0983 7.00522 22.0983C7.3207 22.0983 7.57713 22.3338 7.57713 22.6237C7.57713 22.9135 7.32071 23.1491 7.00522 23.1491ZM7.54689 18.4481L4.29557 23.6218C4.23507 23.7184 4.12126 23.7793 3.99882 23.7793C3.93975 23.7793 3.88069 23.7647 3.82883 23.7369C3.66605 23.6509 3.60987 23.4576 3.7035 23.3081L6.95482 18.1344C7.01532 18.0378 7.12913 17.9769 7.25158 17.9769C7.31064 17.9769 7.3697 17.9915 7.42156 18.0193C7.58434 18.1053 7.64052 18.2985 7.54689 18.4481ZM27.9235 17.8671L24.6822 14.1269L24.6736 14.0925C23.8539 10.8102 21.719 8.53119 20.0712 7.19592C18.9461 6.28404 17.9003 5.67786 17.2218 5.3298L17.0403 5.23716L17.1743 5.09157C18.066 4.12673 18.4391 2.84032 18.3181 1.162C18.3094 1.04421 18.2316 0.942301 18.1135 0.894657C18.0703 0.877451 18.0242 0.868187 17.9767 0.868187C17.8989 0.868187 17.8225 0.893333 17.762 0.938331C17.7519 0.946272 16.6514 1.73641 15.5522 1.73641C15.4672 1.73641 15.3837 1.73244 15.303 1.72185C14.7916 1.66361 14.3724 1.42406 14.0209 0.99262C13.5585 0.426157 12.9722 0.0992687 12.2778 0.0185292C12.1683 0.00529447 12.0545 0 11.9407 0C10.5751 0 9.33909 0.898637 9.28724 0.937025C9.20945 0.993936 9.16335 1.07864 9.15903 1.16864C9.09853 2.53182 9.49611 3.84076 10.3403 5.05585L10.4382 5.19747L10.2783 5.2782C9.53933 5.64879 8.07862 6.46933 6.61213 7.81138C5.39486 8.92445 4.42537 10.1659 3.72959 11.5038C2.91282 13.0734 2.47198 14.7808 2.42157 16.5782L2.41868 16.6563L2.34954 16.7013C0.87873 17.6634 0 19.2239 0 20.8768C0 23.7012 2.50077 25.9987 5.57486 25.9987C6.7662 25.9987 7.90422 25.6572 8.86364 25.01L8.93423 24.9624L9.01778 24.9875C10.4511 25.4111 12.0415 25.6255 13.747 25.6255C14.3492 25.6255 14.9484 25.5977 15.5275 25.5434L15.7105 25.5262L15.7162 25.6956C15.722 25.8663 15.8718 26 16.0577 26H19.4185C19.6072 26 19.7599 25.8597 19.7599 25.6863V24.5349L19.8593 24.4926C20.6732 24.1445 21.4107 23.717 22.0489 23.2246L22.3298 23.0076V25.6863C22.3298 25.8597 22.4825 26 22.6712 26H26.032C26.2207 26 26.3734 25.8597 26.3734 25.6863V18.3781H27.6584C27.7881 18.3781 27.9091 18.308 27.9667 18.2007C28.0229 18.0922 28.007 17.9625 27.9264 17.8685L27.9235 17.8671ZM13.4732 18.9815V18.0577H12.6924C12.1133 18.0577 11.6422 17.6249 11.6422 17.0928V16.7593C11.6422 16.5859 11.7949 16.4456 11.9836 16.4456C12.1724 16.4456 12.3251 16.5859 12.3251 16.7593V17.0928C12.3251 17.2794 12.4893 17.4303 12.6924 17.4303H14.8028C15.0059 17.4303 15.1701 17.2794 15.1701 17.0928V15.6343C15.1701 15.4477 15.0059 15.2968 14.8028 15.2968H12.6924C12.1133 15.2968 11.6422 14.8641 11.6422 14.332V13.0548C11.6422 12.5228 12.1133 12.09 12.6924 12.09H13.4732V11.1662C13.4732 10.9928 13.6259 10.8525 13.8146 10.8525C14.0033 10.8525 14.156 10.9928 14.156 11.1662V12.09H14.8014C15.3805 12.09 15.8515 12.5228 15.8515 13.0548V13.3473C15.8515 13.5207 15.6988 13.661 15.5101 13.661C15.3214 13.661 15.1687 13.5207 15.1687 13.3473V13.0548C15.1687 12.8682 15.0045 12.7173 14.8014 12.7173H12.691C12.4878 12.7173 12.3236 12.8682 12.3236 13.0548V14.332C12.3236 14.5186 12.4878 14.6695 12.691 14.6695H14.8014C15.3805 14.6695 15.8516 15.1022 15.8516 15.6343V17.0928C15.8516 17.6249 15.3805 18.0577 14.8014 18.0577H14.156V18.9815C14.156 19.1548 14.0033 19.2951 13.8146 19.2951C13.6259 19.2951 13.4732 19.1548 13.4732 18.9815ZM9.83724 1.42682V1.34344L9.91214 1.29711C10.3155 1.04697 11.115 0.627414 11.9347 0.627414C12.024 0.627414 12.1104 0.632708 12.1954 0.641972C12.7054 0.701529 13.1231 0.93976 13.4732 1.36988C13.9356 1.93767 14.5233 2.26588 15.2177 2.34529C15.3257 2.35721 15.4367 2.36382 15.549 2.36382C16.2693 2.36382 16.9536 2.10574 17.4001 1.89002L17.6623 1.76297L17.6508 2.03561C17.596 3.29027 17.1768 4.24715 16.3701 4.9592L16.3211 5.00288H11.125L11.0746 4.93538C10.252 3.83688 9.8357 2.65631 9.83858 1.42696L9.83724 1.42682ZM5.57598 25.3715C2.87927 25.3715 0.685209 23.3558 0.685209 20.8781C0.685209 18.4005 2.87916 16.3834 5.57598 16.3834C8.2728 16.3834 10.4667 18.3991 10.4667 20.8781C10.4667 23.3572 8.2728 25.3715 5.57598 25.3715ZM19.4167 21.5043C19.228 21.5043 19.0753 21.6446 19.0753 21.8179V25.3714H16.3987V21.8179C16.3987 21.6446 16.246 21.5043 16.0573 21.5043H15.1397L17.737 18.5065L20.3343 21.5043H19.4167ZM26.0289 17.7495C25.8402 17.7495 25.6875 17.8898 25.6875 18.0632V25.3714H23.011V18.0632C23.011 17.8898 22.8583 17.7495 22.6696 17.7495H21.7519L24.3492 14.7518L26.9466 17.7495H26.0289ZM5.40007 19.1299C5.40007 18.4947 4.83683 17.9772 4.14537 17.9772C3.45246 17.9772 2.89066 18.4947 2.89066 19.1299C2.89066 19.7665 3.4539 20.2827 4.14537 20.2827C4.83827 20.2827 5.40007 19.7652 5.40007 19.1299ZM3.57346 19.1299C3.57346 18.8401 3.82988 18.6045 4.14537 18.6045C4.46085 18.6045 4.71727 18.8401 4.71727 19.1299C4.71727 19.4198 4.46085 19.6554 4.14537 19.6554C3.82988 19.6554 3.57346 19.4198 3.57346 19.1299Z" fill="#C1BFD9"/>
</g>
<defs>
<clipPath id="clip0_702_27">
<rect width="28" height="26" fill="white"/>
</clipPath>
</defs>
</svg>
