<svg width="176" height="165" viewBox="0 0 176 165" fill="none" xmlns="http://www.w3.org/2000/svg">
<path d="M121.2 117.902H123.244V128.334H121.2H121.144H21.2813H21.2251H19.1814V126.772V126.73V119.506V119.463V117.902H21.2251H21.2813H121.144L121.2 117.902ZM119.044 63.6326H23.3813V67.6526H119.044V63.6326ZM112.2 60.4243L30.232 60.4195V23.1796C30.232 20.506 33.0757 18.3337 36.5757 18.3337H105.857C109.357 18.3337 112.201 20.506 112.201 23.1796L112.2 60.4243ZM104.356 25.9295C104.356 25.0462 103.419 24.3253 102.256 24.3253L40.1747 24.3206C39.0184 24.3206 38.0747 25.0415 38.0747 25.9247V51.9972C38.0747 52.8804 39.0184 53.6013 40.1747 53.6013H102.256C103.419 53.6013 104.356 52.8804 104.356 51.9972V25.9247V25.9295ZM42.2747 50.3935H100.156V27.5294H42.2747V50.3935ZM30.2248 114.693L30.231 70.8608H112.199V114.688H30.231L30.2248 114.693ZM61.068 104.071C63.768 106.133 67.368 107.269 71.2054 107.269C75.0429 107.269 78.6429 106.133 81.3429 104.071C86.9366 99.7975 86.9366 92.8462 81.3429 88.5777L72.6929 81.9701C71.8679 81.3447 70.5429 81.3399 69.7241 81.9701L61.0678 88.5777C55.4741 92.8507 55.4742 99.8021 61.068 104.071ZM35.8488 103.111C35.8488 103.994 36.7925 104.715 37.9488 104.715C39.1113 104.715 40.0488 103.994 40.0488 103.111V85.6466C40.0488 84.7633 39.105 84.0424 37.9488 84.0424C36.7925 84.0424 35.8488 84.7633 35.8488 85.6466V103.111ZM71.2056 104.061C73.9243 104.061 76.4681 103.259 78.3681 101.803C82.3245 98.7805 82.3245 93.863 78.3681 90.8457L71.2056 85.3743L64.0368 90.8457C60.0805 93.8679 60.0805 98.7806 64.0368 101.803C65.943 103.259 68.4867 104.061 71.2056 104.061ZM134.362 55.859H138.806V52.6507H134.362C132.981 52.6507 131.856 51.7913 131.856 50.7409V48.2774H127.656V50.7409C127.656 53.5626 130.669 55.859 134.369 55.859H134.362ZM123.869 37.0918H116.394V42.1334H123.869V37.0918ZM156.374 44.6209L142.012 33.6495C141.712 33.4203 141.38 33.3105 140.955 33.3105H128.068V45.0697H140.905C142.068 45.0697 143.005 45.7906 143.005 46.6738V62.1423H156.805V45.4272C156.805 45.1025 156.668 44.8542 156.368 44.6203L156.374 44.6209ZM145.593 96.6558C145.593 98.322 143.818 99.678 141.63 99.678C139.443 99.678 137.668 98.322 137.668 96.6558V86.8637C137.668 83.5552 134.418 81.4163 129.393 81.4163H114.293V87.7423H129.393V96.6559C129.393 101.812 134.88 106.004 141.63 106.004C148.38 106.004 153.868 101.812 153.868 96.6559V63.7464H145.593L145.593 96.6558Z" fill="#C1BFD9"/>
</svg>
