<svg width="15" height="15" viewBox="0 0 15 15" fill="none" xmlns="http://www.w3.org/2000/svg">
<g clip-path="url(#clip0_410_37)">
<path fill-rule="evenodd" clip-rule="evenodd" d="M0.337855 4.22947C0.24762 2.58643 2.53999 -0.695118 3.43936 0.639356C3.44235 0.643117 3.44458 0.646879 3.44682 0.650641L5.32235 3.69534C5.34696 3.73596 5.52668 4.08052 5.53563 4.12717C5.68105 4.90807 4.91443 5.65512 4.33275 6.51724C4.25967 6.62558 4.19628 6.80538 4.26042 6.91897C4.7802 7.83303 5.24852 8.39427 5.95846 9.11048C6.66839 9.8267 7.22472 10.2991 8.13081 10.8235C8.24342 10.8889 8.42164 10.8243 8.52903 10.7505C9.38365 10.1645 10.1249 9.39034 10.8982 9.53703C10.9444 9.54606 11.2867 9.72662 11.3263 9.7522L14.3443 11.6443C14.3488 11.6465 14.3518 11.6488 14.3555 11.6518C15.6785 12.5591 12.4256 14.8717 10.7968 14.7799C8.43869 14.6475 5.88986 13.1993 3.89715 11.189C1.90444 9.18025 0.469 6.60895 0.337654 4.22927L0.337855 4.22947Z" fill="#C1BFD9"/>
</g>
<defs>
<clipPath id="clip0_410_37">
<rect width="15" height="15" fill="white"/>
</clipPath>
</defs>
</svg>
