<svg width="25" height="25" viewBox="0 0 25 25" fill="none" xmlns="http://www.w3.org/2000/svg">
<path d="M17.3246 2.96093C15.9404 1.58216 14.1872 0.631744 12.2755 0.223819C10.3637 -0.184107 8.37473 -0.0322006 6.54731 0.661296C4.7199 1.35479 3.13177 2.56039 1.97365 4.13332C0.815534 5.70625 0.136658 7.57963 0.0185522 9.52848C-0.099554 11.4773 0.348131 13.4188 1.30784 15.1198C2.26756 16.8207 3.6985 18.2088 5.42882 19.1174C7.15915 20.0259 9.11529 20.4163 11.0623 20.2417C13.0094 20.067 14.8646 19.3347 16.4051 18.1328L23.0811 24.7604C23.3121 24.9334 23.5978 25.0174 23.8857 24.997C24.1737 24.9765 24.4446 24.8531 24.6487 24.6492C24.8529 24.4453 24.9765 24.1747 24.997 23.8871C25.0174 23.5995 24.9334 23.3142 24.7601 23.0836L18.1241 16.4159C19.6727 14.4683 20.4474 12.0185 20.2999 9.53577C20.1524 7.05307 19.0929 4.71198 17.3246 2.96093ZM15.6056 15.6174C14.8849 16.3405 14.0284 16.9143 13.0851 17.3058C12.1418 17.6974 11.1303 17.8989 10.1088 17.8989C9.08732 17.8989 8.07586 17.6974 7.13257 17.3058C6.18927 16.9143 5.33271 16.3405 4.61209 15.6174C3.88429 14.905 3.30748 14.0536 2.91602 13.1138C2.52455 12.1741 2.32642 11.1654 2.33344 10.1476C2.33344 8.08273 3.15474 6.10244 4.61665 4.64237C6.07857 3.1823 8.06136 2.36204 10.1288 2.36204C12.1963 2.36204 14.1791 3.1823 15.641 4.64237C17.1029 6.10244 17.9242 8.08273 17.9242 10.1476C17.9237 11.1679 17.7183 12.1777 17.32 13.1172C16.9218 14.0568 16.3388 14.907 15.6056 15.6174Z" fill="#6E6D7A"/>
</svg>
