<svg width="27" height="27" viewBox="0 0 27 27" fill="none" xmlns="http://www.w3.org/2000/svg">
<path d="M26.8361 3.94233C26.6939 3.71043 26.4665 3.57791 26.2107 3.57791H5.77089L5.1739 0.695705C5.08862 0.26503 4.77591 0 4.40635 0H0.795985C0.369565 0 0 0.397546 0 0.927607C0 1.45767 0.369565 1.85521 0.795985 1.85521H3.78093L8.07356 22.5607C8.15885 22.9914 8.47156 23.2564 8.84112 23.2564H9.89296C9.46654 23.6209 9.15383 24.2172 9.15383 24.9129C9.15383 26.0724 9.94981 27 10.9448 27C11.9398 27 12.7358 26.0724 12.7358 24.9129C12.7358 24.2172 12.4231 23.654 11.9966 23.2564H19.1889C18.7625 23.6209 18.4498 24.2172 18.4498 24.9129C18.4498 26.0724 19.2458 27 20.2408 27C21.2357 27 22.0317 26.0724 22.0317 24.9129C22.0317 24.2172 21.719 23.654 21.2926 23.2564H21.8043C22.2307 23.2564 22.6003 22.8589 22.6003 22.3288C22.6003 21.8319 22.2307 21.4012 21.8043 21.4012H9.46654L9.01169 19.2479H23.3394C23.709 19.2479 24.0217 18.9497 24.107 18.5521L26.9782 4.73742C27.0351 4.43926 26.9782 4.1411 26.8361 3.94233ZM13.6739 12.7877L13.3896 10.038H17.995L17.7107 12.7877H13.6739ZM17.5117 14.6429L17.2274 17.3926H14.1287L13.8445 14.6429H17.5117ZM7.10701 10.038H11.7976L12.0819 12.7877H7.67557L7.10701 10.038ZM13.1906 8.18282L12.9063 5.43313H18.4498L18.1655 8.18282H13.1906ZM11.3144 5.43313L11.5986 8.18282H6.70902L6.14046 5.43313H11.3144ZM8.04514 14.6429H12.2525L12.5368 17.3926H8.6137L8.04514 14.6429ZM18.8194 17.3926L19.1036 14.6429H23.2826L22.714 17.3926H18.8194ZM23.6806 12.7877H19.3026L19.5869 10.038H24.2491L23.6806 12.7877ZM24.6187 8.18282H19.7575L20.0418 5.43313H25.1872L24.6187 8.18282Z" fill="#C1BFD9"/>
</svg>
