<svg width="95" height="95" viewBox="0 0 95 95" fill="none" xmlns="http://www.w3.org/2000/svg">
<path d="M94.1171 47.0585C94.1171 51.8593 90.2187 55.7577 85.4218 55.7577H55.7498V85.4217C55.7498 90.2147 51.8514 94.117 47.0545 94.117C42.2615 94.117 38.3553 90.2186 38.3553 85.4178V55.7538H8.6953C3.9023 55.7538 0 51.8554 0 47.0585C0 42.2655 3.8984 38.3593 8.6953 38.3593H38.3673L38.3634 8.6953C38.3634 3.9023 42.2618 0 47.0587 0C51.8517 0 55.7579 3.8984 55.7579 8.6992V38.3632H85.4219C90.2149 38.3632 94.1171 42.2616 94.1171 47.0585Z" fill="#565564"/>
</svg>
