<svg width="16" height="16" viewBox="0 0 16 16" fill="none" xmlns="http://www.w3.org/2000/svg">
<path d="M10.1182 1.36143C9.14863 -0.453811 6.84968 -0.453811 5.88023 1.36143L0.370705 11.6646C-0.645473 13.5629 0.547543 16 2.49104 16H13.5101C15.4536 16 16.6439 13.5599 15.6304 11.6646L10.1209 1.36042L10.1182 1.36143ZM8.08155 12.9103H7.91592C7.41216 12.9103 7.00586 12.4417 7.00586 11.8673C7.00586 11.2929 7.41475 10.8242 7.91592 10.8242H8.08155C8.58531 10.8242 8.99162 11.2929 8.99162 11.8673C8.99162 12.4417 8.58272 12.9103 8.08155 12.9103ZM8.99162 8.92395C8.99162 9.55375 8.54737 10.0629 7.99787 10.0629C7.44838 10.0629 7.00413 9.55375 7.00413 8.92395V7.02566C7.00413 6.39586 7.44838 5.88669 7.99787 5.88669C8.54737 5.88669 8.99162 6.39586 8.99162 7.02566V8.92395Z" fill="#C1BFD9"/>
</svg>
