<svg width="27" height="25" viewBox="0 0 27 25" fill="none" xmlns="http://www.w3.org/2000/svg">
<path d="M24.622 17.7545H23.786V8.30933H20.8557V17.7545H17.9046V11.5849H14.9744V17.7545H12.0233V10.8115H9.09305V17.7545H6.14195V14.071H3.21172V17.7545H2.37565C2.16375 17.7545 1.99213 17.884 1.99213 18.0439C1.99213 18.2037 2.16375 18.3332 2.37565 18.3332H24.62C24.8319 18.3332 25.0035 18.2037 25.0035 18.0439C25.0035 17.884 24.8319 17.7545 24.62 17.7545H24.622Z" fill="#C1BFD9"/>
<path d="M21.4044 6.18706C21.4178 6.17911 21.4245 6.16753 21.437 6.15885C21.6834 6.30064 21.9873 6.38889 22.322 6.38889C23.1312 6.38889 23.787 5.89409 23.787 5.28356C23.787 4.67302 23.1312 4.17822 22.322 4.17822C21.5127 4.17822 20.8569 4.67302 20.8569 5.28356C20.8569 5.43691 20.8991 5.58304 20.9739 5.71613C20.9604 5.72192 20.9451 5.72409 20.9317 5.73204L17.3591 7.84075C17.3447 7.84943 17.338 7.861 17.3255 7.87041C17.0791 7.72863 16.7752 7.64037 16.4405 7.64037C15.8701 7.64037 15.3801 7.88922 15.1385 8.24874C15.1222 8.2444 15.1088 8.23572 15.0915 8.23355L12.0722 7.74599C12.053 7.7431 12.0357 7.74599 12.0166 7.74527C11.9782 7.16079 11.3435 6.69492 10.5592 6.69492C9.74993 6.69492 9.0941 7.18972 9.0941 7.80025C9.0941 7.95361 9.13533 8.09901 9.21012 8.23138C9.19573 8.23789 9.18039 8.24006 9.16697 8.2473L5.60125 10.3264C5.58591 10.3351 5.57824 10.3473 5.56578 10.3575C5.31936 10.215 5.0135 10.1267 4.67888 10.1267C3.86964 10.1267 3.21381 10.6215 3.21381 11.232C3.21381 11.8426 3.86964 12.3374 4.67888 12.3374C5.48811 12.3374 6.14394 11.8426 6.14394 11.232C6.14394 11.0794 6.10272 10.934 6.02889 10.8016C6.04231 10.7959 6.05765 10.7922 6.07108 10.785L9.63679 8.70593C9.65213 8.69725 9.65981 8.68423 9.67323 8.6741C9.9206 8.81733 10.2255 8.90558 10.5611 8.90558C11.1325 8.90558 11.6225 8.65601 11.8641 8.29577C11.8814 8.30011 11.8948 8.30879 11.914 8.31168L14.9333 8.79924C14.9506 8.80213 14.9678 8.80213 14.986 8.80358C15.0263 9.38661 15.6601 9.85102 16.4434 9.85102C17.2527 9.85102 17.9085 9.35623 17.9085 8.74569C17.9085 8.59233 17.8673 8.44621 17.7925 8.31384C17.8059 8.30733 17.8212 8.30443 17.8347 8.29648L21.4073 6.18777L21.4044 6.18706Z" fill="#C1BFD9"/>
</svg>
