<svg width="27" height="25" viewBox="0 0 27 25" fill="none" xmlns="http://www.w3.org/2000/svg">
<path d="M24.6221 17.7548H23.786V8.30957H20.8558V17.7548H17.9047V11.5851H14.9745V17.7548H12.0234V10.8118H9.09311V17.7548H6.14201V14.0712H3.21178V17.7548H2.37571C2.16381 17.7548 1.99219 17.8842 1.99219 18.0441C1.99219 18.204 2.16381 18.3335 2.37571 18.3335H24.62C24.8319 18.3335 25.0036 18.204 25.0036 18.0441C25.0036 17.8842 24.8319 17.7548 24.62 17.7548H24.6221Z" fill="#C1BFD9"/>
<path d="M21.4044 6.18706C21.4179 6.17911 21.4246 6.16753 21.437 6.15885C21.6835 6.30064 21.9874 6.38889 22.322 6.38889C23.1313 6.38889 23.7871 5.89409 23.7871 5.28356C23.7871 4.67302 23.1313 4.17822 22.322 4.17822C21.5128 4.17822 20.857 4.67302 20.857 5.28356C20.857 5.43691 20.8991 5.58304 20.9739 5.71613C20.9605 5.72192 20.9452 5.72409 20.9317 5.73204L17.3592 7.84075C17.3448 7.84943 17.3381 7.861 17.3256 7.87041C17.0792 7.72863 16.7752 7.64037 16.4406 7.64037C15.8701 7.64037 15.3802 7.88922 15.1385 8.24874C15.1222 8.2444 15.1088 8.23572 15.0916 8.23355L12.0722 7.74599C12.0531 7.7431 12.0358 7.74599 12.0166 7.74527C11.9783 7.16079 11.3435 6.69492 10.5592 6.69492C9.74999 6.69492 9.09416 7.18972 9.09416 7.80025C9.09416 7.95361 9.13539 8.09901 9.21018 8.23138C9.19579 8.23789 9.18046 8.24006 9.16703 8.2473L5.60131 10.3264C5.58597 10.3351 5.5783 10.3473 5.56584 10.3575C5.31943 10.215 5.01356 10.1267 4.67894 10.1267C3.8697 10.1267 3.21387 10.6215 3.21387 11.232C3.21387 11.8426 3.8697 12.3374 4.67894 12.3374C5.48818 12.3374 6.14401 11.8426 6.14401 11.232C6.14401 11.0794 6.10278 10.934 6.02895 10.8016C6.04237 10.7959 6.05771 10.7922 6.07114 10.785L9.63686 8.70593C9.6522 8.69725 9.65987 8.68423 9.67329 8.6741C9.92066 8.81733 10.2256 8.90558 10.5611 8.90558C11.1326 8.90558 11.6225 8.65601 11.8642 8.29577C11.8814 8.30011 11.8949 8.30879 11.914 8.31168L14.9334 8.79924C14.9506 8.80213 14.9679 8.80213 14.9861 8.80358C15.0264 9.38661 15.6601 9.85102 16.4435 9.85102C17.2527 9.85102 17.9086 9.35623 17.9086 8.74569C17.9086 8.59233 17.8673 8.44621 17.7925 8.31384C17.806 8.30733 17.8213 8.30443 17.8347 8.29648L21.4073 6.18777L21.4044 6.18706Z" fill="#C1BFD9"/>
</svg>
