<svg width="20" height="23" viewBox="0 0 20 23" fill="none" xmlns="http://www.w3.org/2000/svg">
<path d="M9.55998 17.6091C8.89998 17.4251 8.47998 16.8363 8.47998 16.2107V15.7323C8.47998 15.7323 8.47998 15.7139 8.49998 15.7139H11.66V16.2291C11.64 17.1859 10.64 17.9219 9.55998 17.6091Z" fill="#C1BFD9"/>
<path d="M16.78 15.3825H3.33999C2.75999 15.3825 2.29999 14.9593 2.29999 14.4257V14.2601C2.29999 14.0025 2.39999 13.7633 2.59999 13.5793L3.99999 12.3281V8.26172C3.99999 5.79612 5.67999 3.71692 8.19999 2.98092C8.21999 2.98092 8.21999 2.96252 8.21999 2.94412V2.79692C8.21999 2.24492 8.49999 1.71132 8.99999 1.41692C10.36 0.607319 11.86 1.58252 11.86 2.79692V2.94412C14.4 3.68012 16.1 5.75932 16.1 8.24332V12.3281L17.5 13.5977C17.7 13.7817 17.8 14.0209 17.8 14.2785V14.4441C17.82 14.9593 17.36 15.3825 16.78 15.3825Z" fill="#C1BFD9"/>
</svg>
