<svg width="17" height="14" viewBox="0 0 17 14" fill="none" xmlns="http://www.w3.org/2000/svg">
<path d="M14.4603 8.83692V9.35212C14.5382 9.33932 14.6028 9.30892 14.6522 9.26092C14.7016 9.21292 14.7263 9.15532 14.7263 9.08812C14.7263 9.02892 14.7054 8.97772 14.6636 8.93612C14.6218 8.89292 14.5534 8.85932 14.4603 8.83692Z" fill="#C1BFD9"/>
<path d="M3.92669 12.6609C3.92669 13.1057 3.71009 13.5089 3.36239 13.8001H14.6104C15.3571 13.8001 15.9632 13.2897 15.9632 12.6609V11.4641H3.92669V12.6609Z" fill="#C1BFD9"/>
<path d="M3.22559 11.1505C3.22559 11.0209 3.34909 10.9169 3.50299 10.9169H12.2202V9.98092C11.863 9.61132 11.6502 9.14252 11.6502 8.63052C11.6502 8.11852 11.8649 7.64812 12.2202 7.28012V0.120117H0.519989V12.5809C0.519989 13.2097 1.12609 13.7201 1.87279 13.7201C2.61949 13.7201 3.22559 13.2097 3.22559 12.5809V11.1505ZM1.92789 1.54572H6.36819C6.52209 1.54572 6.64559 1.64972 6.64559 1.77932C6.64559 1.90892 6.52209 2.01292 6.36819 2.01292H1.92789C1.77399 2.01292 1.65049 1.90892 1.65049 1.77932C1.65239 1.65132 1.77589 1.54572 1.92789 1.54572ZM1.92789 2.96492H10.8104C10.9643 2.96492 11.0878 3.06892 11.0878 3.19852C11.0878 3.32812 10.9643 3.43212 10.8104 3.43212H1.92789C1.77399 3.43212 1.65049 3.32812 1.65049 3.19852C1.65239 3.06892 1.77589 2.96492 1.92789 2.96492ZM1.92789 4.38252H10.8104C10.9643 4.38252 11.0878 4.48652 11.0878 4.61612C11.0878 4.74572 10.9643 4.84972 10.8104 4.84972H1.92789C1.77399 4.84972 1.65049 4.74572 1.65049 4.61612C1.65239 4.48652 1.77589 4.38252 1.92789 4.38252ZM1.92789 5.80012H10.8104C10.9643 5.80012 11.0878 5.90412 11.0878 6.03372C11.0878 6.16332 10.9643 6.26732 10.8104 6.26732H1.92789C1.77399 6.26732 1.65049 6.16332 1.65049 6.03372C1.65239 5.90572 1.77589 5.80012 1.92789 5.80012ZM1.92789 7.21932H10.8104C10.9643 7.21932 11.0878 7.32332 11.0878 7.45292C11.0878 7.58252 10.9643 7.68652 10.8104 7.68652H1.92789C1.77399 7.68652 1.65049 7.58252 1.65049 7.45292C1.65239 7.32332 1.77589 7.21932 1.92789 7.21932ZM1.92789 9.10412C1.77399 9.10412 1.65049 9.00012 1.65049 8.87052C1.65049 8.74092 1.77399 8.63692 1.92789 8.63692H10.8104C10.9643 8.63692 11.0878 8.74092 11.0878 8.87052C11.0878 9.00012 10.9643 9.10412 10.8104 9.10412H1.92789Z" fill="#C1BFD9"/>
<path d="M14.3425 7.03212C13.2443 7.03212 12.3494 7.78412 12.3494 8.71052C12.3494 9.63532 13.2424 10.3873 14.3425 10.3873C15.4426 10.3873 16.3356 9.63532 16.3356 8.71052C16.3337 7.78412 15.4407 7.03212 14.3425 7.03212ZM14.9372 9.44332C14.8232 9.55212 14.6636 9.61932 14.4603 9.64332V9.88972H14.2323V9.64972C14.0518 9.63052 13.9055 9.57452 13.7915 9.48012C13.6794 9.38572 13.6072 9.25132 13.5749 9.07692L13.9834 9.04012C14.0005 9.11052 14.0309 9.17132 14.0784 9.22252C14.124 9.27372 14.1753 9.31052 14.2323 9.33292V8.77932C14.0271 8.72972 13.877 8.65612 13.782 8.55532C13.687 8.45612 13.6395 8.33452 13.6395 8.19212C13.6395 8.04812 13.6927 7.92652 13.801 7.82892C13.9093 7.73132 14.0537 7.67372 14.2323 7.65932V7.52812H14.4603V7.65932C14.6256 7.67532 14.7586 7.72332 14.8574 7.80172C14.9562 7.88012 15.0189 7.98572 15.0455 8.11852L14.6484 8.16172C14.6237 8.05772 14.561 7.98732 14.4603 7.95052V8.46732C14.7111 8.52492 14.8821 8.59852 14.9733 8.68972C15.0645 8.78092 15.1101 8.89772 15.1101 9.04012C15.1082 9.19852 15.0512 9.33292 14.9372 9.44332Z" fill="#C1BFD9"/>
<path d="M14.0309 8.17612C14.0309 8.22252 14.048 8.26572 14.0803 8.30572C14.1145 8.34572 14.1639 8.37772 14.2323 8.40332V7.94732C14.1715 7.96492 14.1221 7.99532 14.0841 8.03692C14.048 8.07852 14.0309 8.12492 14.0309 8.17612Z" fill="#C1BFD9"/>
</svg>
