<svg width="19" height="20" viewBox="0 0 19 20" fill="none" xmlns="http://www.w3.org/2000/svg">
<path d="M15.4603 9.83691V10.3521C15.5382 10.3393 15.6028 10.3089 15.6522 10.2609C15.7016 10.2129 15.7263 10.1553 15.7263 10.0881C15.7263 10.0289 15.7054 9.97771 15.6636 9.93611C15.6218 9.89291 15.5534 9.85931 15.4603 9.83691Z" fill="#C1BFD9"/>
<path d="M4.9267 13.6607C4.9267 14.1055 4.7101 14.5087 4.3624 14.7999H15.6104C16.3571 14.7999 16.9632 14.2895 16.9632 13.6607V12.4639H4.9267V13.6607Z" fill="#C1BFD9"/>
<path d="M4.22559 12.1505C4.22559 12.0209 4.34909 11.9169 4.50299 11.9169H13.2202V10.9809C12.863 10.6113 12.6502 10.1425 12.6502 9.63052C12.6502 9.11852 12.8649 8.64812 13.2202 8.28012V1.12012H1.51999V13.5809C1.51999 14.2097 2.12609 14.7201 2.87279 14.7201C3.61949 14.7201 4.22559 14.2097 4.22559 13.5809V12.1505ZM2.92789 2.54572H7.36819C7.52209 2.54572 7.64559 2.64972 7.64559 2.77932C7.64559 2.90892 7.52209 3.01292 7.36819 3.01292H2.92789C2.77399 3.01292 2.65049 2.90892 2.65049 2.77932C2.65239 2.65132 2.77589 2.54572 2.92789 2.54572ZM2.92789 3.96492H11.8104C11.9643 3.96492 12.0878 4.06892 12.0878 4.19852C12.0878 4.32812 11.9643 4.43212 11.8104 4.43212H2.92789C2.77399 4.43212 2.65049 4.32812 2.65049 4.19852C2.65239 4.06892 2.77589 3.96492 2.92789 3.96492ZM2.92789 5.38252H11.8104C11.9643 5.38252 12.0878 5.48652 12.0878 5.61612C12.0878 5.74572 11.9643 5.84972 11.8104 5.84972H2.92789C2.77399 5.84972 2.65049 5.74572 2.65049 5.61612C2.65239 5.48652 2.77589 5.38252 2.92789 5.38252ZM2.92789 6.80012H11.8104C11.9643 6.80012 12.0878 6.90412 12.0878 7.03372C12.0878 7.16332 11.9643 7.26732 11.8104 7.26732H2.92789C2.77399 7.26732 2.65049 7.16332 2.65049 7.03372C2.65239 6.90572 2.77589 6.80012 2.92789 6.80012ZM2.92789 8.21932H11.8104C11.9643 8.21932 12.0878 8.32332 12.0878 8.45292C12.0878 8.58252 11.9643 8.68652 11.8104 8.68652H2.92789C2.77399 8.68652 2.65049 8.58252 2.65049 8.45292C2.65239 8.32332 2.77589 8.21932 2.92789 8.21932ZM2.92789 10.1041C2.77399 10.1041 2.65049 10.0001 2.65049 9.87052C2.65049 9.74092 2.77399 9.63692 2.92789 9.63692H11.8104C11.9643 9.63692 12.0878 9.74092 12.0878 9.87052C12.0878 10.0001 11.9643 10.1041 11.8104 10.1041H2.92789Z" fill="#C1BFD9"/>
<path d="M15.3425 8.03223C14.2443 8.03223 13.3494 8.78423 13.3494 9.71063C13.3494 10.6354 14.2424 11.3874 15.3425 11.3874C16.4426 11.3874 17.3356 10.6354 17.3356 9.71063C17.3337 8.78423 16.4407 8.03223 15.3425 8.03223ZM15.9372 10.4434C15.8232 10.5522 15.6636 10.6194 15.4603 10.6434V10.8898H15.2323V10.6498C15.0518 10.6306 14.9055 10.5746 14.7915 10.4802C14.6794 10.3858 14.6072 10.2514 14.5749 10.077L14.9834 10.0402C15.0005 10.1106 15.0309 10.1714 15.0784 10.2226C15.124 10.2738 15.1753 10.3106 15.2323 10.333V9.77943C15.0271 9.72983 14.877 9.65623 14.782 9.55543C14.687 9.45623 14.6395 9.33463 14.6395 9.19223C14.6395 9.04823 14.6927 8.92663 14.801 8.82903C14.9093 8.73143 15.0537 8.67383 15.2323 8.65943V8.52823H15.4603V8.65943C15.6256 8.67543 15.7586 8.72343 15.8574 8.80183C15.9562 8.88023 16.0189 8.98583 16.0455 9.11863L15.6484 9.16183C15.6237 9.05783 15.561 8.98743 15.4603 8.95063V9.46743C15.7111 9.52503 15.8821 9.59863 15.9733 9.68983C16.0645 9.78103 16.1101 9.89783 16.1101 10.0402C16.1082 10.1986 16.0512 10.333 15.9372 10.4434Z" fill="#C1BFD9"/>
<path d="M15.0309 9.17607C15.0309 9.22247 15.048 9.26567 15.0803 9.30567C15.1145 9.34567 15.1639 9.37767 15.2323 9.40327V8.94727C15.1715 8.96487 15.1221 8.99527 15.0841 9.03687C15.048 9.07847 15.0309 9.12487 15.0309 9.17607Z" fill="#C1BFD9"/>
</svg>
