<svg width="30" height="30" viewBox="0 0 30 30" fill="none" xmlns="http://www.w3.org/2000/svg">
<path d="M4.48176 12.7127C4.75449 12.7454 5.02267 12.7672 5.29539 12.7963C5.80448 12.8509 6.30903 12.9054 6.81812 12.9527C7.1363 12.9818 7.45903 13 7.77721 13.0218C8.2363 13.0545 8.69539 13.0909 9.15448 13.1163C9.49539 13.1345 9.83176 13.1454 10.1681 13.16C10.5272 13.1745 10.8863 13.189 11.2454 13.2V11.9272C11.2454 11.5963 11.5727 11.3272 11.9727 11.3272H14.2545C14.6545 11.3272 14.9818 11.5963 14.9818 11.9272V13.2036C15.0454 13.2036 15.1045 13.2 15.1681 13.2C15.8136 13.1818 16.4681 13.1563 17.1318 13.12C17.1908 13.1163 17.2545 13.1127 17.3181 13.109C17.9772 13.069 18.6408 13.0218 19.309 12.9636C19.3499 12.96 19.3908 12.9563 19.4318 12.9527C19.4818 12.92 19.5318 12.8872 19.5818 12.8545C19.6136 12.8327 19.6454 12.8145 19.6772 12.7927C19.7908 12.7163 19.909 12.6472 20.0318 12.5818C20.0727 12.56 20.1136 12.5381 20.1545 12.5163C20.2727 12.4545 20.3908 12.3963 20.509 12.3418C20.559 12.32 20.609 12.2981 20.659 12.2763C20.7727 12.229 20.8908 12.1854 21.0045 12.1418C21.0681 12.12 21.1272 12.0981 21.1908 12.0763C21.2999 12.04 21.4136 12.0072 21.5227 11.9781C21.5954 11.9563 21.6681 11.9381 21.7454 11.92C21.8499 11.8945 21.9545 11.8763 22.0636 11.8545C22.1454 11.84 22.2272 11.8218 22.3136 11.8072C22.4181 11.7927 22.5227 11.7818 22.6272 11.7672C22.7136 11.7563 22.8045 11.7454 22.8908 11.7381C23.0136 11.7272 23.1363 11.7272 23.2636 11.7236C23.3318 11.72 23.3999 11.7163 23.4727 11.7163C23.6999 11.7163 23.9272 11.7272 24.1454 11.7491C24.1908 11.7527 24.2363 11.76 24.2772 11.7636C24.4545 11.7818 24.6272 11.8072 24.7954 11.8363C24.8136 11.84 24.8363 11.84 24.8545 11.8436C24.8818 11.7672 24.8954 11.6909 24.8954 11.6109V7.79269C24.8954 6.88723 23.9727 6.14905 22.8408 6.14905H17.9454H17.9408V4.4436C17.9408 3.8036 17.3318 3.28723 16.5863 3.28723H9.65448C8.90903 3.28723 8.29994 3.80723 8.29994 4.4436V6.14905H8.29539H3.39085C2.25903 6.14905 1.3363 6.88723 1.3363 7.79269V11.6109C1.3363 11.8836 1.50903 12.1381 1.79539 12.2872C1.79994 12.2909 1.79994 12.2909 1.80449 12.2909C1.80903 12.2909 1.80903 12.2945 1.81358 12.2945C1.83176 12.3018 1.84539 12.3054 1.85903 12.3163C1.86812 12.32 1.87721 12.3236 1.89085 12.3309C1.89085 12.3309 1.89085 12.3309 1.89539 12.3309C1.97267 12.3636 2.05903 12.3854 2.14994 12.4C2.92721 12.5163 3.70449 12.6218 4.48176 12.7127ZM9.65448 3.99269H16.5818C16.8408 3.99269 17.0545 4.19632 17.0545 4.4436V6.14541H9.18176V4.4436C9.18176 4.19632 9.39085 3.99269 9.65448 3.99269ZM4.76358 7.41814H21.4727C21.7181 7.41814 21.9136 7.5745 21.9136 7.77087C21.9136 7.96723 21.7181 8.1236 21.4727 8.1236H8.11358V9.0945C8.11358 9.29087 7.91812 9.44723 7.67267 9.44723C7.42721 9.44723 7.23176 9.29087 7.23176 9.0945V8.1236H4.75903C4.51358 8.1236 4.31812 7.96723 4.31812 7.77087C4.31812 7.5745 4.51812 7.41814 4.76358 7.41814Z" fill="#C1BFD9"/>
<path d="M18.0409 18.7091C18.0318 18.6982 18.0273 18.6836 18.0182 18.6727C17.9364 18.5346 17.8591 18.3927 17.7909 18.2473C17.7682 18.1964 17.7409 18.1455 17.7227 18.0946C17.6955 18.0327 17.6727 17.9709 17.65 17.9055C17.6136 17.8109 17.5818 17.7127 17.5545 17.6146C17.5455 17.5855 17.5364 17.5564 17.5273 17.5273C17.4909 17.3855 17.4636 17.2436 17.4455 17.0982C17.4409 17.0727 17.4409 17.0509 17.4364 17.0255C17.4182 16.8727 17.4045 16.72 17.4045 16.5636C17.4045 16.4073 17.4182 16.2546 17.4364 16.1018C17.4409 16.0691 17.4455 16.04 17.45 16.0073C17.4682 15.8946 17.4864 15.7818 17.5136 15.6691C17.5227 15.6218 17.5364 15.5746 17.55 15.5236C17.5773 15.4255 17.6091 15.3309 17.6409 15.2364C17.6591 15.1891 17.6727 15.1382 17.6909 15.0909C17.7409 14.96 17.8 14.8327 17.8682 14.7091C17.8955 14.6618 17.9227 14.6146 17.95 14.5673C18 14.4836 18.0455 14.4 18.1 14.3164C18.1318 14.2691 18.1636 14.2218 18.1955 14.1746C18.2545 14.0873 18.3227 14.0036 18.3864 13.92C18.4136 13.8836 18.4409 13.8509 18.4727 13.8146C18.4955 13.7855 18.5182 13.7564 18.5455 13.7273C18.5182 13.7309 18.4955 13.7309 18.4682 13.7309C17.9364 13.7709 17.4091 13.8036 16.8818 13.8291C16.7455 13.8364 16.6136 13.84 16.4773 13.8473C16.0682 13.8655 15.6591 13.8836 15.2545 13.8946C15.1636 13.8982 15.0727 13.9018 14.9818 13.9055V15.2291C14.9818 15.56 14.6545 15.8291 14.2545 15.8291H11.9727C11.5682 15.8291 11.2409 15.56 11.2409 15.2291V13.9055C11.1818 13.9055 11.1227 13.8982 11.0636 13.8982C10.3909 13.88 9.71818 13.8509 9.04091 13.8146C8.95 13.8109 8.86364 13.8036 8.77273 13.7964C8.08182 13.7564 7.38636 13.7055 6.69545 13.6436C6.62727 13.6364 6.55909 13.6291 6.49091 13.6255C5.77273 13.56 5.05909 13.4873 4.34091 13.4036C4.30455 13.4 4.26818 13.3927 4.23636 13.3891C3.49091 13.2982 2.74545 13.2 2.00455 13.0873H2V19.4509C2 20.1418 2.7 20.7018 3.56364 20.7018H20.3409L20.3364 20.6982C19.35 20.2291 18.55 19.5382 18.0409 18.7091Z" fill="#C1BFD9"/>
<path d="M24.5682 12.5164C24.5091 12.5055 24.4546 12.4982 24.3955 12.491C24.3 12.4764 24.2046 12.4655 24.1046 12.4546C24.0455 12.4473 23.9864 12.4437 23.9228 12.4401C23.8 12.4328 23.6728 12.4255 23.5455 12.4255C23.5182 12.4255 23.4955 12.4219 23.4682 12.4219C23.3682 12.4219 23.2728 12.4291 23.1728 12.4328C23.1046 12.4364 23.0364 12.4364 22.9682 12.4401C22.8773 12.4473 22.7909 12.4582 22.7 12.4691C22.6228 12.4801 22.5409 12.4873 22.4637 12.4982C22.3864 12.5091 22.3091 12.5273 22.2319 12.5419C22.1455 12.5601 22.0591 12.5746 21.9728 12.5964C21.9046 12.611 21.841 12.6328 21.7773 12.651C21.6819 12.6764 21.5864 12.7019 21.4955 12.7346C21.441 12.7528 21.3909 12.771 21.3364 12.7928C21.2364 12.8291 21.1319 12.8655 21.0364 12.9091C20.9955 12.9273 20.9546 12.9455 20.9137 12.9673C20.8091 13.0146 20.7046 13.0655 20.6046 13.1164C20.5728 13.1346 20.541 13.1528 20.5091 13.171C20.4046 13.2291 20.3 13.291 20.2 13.3564C20.1728 13.3746 20.15 13.3891 20.1273 13.4073C20.0273 13.4764 19.9273 13.5455 19.8319 13.6219C19.8046 13.6437 19.7773 13.6691 19.7455 13.691C19.6546 13.7673 19.5637 13.8437 19.4773 13.9273C19.4637 13.9382 19.4546 13.9528 19.441 13.9637C18.7182 14.6764 18.2819 15.5819 18.2819 16.571C18.2819 16.7128 18.291 16.851 18.3091 16.9891C18.3137 17.0073 18.3182 17.0255 18.3182 17.0437C18.3364 17.1564 18.3546 17.2655 18.3819 17.3746C18.4 17.451 18.4273 17.5273 18.45 17.6037C18.4637 17.651 18.4773 17.6982 18.4955 17.7419C18.5364 17.8473 18.5819 17.9491 18.6273 18.051C18.6364 18.0655 18.641 18.0801 18.65 18.0946C19.1228 19.0364 20.0182 19.8146 21.1455 20.2691C21.15 20.2728 21.1591 20.2728 21.1637 20.2764C21.3 20.331 21.4364 20.3782 21.5773 20.4255C21.5864 20.4291 21.6 20.4328 21.6137 20.4364C21.7546 20.4801 21.8955 20.5164 22.041 20.5528C22.05 20.5564 22.0591 20.5564 22.0682 20.5564C22.3728 20.6255 22.691 20.6728 23.0137 20.6946C23.0182 20.6946 23.0182 20.6982 23.0228 20.6982C23.1682 20.7091 23.3182 20.7164 23.4637 20.7164C26.3273 20.7164 28.6546 18.8582 28.6546 16.571C28.6637 14.5819 26.9046 12.9201 24.5682 12.5164ZM20.8364 16.9201H19.8C19.5546 16.9201 19.3591 16.7637 19.3591 16.5673C19.3591 16.371 19.5546 16.2146 19.8 16.2146H20.8364C21.0819 16.2146 21.2773 16.371 21.2773 16.5673C21.2773 16.7601 21.0819 16.9201 20.8364 16.9201ZM23.4819 16.291C24.4819 16.291 25.2955 16.8946 25.2955 17.6364C25.2955 18.2655 24.7091 18.7891 23.9228 18.9382V19.131C23.9228 19.3273 23.7273 19.4837 23.4819 19.4837C23.2364 19.4837 23.0409 19.3273 23.0409 19.131V18.9382C22.2546 18.7928 21.6682 18.2655 21.6682 17.6364C21.6682 17.4401 21.8637 17.2837 22.1091 17.2837C22.3546 17.2837 22.55 17.4401 22.55 17.6364C22.55 17.9891 22.9682 18.2764 23.4819 18.2764C23.9955 18.2764 24.4137 17.9891 24.4137 17.6364C24.4137 17.2837 23.9955 16.9964 23.4819 16.9964C22.4819 16.9964 21.6682 16.3928 21.6682 15.651C21.6682 15.0219 22.2546 14.4982 23.0409 14.3491V14.131C23.0409 13.9346 23.2364 13.7782 23.4819 13.7782C23.7273 13.7782 23.9228 13.9346 23.9228 14.131V14.3491C24.7091 14.4946 25.2955 15.0219 25.2955 15.651C25.2955 15.8473 25.1 16.0037 24.8546 16.0037C24.6091 16.0037 24.4137 15.8473 24.4137 15.651C24.4137 15.2982 23.9955 15.011 23.4819 15.011C22.9682 15.011 22.55 15.2982 22.55 15.651C22.55 16.0037 22.9682 16.291 23.4819 16.291ZM27.15 16.9201H26.1137C25.8682 16.9201 25.6728 16.7637 25.6728 16.5673C25.6728 16.371 25.8682 16.2146 26.1137 16.2146H27.15C27.3955 16.2146 27.591 16.371 27.591 16.5673C27.591 16.7601 27.3955 16.9201 27.15 16.9201Z" fill="#C1BFD9"/>
<path d="M12.1273 12.0291V13.5672V15.1309H14.1046V13.5854C14.1046 13.5781 14.1 13.5745 14.1 13.5672V12.0291H12.1273Z" fill="#C1BFD9"/>
</svg>
