<svg width="32" height="33" viewBox="0 0 32 33" fill="none" xmlns="http://www.w3.org/2000/svg">
<path d="M15.6 0.640015C6.98399 0.640015 0 7.67849 0 16.36C0 25.0423 6.98399 32.08 15.6 32.08C24.2153 32.08 31.2 25.0423 31.2 16.36C31.2 7.67849 24.2153 0.640015 15.6 0.640015ZM22.5885 21.3856C23.0985 21.8988 23.0985 22.7314 22.5885 23.2453L22.4324 23.4034C21.9224 23.9166 21.0961 23.9166 20.5861 23.4034L15.6 18.3774L10.6128 23.403C10.1035 23.9162 9.27722 23.9162 8.76724 23.403L8.61038 23.245C8.10115 22.7311 8.10115 21.8984 8.61038 21.3852L13.598 16.36L8.61075 11.3352C8.10152 10.8213 8.10152 9.9886 8.61075 9.47469L8.76761 9.31738C9.27759 8.80348 10.1039 8.80348 10.6131 9.31738L15.6 14.3426L20.5865 9.31776C21.0965 8.80386 21.9228 8.80386 22.4328 9.31776L22.5889 9.47507C23.0989 9.98897 23.0989 10.8217 22.5889 11.3356L17.602 16.36L22.5885 21.3856Z" fill="#78A55A"/>
</svg>
