<svg width="23" height="20" viewBox="0 0 23 20" fill="none" xmlns="http://www.w3.org/2000/svg">
<path d="M2.87149 0C1.29519 0 0 1.12625 0 2.49695V6.66233C0 8.03302 1.29519 9.16741 2.87149 9.16741H7.66916C9.24546 9.16741 10.5407 8.03302 10.5407 6.66233V2.49695C10.5407 1.12625 9.24546 0 7.66916 0H2.87149ZM15.3308 0C13.7545 0 12.4593 1.12625 12.4593 2.49695V6.66233C12.4593 8.03302 13.7545 9.16741 15.3308 9.16741H20.1285C21.7048 9.16741 23 8.03302 23 6.66233V2.49695C23 1.12625 21.7048 0 20.1285 0H15.3308ZM2.87149 10.8342C1.29519 10.8342 0 11.9605 0 13.3312V17.5031C0 18.8737 1.29519 20 2.87149 20H7.66916C9.24546 20 10.5407 18.8737 10.5407 17.5031V13.3312C10.5407 11.9605 9.24546 10.8342 7.66916 10.8342H2.87149ZM15.3308 10.8342C13.7545 10.8342 12.4593 11.9605 12.4593 13.3312V17.5031C12.4593 18.8737 13.7545 20 15.3308 20H20.1285C21.7048 20 23 18.8737 23 17.5031V13.3312C23 11.9605 21.7048 10.8342 20.1285 10.8342H15.3308Z" fill="#C1BFD9"/>
</svg>
