<svg width="23" height="22" viewBox="0 0 23 22" fill="none" xmlns="http://www.w3.org/2000/svg">
<g clip-path="url(#clip0_204_9616)">
<path d="M2.87149 0C1.29519 0 0 0.991101 0 2.19731V5.86285C0 7.06906 1.29519 8.06732 2.87149 8.06732H7.66916C9.24546 8.06732 10.5407 7.06906 10.5407 5.86285V2.19731C10.5407 0.991101 9.24546 0 7.66916 0H2.87149ZM15.3308 0C13.7545 0 12.4593 0.991101 12.4593 2.19731V5.86285C12.4593 7.06906 13.7545 8.06732 15.3308 8.06732H20.1285C21.7048 8.06732 23 7.06906 23 5.86285V2.19731C23 0.991101 21.7048 0 20.1285 0H15.3308ZM2.87149 9.53411C1.29519 9.53411 0 10.5252 0 11.7314V15.4027C0 16.6089 1.29519 17.6 2.87149 17.6H7.66916C9.24546 17.6 10.5407 16.6089 10.5407 15.4027V11.7314C10.5407 10.5252 9.24546 9.53411 7.66916 9.53411H2.87149ZM15.3308 9.53411C13.7545 9.53411 12.4593 10.5252 12.4593 11.7314V15.4027C12.4593 16.6089 13.7545 17.6 15.3308 17.6H20.1285C21.7048 17.6 23 16.6089 23 15.4027V11.7314C23 10.5252 21.7048 9.53411 20.1285 9.53411H15.3308Z" fill="#C1BFD9"/>
</g>
<defs>
<clipPath id="clip0_204_9616">
<rect width="23" height="22" fill="white"/>
</clipPath>
</defs>
</svg>
