<svg width="23" height="21" viewBox="0 0 23 21" fill="none" xmlns="http://www.w3.org/2000/svg">
<g clip-path="url(#clip0_613_8)">
<path d="M18.7266 2.06878H17.125V0.480029C17.125 0.247529 16.9688 0.0925293 16.7344 0.0925293C16.5 0.0925293 16.3438 0.247529 16.3438 0.480029V2.06878H11.8906V0.480029C11.8906 0.247529 11.7344 0.0925293 11.5 0.0925293C11.2656 0.0925293 11.1094 0.247529 11.1094 0.480029V2.06878H6.65625V0.480029C6.65625 0.247529 6.5 0.0925293 6.26562 0.0925293C6.03125 0.0925293 5.875 0.247529 5.875 0.480029V2.06878H4.27344C2.24219 2.06878 0.601562 3.69628 0.601562 5.75003V7.49378V17.1038C0.601562 19.1188 2.24219 20.7463 4.27344 20.7463H18.6875C20.7188 20.7463 22.3594 19.1188 22.3594 17.1038V7.45503V5.71128C22.3594 3.69628 20.7188 2.06878 18.7266 2.06878ZM1.42187 5.71128C1.42187 4.12253 2.71094 2.80503 4.3125 2.80503H5.91406V4.43253C5.91406 4.66503 6.07031 4.82003 6.30469 4.82003C6.53906 4.82003 6.69531 4.66503 6.69531 4.43253V2.80503H11.1094V4.43253C11.1094 4.66503 11.2656 4.82003 11.5 4.82003C11.7344 4.82003 11.8906 4.66503 11.8906 4.43253V2.80503H16.3438V4.43253C16.3438 4.66503 16.5 4.82003 16.7344 4.82003C16.9688 4.82003 17.125 4.66503 17.125 4.43253V2.80503H18.7266C20.3281 2.80503 21.6172 4.12253 21.6172 5.71128V7.06753H1.42187V5.71128Z" fill="#565564"/>
</g>
<defs>
<clipPath id="clip0_613_8">
<rect width="23" height="21" fill="white"/>
</clipPath>
</defs>
</svg>
