<?xml version="1.0" encoding="UTF-8"?>
<svg version="1.1" xmlns="http://www.w3.org/2000/svg" width="60" height="60">
<path d="M0 0 C1.21236328 0.01353516 1.21236328 0.01353516 2.44921875 0.02734375 C3.37154297 0.04474609 3.37154297 0.04474609 4.3125 0.0625 C4.3125 1.0525 4.3125 2.0425 4.3125 3.0625 C3.55324219 3.17207031 2.79398438 3.28164062 2.01171875 3.39453125 C1.01785156 3.55308594 0.02398437 3.71164063 -1 3.875 C-1.98613281 4.02582031 -2.97226563 4.17664063 -3.98828125 4.33203125 C-6.89756458 5.11934816 -7.94212126 5.64667419 -9.6875 8.0625 C-12.72442122 15.54127328 -11.6077857 22.73093765 -8.6875 30.0625 C-7.06136274 32.96701625 -5.4546673 35.17902016 -2.6875 37.0625 C0.84269032 37.55796531 3.32276323 37.31627866 6.75 36.4375 C10.58909023 35.87568192 13.59967001 36.99270153 17.3125 38.0625 C16.879375 37.29679687 16.879375 37.29679687 16.4375 36.515625 C13.15582539 30.08901223 12.26754705 24.23087724 13.3125 17.0625 C15.40669603 13.32286423 17.42115655 11.68566512 21.3125 10.0625 C23.56640625 9.83203125 23.56640625 9.83203125 25.875 9.875 C27.02162109 9.88466797 27.02162109 9.88466797 28.19140625 9.89453125 C30.3125 10.0625 30.3125 10.0625 33.3125 11.0625 C33.3125 12.0525 33.3125 13.0425 33.3125 14.0625 C38.26764502 13.18777407 38.26764502 13.18777407 41.75 9.9375 C42.0284375 9.009375 42.0284375 9.009375 42.3125 8.0625 C40.0025 8.3925 37.6925 8.7225 35.3125 9.0625 C34.8175 7.5775 34.8175 7.5775 34.3125 6.0625 C37.29844424 4.56952788 40.02103624 4.94494772 43.3125 5.0625 C43.9725 5.3925 44.6325 5.7225 45.3125 6.0625 C45.80296322 11.45759537 45.80296322 11.45759537 43.4375 14.375 C39.67909891 17.35961263 37.09648343 17.39821814 32.3125 17.0625 C31.3125 16.0625 30.3125 15.0625 29.3125 14.0625 C25.01547741 13.42590406 23.0271926 13.59110701 19.375 16 C16.5554725 20.18657114 16.45822388 23.15832227 17.3125 28.0625 C18.52970951 32.28388618 19.64640419 36.09061078 23.5625 38.375 C28.97957812 37.75942294 33.03059605 35.07165843 37.25 31.75 C40.5617679 27.43466608 40.3125 23.34370526 40.3125 18.0625 C43.3125 19.0625 43.3125 19.0625 44.3125 21.0625 C44.69283701 26.10196532 44.48367003 29.07296351 41.3125 33.0625 C36.87579845 37.56798762 31.83655324 41.70614583 25.29785156 42.22119141 C23.20309199 42.17112735 21.14748976 42.01866503 19.0625 41.8125 C18.35609375 41.75964844 17.6496875 41.70679688 16.921875 41.65234375 C13.87532108 41.40423425 11.22212193 41.03237398 8.3125 40.0625 C6.8275 40.5575 6.8275 40.5575 5.3125 41.0625 C0.46714331 41.70854756 -2.7501019 41.62847621 -7 39.0625 C-11.5924498 34.59761825 -14.50794133 28.03557718 -14.890625 21.69921875 C-14.90609375 20.39597656 -14.9215625 19.09273437 -14.9375 17.75 C-14.96328125 16.45449219 -14.9890625 15.15898437 -15.015625 13.82421875 C-14.59329369 8.98249192 -13.32013758 5.5420778 -9.6875 2.25 C-6.38489873 0.2890805 -3.75720039 -0.05445218 0 0 Z " fill="#000000" transform="translate(14.6875,10.9375)"/>
<path d="M0 0 C0 0.99 0 1.98 0 3 C0.87011719 3.03867188 0.87011719 3.03867188 1.7578125 3.078125 C7.1837545 3.47208779 10.76490588 4.29429265 15 8 C15.875 10.25 15.875 10.25 16 12 C13 12 13 12 11.4375 10.5625 C10.963125 10.046875 10.48875 9.53125 10 9 C7.47524538 7.73762269 5.68799534 7.90143596 2.875 7.9375 C1.96492188 7.94652344 1.05484375 7.95554687 0.1171875 7.96484375 C-0.58148438 7.97644531 -1.28015625 7.98804688 -2 8 C-2.33 8.66 -2.66 9.32 -3 10 C-2.34 10 -1.68 10 -1 10 C-1 10.99 -1 11.98 -1 13 C-6.75 14.125 -6.75 14.125 -9 13 C-9 12.01 -9 11.02 -9 10 C-8.01 10 -7.02 10 -6 10 C-6.061875 9.0925 -6.12375 8.185 -6.1875 7.25 C-5.9207841 2.62692448 -4.89712889 0 0 0 Z " fill="#000000" transform="translate(28,7)"/>
<path d="M0 0 C0.99 0 1.98 0 3 0 C3.33 3.63 3.66 7.26 4 11 C3.01 11 2.02 11 1 11 C-0.28317892 7.15046324 -0.06643637 4.05261865 0 0 Z " fill="#000000" transform="translate(6,27)"/>
<path d="M0 0 C0.99 0 1.98 0 3 0 C2.67 1.32 2.34 2.64 2 4 C1.01 3.67 0.02 3.34 -1 3 C-0.67 2.01 -0.34 1.02 0 0 Z " fill="#000000" transform="translate(47,38)"/>
<path d="M0 0 C0.99 0 1.98 0 3 0 C2.67 1.32 2.34 2.64 2 4 C1.34 4 0.68 4 0 4 C0 2.68 0 1.36 0 0 Z " fill="#000000" transform="translate(36,41)"/>
<path d="M0 0 C0.99 0 1.98 0 3 0 C2.67 1.32 2.34 2.64 2 4 C1.34 3.67 0.68 3.34 0 3 C0 2.01 0 1.02 0 0 Z " fill="#000000" transform="translate(41,43)"/>
<path d="M0 0 C0.66 0.33 1.32 0.66 2 1 C2 1.99 2 2.98 2 4 C1.01 4 0.02 4 -1 4 C-0.67 2.68 -0.34 1.36 0 0 Z " fill="#000000" transform="translate(41,28)"/>
<path d="M0 0 C0.99 0 1.98 0 3 0 C3 0.99 3 1.98 3 3 C2.01 3 1.02 3 0 3 C0 2.01 0 1.02 0 0 Z " fill="#000000" transform="translate(41,36)"/>
<path d="M0 0 C0.99 0 1.98 0 3 0 C3 0.99 3 1.98 3 3 C2.01 3 1.02 3 0 3 C0 2.01 0 1.02 0 0 Z " fill="#000000" transform="translate(35,34)"/>
<path d="M0 0 C0.99 0 1.98 0 3 0 C3 0.99 3 1.98 3 3 C2.01 3 1.02 3 0 3 C0 2.01 0 1.02 0 0 Z " fill="#000000" transform="translate(46,31)"/>
<path d="M0 0 C0.99 0 1.98 0 3 0 C3 0.99 3 1.98 3 3 C2.01 2.67 1.02 2.34 0 2 C0 1.34 0 0.68 0 0 Z " fill="#000000" transform="translate(6,22)"/>
</svg>
