<svg width="23" height="27" viewBox="0 0 23 27" fill="none" xmlns="http://www.w3.org/2000/svg">
<path fill-rule="evenodd" clip-rule="evenodd" d="M19.9981 24.0789C19.9981 24.7449 19.7335 25.3836 19.2626 25.8545C18.7917 26.3254 18.153 26.59 17.487 26.59H4.8719C4.20591 26.59 3.56719 26.3254 3.09626 25.8545C2.62533 25.3836 2.36077 24.7449 2.36077 24.0789V7.49205H19.9978V24.0789H19.9981ZM1.24257 4.14929H21.1157C21.4453 4.14929 21.7613 4.2802 21.9944 4.51323C22.2274 4.74625 22.3583 5.06231 22.3583 5.39186C22.3583 5.72141 22.2274 6.03746 21.9944 6.27049C21.7613 6.50351 21.4453 6.63443 21.1157 6.63443H1.24257C0.91302 6.63443 0.596968 6.50351 0.36394 6.27049C0.130913 6.03746 0 5.72141 0 5.39186C0 5.06231 0.130913 4.74625 0.36394 4.51323C0.596968 4.2802 0.91302 4.14929 1.24257 4.14929ZM7.18836 21.9083H7.1984C7.53917 21.9077 7.86578 21.772 8.10663 21.5309C8.34748 21.2899 8.4829 20.9631 8.48322 20.6224V13.4588C8.48329 13.1178 8.34803 12.7907 8.10713 12.5494C7.86623 12.308 7.5394 12.1722 7.1984 12.1716H7.18836C6.84756 12.1723 6.52094 12.308 6.28013 12.5492C6.03932 12.7903 5.90399 13.1171 5.90383 13.4579V20.6224C5.90415 20.9631 6.03953 21.2898 6.28032 21.5308C6.5211 21.7719 6.84764 21.9076 7.18836 21.9083ZM6.76117 13.4591V20.6224C6.76124 20.7357 6.80624 20.8445 6.8863 20.9248C6.96636 21.005 7.07497 21.0503 7.18836 21.0507H7.1984C7.31183 21.0504 7.42052 21.0052 7.50064 20.9249C7.58077 20.8446 7.62581 20.7358 7.62588 20.6224V13.4588C7.62588 13.3453 7.58088 13.2365 7.50075 13.1561C7.42061 13.0758 7.31188 13.0305 7.1984 13.0301H7.18836C7.07492 13.0305 6.96627 13.0759 6.8862 13.1562C6.80613 13.2366 6.76116 13.3457 6.76117 13.4591ZM15.1599 21.9083H15.1699C15.511 21.9079 15.838 21.7723 16.0793 21.5313C16.3206 21.2902 16.4565 20.9634 16.4574 20.6224V13.4588C16.4569 13.1175 16.321 12.7904 16.0797 12.5491C15.8384 12.3079 15.5112 12.1721 15.1699 12.1716H15.1599C14.819 12.1722 14.4923 12.3079 14.2515 12.5491C14.0106 12.7902 13.8752 13.1171 13.8751 13.4579V20.6224C13.8754 20.9631 14.0108 21.2899 14.2517 21.5309C14.4925 21.772 14.8191 21.9077 15.1599 21.9083ZM14.7324 13.4591V20.6224C14.7326 20.7358 14.7776 20.8445 14.8577 20.9248C14.9378 21.005 15.0465 21.0503 15.1599 21.0507H15.1699C15.2833 21.0503 15.392 21.005 15.4721 20.9248C15.5522 20.8445 15.5973 20.7358 15.5974 20.6224V13.4588C15.5973 13.3454 15.5523 13.2365 15.4722 13.1562C15.3921 13.0759 15.2834 13.0305 15.1699 13.0301H15.1599C15.0464 13.0305 14.9377 13.0759 14.8576 13.1562C14.7775 13.2365 14.7325 13.3456 14.7324 13.4591ZM11.1743 22.901H11.1843C11.5252 22.9004 11.8519 22.7646 12.0928 22.5234C12.3336 22.2822 12.469 21.9553 12.4691 21.6144V12.4671C12.4689 12.1263 12.3335 11.7995 12.0926 11.5584C11.8518 11.3173 11.5251 11.1816 11.1843 11.1811H11.1743C10.8335 11.1816 10.5068 11.3173 10.266 11.5584C10.0251 11.7995 9.88969 12.1263 9.88945 12.4671V21.6144C9.88961 21.9553 10.025 22.2822 10.2658 22.5234C10.5067 22.7646 10.8334 22.9004 11.1743 22.901ZM10.7468 12.4671V21.6144C10.7469 21.7279 10.7919 21.8367 10.872 21.9171C10.9521 21.9975 11.0608 22.0429 11.1743 22.0434H11.1843C11.2978 22.0429 11.4065 21.9975 11.4866 21.9171C11.5667 21.8367 11.6117 21.7279 11.6118 21.6144V12.4671C11.6117 12.3536 11.5667 12.2448 11.4866 12.1646C11.4064 12.0843 11.2977 12.039 11.1843 12.0387H11.1743C11.0608 12.039 10.9522 12.0843 10.872 12.1646C10.7919 12.2448 10.7469 12.3536 10.7468 12.4671ZM16.0477 1.63401V3.29166H16.9044V1.63401C16.9038 1.20097 16.7316 0.785801 16.4255 0.479508C16.1194 0.173215 15.7043 0.000781609 15.2713 0H7.08791C6.65476 0.000625365 6.23954 0.17299 5.93328 0.4793C5.62703 0.785609 5.45474 1.20086 5.45419 1.63401V3.29166H6.31093V1.63401C6.31093 1.42802 6.3927 1.23045 6.53828 1.08471C6.68385 0.938971 6.88133 0.856976 7.08732 0.856741H15.2707C15.4767 0.856898 15.6743 0.938848 15.82 1.08459C15.9657 1.23033 16.0476 1.42794 16.0477 1.63401Z" fill="#C1BFD9"/>
</svg>
