<svg width="26" height="26" viewBox="0 0 26 26" fill="none" xmlns="http://www.w3.org/2000/svg">
<path d="M18.0727 25.21H2.41419C1.08324 25.21 0 24.1279 0 22.7958V7.13733C0 5.80638 1.08321 4.72314 2.41419 4.72314H9.07214C9.66506 4.72314 10.145 5.20308 10.145 5.79601C10.145 6.38893 9.66506 6.86887 9.07214 6.86887H2.41419C2.26596 6.86887 2.14572 6.98911 2.14572 7.13733V22.7969C2.14572 22.9451 2.26596 23.0654 2.41419 23.0654H18.0738C18.222 23.0654 18.3422 22.9451 18.3422 22.7969L18.3412 16.139C18.3412 15.546 18.8211 15.0661 19.4141 15.0661C20.007 15.0661 20.4869 15.546 20.4869 16.139V22.7969C20.4869 24.1279 19.4037 25.21 18.0727 25.21Z" fill="#C1BFD9"/>
<path d="M24.8314 4.72823L23.3273 6.23438C23.0443 6.51736 22.5851 6.51839 22.3021 6.23438L18.9769 2.91018C18.6939 2.6272 18.6939 2.16799 18.9769 1.885L20.482 0.377823C20.9858 -0.125941 21.8047 -0.125941 22.3084 0.377823L24.8325 2.90187C25.3362 3.40667 25.3362 4.22447 24.8314 4.72823Z" fill="#C1BFD9"/>
<path d="M21.165 8.39774L12.1645 17.3951C12.1085 17.4511 12.038 17.4895 11.9613 17.5071L7.09136 18.6214C6.78972 18.6908 6.51918 18.4203 6.58863 18.1187L7.70294 13.2487C7.72056 13.172 7.75995 13.1015 7.81489 13.0456L16.8155 4.04817C17.0984 3.76519 17.5577 3.76519 17.8406 4.04817L21.1648 7.37237C21.4478 7.65535 21.4478 8.11456 21.1648 8.39755L21.165 8.39774Z" fill="#C1BFD9"/>
</svg>
