<svg width="27" height="27" viewBox="0 0 27 27" fill="none" xmlns="http://www.w3.org/2000/svg">
<path fill-rule="evenodd" clip-rule="evenodd" d="M21.6672 3.38653C21.6672 3.43274 21.6409 3.47103 21.5987 3.48951L13.5409 6.76646C13.5132 6.77702 13.4855 6.77702 13.4578 6.76646L5.4 3.48951C5.35781 3.47235 5.33144 3.43406 5.33144 3.38653C5.33144 3.34032 5.35781 3.30203 5.4 3.28487L13.4578 0.00792172C13.4855 -0.00264057 13.5132 -0.00264057 13.5409 0.00792172L21.5987 3.28487C21.6409 3.30203 21.6672 3.34032 21.6672 3.38653ZM9.70184 6.07067C9.5621 6.48657 9.49222 6.92093 9.49222 7.35927C9.49222 9.57603 11.2865 11.3743 13.5014 11.3743C15.7149 11.3743 17.5105 9.57739 17.5105 7.35927C17.5105 6.91961 17.4407 6.48657 17.3009 6.07067L13.6478 7.55598C13.5516 7.59559 13.4474 7.59295 13.3591 7.55598L9.70184 6.07067ZM22.0061 19.9284H16.1643C15.2388 19.9284 14.5098 20.3284 13.9943 20.9305C13.7965 21.1602 13.633 21.419 13.4999 21.6976C13.3681 21.4203 13.2033 21.1602 13.0068 20.9305C12.4914 20.3284 11.761 19.9284 10.8368 19.9284H4.99503C5.23102 17.6667 6.14331 15.9793 7.43138 14.7845C10.7325 11.7254 16.2685 11.7254 19.5696 14.7845C20.8576 15.978 21.7701 17.6653 22.0061 19.9284ZM25.2426 24.37V23.661L15.6252 23.6623C15.4117 23.6623 15.239 23.4893 15.239 23.2754C15.239 23.0616 15.4117 22.8886 15.6252 22.8886H25.2426V22.1796L16.7721 22.1809C16.5585 22.1809 16.3871 22.008 16.3871 21.7941C16.3871 21.5802 16.5598 21.4073 16.7721 21.4073H25.2426V21.0864C25.2426 20.9702 25.2031 20.8686 25.1385 20.796C25.0871 20.7366 25.0185 20.7009 24.9473 20.7009L16.1646 20.6996C15.4882 20.6996 14.9556 20.9914 14.5786 21.431C14.1237 21.9618 13.8864 22.7038 13.8864 23.4207H13.1152C13.1152 22.7051 12.8779 21.9618 12.4217 21.431C12.046 20.9914 11.5134 20.6996 10.8371 20.6996H2.0516C1.9804 20.6996 1.91185 20.7366 1.86043 20.7946C1.79715 20.8673 1.7576 20.9702 1.7576 21.0851V21.4059H10.2282C10.4417 21.4059 10.6144 21.5789 10.6144 21.7928C10.6144 22.0067 10.4417 22.1796 10.2282 22.1796L1.7576 22.1809V22.8899H11.375C11.5873 22.8899 11.76 23.0629 11.76 23.2768C11.76 23.4907 11.5872 23.6636 11.375 23.6636L1.7576 23.6623V24.3713L25.2426 24.37ZM0 25.1424H27V27H0V25.1424ZM20.5875 7.92328L20.2685 11.1646C20.2658 11.1963 20.275 11.2253 20.2961 11.2491C20.3186 11.2728 20.3462 11.2847 20.3779 11.2847H22.2935C22.3264 11.2847 22.3541 11.2728 22.3752 11.2491C22.3963 11.2253 22.4055 11.1963 22.4029 11.1646L22.0852 7.92328C22.0799 7.86651 22.0324 7.82294 21.9757 7.82294H21.7213L21.7226 4.27265L20.9514 4.58688V7.82422H20.6969C20.6402 7.82422 20.5928 7.86651 20.5875 7.92328Z" fill="#C1BFD9"/>
</svg>
