<svg width="19" height="26" viewBox="0 0 19 26" fill="none" xmlns="http://www.w3.org/2000/svg">
<path d="M25.1169 3.62075C23.7554 3.01036 20.1046 1.37206 18.6489 0.718524L21.8068 0.055827C22.9581 -0.193458 24.1916 0.414882 24.4791 1.42639L25.1169 3.62075ZM24.7775 3.97775L17.8758 0.880666L12.4165 2.02554C14.0825 2.7734 18.6261 4.81168 19.317 5.12262L24.7775 3.97775ZM25.57 9.50723H19.9462L14.1208 13.9195H19.7445C20.328 13.4774 24.1637 10.5722 25.57 9.50723ZM11.6311 22.9799L16.0661 20.8051C16.623 20.5528 16.623 19.8152 16.0661 19.5638C15.9924 19.5618 11.1394 17.0515 11.2096 17.2926C10.759 17.2874 10.3531 17.6229 10.3651 18.0107V22.3594C10.3434 22.8939 11.0959 23.2631 11.6311 22.9799ZM0.85245 14.3689H25.9998V24.1258C25.9998 25.1598 25.0092 26 23.7927 26H3.06073C1.84298 26 0.853564 25.1588 0.853564 24.1258L0.85245 14.3689ZM9.83459 18.0106V22.3594C9.79956 23.2303 11.0246 23.8315 11.8956 23.3699L16.3305 21.195C17.2366 20.7857 17.2354 19.5844 16.3305 19.1751L11.8956 17.0003C11.0258 16.5387 9.79958 17.1397 9.83459 18.0106ZM19.1514 9.50723H13.5276L7.70093 13.9195H13.3247C13.9094 13.4774 17.7451 10.5722 19.1514 9.50723ZM0.227724 5.27142C-0.00181311 5.6674 -0.0610074 6.11365 0.0646336 6.5476L0.781028 9.0107L6.08099 7.89865L0.227724 5.27142ZM18.5449 5.28476L11.6444 2.18767L6.1852 3.33254C7.85115 4.08041 12.3947 6.11868 13.0869 6.42963L18.5449 5.28476ZM12.3137 6.59172L5.41202 3.49463L1.67789 4.27737C1.21761 4.3738 0.816513 4.59026 0.518129 4.8929C1.67307 5.41097 6.1685 7.42987 6.85199 7.73656L12.3137 6.59172ZM12.7317 9.50733H7.10794L1.28252 13.9196H6.90629C7.48979 13.4775 11.3255 10.5723 12.7317 9.50733ZM20.5396 13.9196H25.9988L26 9.7844L20.5396 13.9196ZM0.852636 13.6426C2.00151 12.7727 5.08345 10.4379 6.31311 9.50741H0.852636V13.6426Z" fill="#C1BFD9"/>
</svg>
