<svg width="24" height="24" viewBox="0 0 24 24" fill="none" xmlns="http://www.w3.org/2000/svg">
<g clip-path="url(#clip0_702_19)">
<path d="M22.9624 3.87126C21.7365 3.34226 18.4491 1.92239 17.1384 1.356L19.9819 0.78166C21.0186 0.565613 22.1292 1.09284 22.3881 1.96948L22.9624 3.87126ZM22.6567 4.18066L16.4422 1.49652L11.5266 2.48874C13.0266 3.13689 17.1178 4.9034 17.7399 5.17288L22.6567 4.18066ZM23.3703 8.97288H18.3065L13.0611 12.7969H18.1249C18.6503 12.4137 22.1041 9.89582 23.3703 8.97288ZM10.8194 20.6492L14.8127 18.7644C15.3142 18.5457 15.3142 17.9064 14.8127 17.6886C14.7464 17.6868 10.3766 15.5112 10.4398 15.7202C10.0341 15.7157 9.66857 16.0065 9.67943 16.3425V20.1114C9.65985 20.5747 10.3375 20.8946 10.8194 20.6492ZM1.11389 13.1863H23.7574V21.6423C23.7574 22.5385 22.8654 23.2666 21.77 23.2666H3.1023C2.00579 23.2666 1.11489 22.5376 1.11489 21.6423L1.11389 13.1863ZM9.2017 16.3425V20.1114C9.17015 20.8662 10.2732 21.3872 11.0575 20.9871L15.0509 19.1023C15.8667 18.7476 15.8656 17.7065 15.0509 17.3517L11.0575 15.4669C10.2743 15.0668 9.17018 15.5876 9.2017 16.3425ZM17.5908 8.97288H12.527L7.28049 12.7969H12.3443C12.8708 12.4137 16.3246 9.89582 17.5908 8.97288ZM0.551364 5.30184C0.344681 5.64502 0.29138 6.03177 0.404512 6.40786L1.04958 8.54255L5.82184 7.57878L0.551364 5.30184ZM17.0447 5.3134L10.8313 2.62926L5.91567 3.62148C7.41574 4.26963 11.5069 6.03614 12.1302 6.30562L17.0447 5.3134ZM11.434 6.4461L5.21948 3.76196L1.85714 4.44033C1.44269 4.52391 1.08153 4.7115 0.812854 4.97379C1.8528 5.42279 5.90063 7.1725 6.51607 7.4383L11.434 6.4461ZM11.8104 8.97297H6.74653L1.50114 12.797H6.56497C7.09037 12.4138 10.5441 9.8959 11.8104 8.97297ZM18.8408 12.797H23.7565L23.7576 9.21309L18.8408 12.797ZM1.11405 12.5569C2.14854 11.803 4.92362 9.77944 6.03085 8.97303H1.11405V12.5569Z" fill="#C1BFD9"/>
</g>
<defs>
<clipPath id="clip0_702_19">
<rect width="24" height="24" fill="white"/>
</clipPath>
</defs>
</svg>
