<svg width="73" height="74" viewBox="0 0 73 74" fill="none" xmlns="http://www.w3.org/2000/svg">
<path d="M31.9821 3.85734C31.9771 6.62164 31.9971 9.34462 31.956 12.0667C31.9372 13.3157 31.8847 14.5646 31.8997 15.8141C31.9036 16.1462 31.775 16.2925 31.4282 16.3069C29.3546 16.393 27.4938 17.1225 25.7844 18.2009C22.6804 20.159 20.7054 22.9475 20.0332 26.4554C19.0941 31.3564 20.5968 35.5315 24.5028 38.8233C25.8467 39.9559 27.3973 40.7516 29.0999 41.262C29.2527 41.3078 29.2518 41.3104 29.4715 41.5165C29.0036 41.8687 28.4746 41.9763 27.9113 41.9766C24.0503 41.9785 20.1893 41.9791 16.3283 41.9795C12.0383 41.9799 7.74758 41.9349 3.45862 41.9995C1.48062 42.0292 -0.0219725 40.8284 0.00024316 38.647C0.0353262 35.2024 0.00245322 31.7571 0.00597513 28.3121C0.0118276 22.5891 0.000824509 16.8658 0.0429646 11.143C0.0634101 8.36604 0.0776811 5.58914 0.0921354 2.81221C0.100947 1.11922 1.2676 -0.030296 3.01395 0.0058601C10.6919 0.16482 18.3705 0.041891 26.0487 0.0731506C27.0624 0.0772771 28.0758 -0.0163715 29.0914 0.00252028C30.5172 0.0290442 31.6329 0.854295 31.9351 2.15432C32.0616 2.69826 31.9603 3.26159 31.9821 3.85734ZM26.2396 12.581C26.311 12.581 26.3825 12.581 26.454 12.5809C27.439 12.5796 27.7245 12.3021 27.7237 11.3443C27.7223 9.42751 27.7205 7.51071 27.7182 5.59391C27.7172 4.76758 27.4128 4.47389 26.5518 4.47386C19.6455 4.47359 12.7392 4.47379 5.83293 4.47478C4.80538 4.47493 4.43817 4.82902 4.44018 5.82828C4.44381 7.63313 4.43495 9.43832 4.46979 11.2427C4.48659 12.1131 4.53348 12.593 5.86572 12.5895C12.629 12.5714 19.3923 12.5811 26.2396 12.581ZM6.68307 37.6693C7.35393 37.6694 8.02486 37.6755 8.69562 37.668C9.35931 37.6606 9.69957 37.3332 9.70306 36.6944C9.7089 35.6268 9.70878 34.5591 9.70159 33.4915C9.69722 32.8439 9.39458 32.5478 8.73491 32.5442C7.70726 32.5385 6.67954 32.5431 5.65185 32.5454C4.8146 32.5472 4.44416 32.8852 4.44395 33.6948C4.4437 34.7057 4.3968 35.7173 4.50457 36.7274C4.5675 37.3173 4.87549 37.6406 5.48427 37.6648C5.85478 37.6794 6.22637 37.6684 6.68307 37.6693ZM9.27039 21.1503C9.59074 20.9542 9.71217 20.672 9.70811 20.3063C9.69641 19.253 9.70666 18.1994 9.70119 17.146C9.69793 16.5191 9.31787 16.1479 8.65684 16.142C7.61526 16.1328 6.57345 16.1332 5.53187 16.143C4.88076 16.1492 4.45562 16.5155 4.45056 17.1368C4.44164 18.2305 4.38194 19.3264 4.50472 20.4187C4.56938 20.994 4.85056 21.2544 5.455 21.2579C6.53941 21.2642 7.6239 21.2585 8.70834 21.2557C8.87859 21.2553 9.05262 21.2672 9.27039 21.1503ZM9.50593 24.6291C9.2627 24.3776 8.95306 24.3071 8.61151 24.3082C7.64 24.3112 6.66847 24.3073 5.69696 24.3096C4.85645 24.3116 4.45382 24.6831 4.44239 25.4996C4.42822 26.5122 4.42514 27.5252 4.50384 28.5363C4.54836 29.1083 4.87754 29.4157 5.47248 29.418C6.55828 29.4221 7.64412 29.4226 8.72992 29.4188C9.39769 29.4165 9.69928 29.128 9.70291 28.479C9.70889 27.4104 9.70213 26.3418 9.70479 25.2731C9.70533 25.0595 9.67248 24.859 9.50593 24.6291ZM13.0992 36.0693C13.1006 36.3053 13.0937 36.5416 13.105 36.7771C13.1297 37.2885 13.475 37.6542 13.9954 37.6619C15.1095 37.6786 16.2244 37.6813 17.3385 37.6613C17.9634 37.6501 18.282 37.318 18.2875 36.7147C18.2973 35.6322 18.2957 34.5496 18.2885 33.4671C18.2841 32.8069 18.0055 32.5465 17.3124 32.5438C16.2551 32.5397 15.1978 32.5403 14.1405 32.5457C13.4272 32.5494 13.1089 32.8625 13.1019 33.5719C13.094 34.3769 13.0995 35.1819 13.0992 36.0693ZM16.3778 24.3101C15.6209 24.3098 14.8639 24.3034 14.1071 24.3111C13.5088 24.3172 13.123 24.6507 13.1115 25.2304C13.0892 26.3537 13.0913 27.4778 13.1116 28.6011C13.1206 29.095 13.4947 29.4148 14.0053 29.4172C15.1335 29.4226 16.2617 29.4219 17.3899 29.4158C17.9598 29.4128 18.2802 29.1214 18.2853 28.5775C18.2958 27.4539 18.2963 26.3301 18.2814 25.2066C18.2742 24.663 17.9209 24.3337 17.3627 24.3117C17.0633 24.2999 16.763 24.31 16.3778 24.3101ZM17.9138 21.1188C18.2134 20.9332 18.2868 20.6507 18.2856 20.3283C18.2816 19.2885 18.2858 18.2487 18.2823 17.2089C18.2798 16.4854 17.9309 16.1469 17.1761 16.1425C16.1771 16.1366 15.1781 16.1372 14.179 16.1401C13.5124 16.1421 13.112 16.5157 13.105 17.1692C13.0938 18.2227 13.0951 19.2765 13.1061 20.33C13.1122 20.9239 13.4581 21.2525 14.0651 21.2556C15.164 21.2611 16.2629 21.2553 17.3619 21.2557C17.5352 21.2558 17.7044 21.245 17.9138 21.1188Z" fill="#78A55A"/>
<path d="M40.809 21.1756C42.5515 22.9751 43.6033 25.0978 43.9066 27.5419C44.6232 33.3166 41.1578 38.386 35.5638 39.6867C30.375 40.8932 25.4214 38.546 23.1395 33.8362C20.3472 28.0731 22.8341 21.1477 28.9853 18.8298C33.3367 17.19 37.3269 17.9849 40.809 21.1756ZM37.1667 30.8072C37.0121 30.2284 36.7334 29.7254 36.2726 29.3307C35.8175 28.9409 35.2744 28.72 34.7113 28.558C33.8433 28.3081 32.9552 28.1241 32.095 27.8512C30.8078 27.4429 30.5202 26.0404 31.5223 25.1538C32.5084 24.2813 34.2611 24.6001 34.7224 25.693C34.8136 25.909 34.9336 26.08 35.2095 26.0731C35.5995 26.0633 35.99 26.0756 36.3801 26.0694C36.7333 26.0637 36.8857 25.8648 36.8452 25.5268C36.8273 25.3774 36.7785 25.2279 36.721 25.0877C36.262 23.9688 35.406 23.3169 34.2492 23.0483C33.8337 22.9518 33.6549 22.7291 33.6888 22.3137C33.699 22.1893 33.6951 22.0633 33.6918 21.9381C33.6804 21.4969 33.5017 21.3142 33.0587 21.2867C32.3615 21.2435 32.1454 21.4423 32.1421 22.1299C32.1418 22.1994 32.1346 22.2699 32.1431 22.3385C32.1926 22.7339 32.0337 22.9582 31.637 23.0656C31.2204 23.1784 30.8344 23.3809 30.4647 23.6072C28.2003 24.9939 28.2228 27.9271 30.5064 29.2777C31.1441 29.6548 31.8651 29.7533 32.5683 29.9165C33.2564 30.0762 33.9721 30.1589 34.556 30.6186C35.2296 31.149 35.3646 31.9888 34.8745 32.6929C34.367 33.4221 33.6034 33.6323 32.7859 33.5977C31.8263 33.5571 31.0108 33.1903 30.6472 32.2131C30.5063 31.8344 30.287 31.6781 29.8971 31.7209C29.7732 31.7346 29.6464 31.7219 29.521 31.7218C28.8043 31.721 28.5685 32.024 28.7629 32.7193C29.1049 33.942 29.9807 34.602 31.148 34.9455C32.0063 35.1981 32.0067 35.1965 32.0618 36.1002C32.095 36.6462 32.2833 36.8345 32.8026 36.8412C33.5344 36.8507 33.675 36.7102 33.6766 35.9686C33.6769 35.8573 33.6799 35.7459 33.6778 35.6346C33.671 35.2867 33.8577 35.1027 34.1793 35.0132C36.4193 34.3898 37.3078 33.1634 37.1667 30.8072Z" fill="#78A55A"/>
<path d="M50.7753 57.987C50.5216 57.986 50.322 57.9628 50.1288 57.9882C49.5808 58.0603 49.262 57.7962 48.9901 57.3424C47.6124 55.0438 46.0126 52.8877 44.6605 50.4955C44.5025 50.7579 44.5536 50.9914 44.5525 51.2079C44.5427 53.2034 44.542 55.199 44.5338 57.1946C44.5308 57.9285 44.4759 57.9793 43.7718 57.9862C42.007 58.0035 42.0053 58.0035 42.0037 56.209C42.001 53.0872 41.9994 49.9653 42.0002 46.8435C42.0004 46.1067 42.0498 46.1652 42.7628 46.052C44.278 45.8112 45.1563 46.4108 45.8576 47.7711C46.7771 49.5548 47.9365 51.2137 48.9944 52.9252C49.1789 53.2237 49.3641 53.5208 49.4468 53.9348C49.4468 51.5457 49.4654 49.224 49.4341 46.903C49.426 46.3051 49.6456 46.0698 50.2066 46.0754C50.6392 46.0798 51.0722 46.0825 51.5045 46.07C51.8644 46.0595 51.9887 46.2373 51.9886 46.5774C51.9881 50.1931 51.9901 53.8089 52 57.4246C52.0011 57.839 51.8024 57.9927 51.4224 57.9875C51.2258 57.9849 51.0291 57.9871 50.7753 57.987Z" fill="#78A55A"/>
<path d="M72.8989 73.8944C72.1241 74.0563 71.3833 73.9599 70.6455 73.9792C70.3313 73.9874 70.2038 73.7419 70.0611 73.5263C69.2994 72.3748 68.5394 71.2222 67.7801 70.0691C67.6338 69.8469 67.4843 69.6705 67.1724 69.6531C66.6769 69.6254 66.437 69.7553 66.4585 70.3151C66.4969 71.3143 66.4438 72.317 66.4791 73.3164C66.4982 73.8565 66.2908 74.0383 65.7786 73.9935C65.4608 73.9656 65.1386 73.9906 64.8183 73.9887C64.0771 73.9842 64.0158 73.9375 64.0144 73.2169C64.0077 69.7346 64.0157 66.2522 64 62.7699C63.9975 62.214 64.1688 61.9712 64.762 62.0027C66.298 62.0844 67.8411 61.8926 69.3751 62.121C71.2409 62.3988 72.2951 63.276 72.5719 64.7959C72.9607 66.9309 72.3536 68.2514 70.5546 69.1865C70.45 69.2408 70.3502 69.3043 70.1791 69.4037C70.4255 69.7649 70.6584 70.1044 70.8894 70.4453C71.5179 71.3729 72.1523 72.2968 72.7678 73.2331C72.8854 73.412 73.142 73.5849 72.8989 73.8944ZM69.2615 64.4103C68.5015 64.1475 67.7162 64.2843 66.941 64.2664C66.6291 64.2592 66.52 64.4739 66.52 64.7389C66.5199 65.4782 66.5392 66.2174 66.5459 66.9567C66.5491 67.3133 66.7302 67.453 67.0749 67.4425C67.6143 67.4261 68.1561 67.4502 68.6934 67.4106C69.4019 67.3584 69.9561 66.8908 70.0929 66.2883C70.2845 65.4445 70.0552 64.8803 69.2615 64.4103Z" fill="#78A55A"/>
<path d="M10.004 72.1302C10.0024 68.9939 9.99916 65.9175 10.0005 62.8411C10.0009 62.0217 10.0129 61.9984 10.8468 62.0179C12.3962 62.0543 13.9503 61.8978 15.4951 62.132C17.2492 62.3978 18.3103 63.3859 18.5697 65.0004C18.8912 67.0015 18.284 68.2984 16.6349 69.1373C16.4964 69.2077 16.3634 69.2887 16.1797 69.3919C17.0741 70.8959 18.1484 72.2538 19 73.8471C18.3901 74.0722 17.8306 73.9026 17.2989 73.9791C16.5713 74.0836 16.1252 73.7942 15.7536 73.1633C15.1368 72.1158 14.4324 71.1202 13.7645 70.1031C13.6228 69.8873 13.5008 69.6698 13.187 69.6445C12.711 69.6061 12.4429 69.6959 12.4665 70.2767C12.5079 71.2938 12.4657 72.314 12.4823 73.3326C12.4897 73.7887 12.3189 73.9889 11.8529 73.9784C9.59266 73.9272 10.0632 74.3117 10.004 72.1302ZM12.4854 67.0766C12.5019 67.2877 12.6188 67.4134 12.8256 67.4185C13.5185 67.4356 14.2196 67.5148 14.8998 67.346C15.7699 67.1299 16.196 66.4593 16.0967 65.5492C16.01 64.7533 15.4218 64.2676 14.514 64.2531C14.018 64.2452 13.5212 64.2651 13.0257 64.2465C12.6093 64.2309 12.4633 64.4156 12.4737 64.8194C12.4921 65.5359 12.4799 66.2533 12.4854 67.0766Z" fill="#78A55A"/>
<path d="M44.0151 63.8524C44.0144 63.4533 44.0386 63.1118 44.0077 62.7753C43.9566 62.2176 44.1543 61.949 44.7569 62.008C45.0982 62.0414 45.4477 62.0384 45.7897 62.0094C46.3365 61.9629 46.5553 62.1598 46.5369 62.7221C46.5015 63.7987 46.5261 64.8773 46.5258 65.955C46.5257 66.1505 46.5258 66.346 46.5258 66.5806C46.8335 66.527 46.9277 66.313 47.0624 66.1565C48.111 64.9391 49.1642 63.7253 50.1968 62.4948C50.4944 62.1402 50.8235 61.9825 51.2961 62.0056C51.998 62.04 52.703 62.0145 53.3642 62.0145C53.5491 62.3661 53.3189 62.5025 53.1904 62.6611C52.0152 64.1114 50.8463 65.5669 49.6463 66.9971C49.3157 67.3911 49.2999 67.6647 49.633 68.0756C50.935 69.6819 52.1994 71.3178 53.4749 72.9449C53.6807 73.2073 53.9194 73.4553 54 73.8452C53.4477 74.0669 52.8954 73.8882 52.3732 73.9699C51.457 74.1132 50.8798 73.7376 50.3677 72.9984C49.5695 71.8463 48.6615 70.7677 47.7979 69.6596C47.7022 69.5369 47.6407 69.3753 47.4166 69.3258C46.9338 69.8005 46.4319 70.2427 46.5103 71.0659C46.5838 71.8375 46.514 72.6214 46.53 73.3995C46.5384 73.8055 46.383 73.9766 45.9598 73.967C43.6171 73.9139 44.0454 74.32 44.023 72.1748C43.9942 69.4209 44.0155 66.6664 44.0151 63.8524Z" fill="#78A55A"/>
<path d="M23.1876 72.2561C22.3887 74.3695 22.9547 73.9419 20.7668 73.9858C20.5206 73.9907 20.2559 74.0505 20.0351 73.8811C19.9395 73.6594 20.0625 73.4796 20.127 73.2991C21.3946 69.7496 22.6766 66.2054 23.928 62.65C24.0963 62.1718 24.3222 61.9688 24.8208 62.0136C25.2496 62.0521 25.6877 62.0498 26.1163 62.0079C26.681 61.9527 26.9773 62.1873 27.1644 62.7262C27.877 64.7794 28.6219 66.821 29.3527 68.8677C29.8623 70.2948 30.3741 71.7213 30.874 73.152C31.1211 73.8592 31.0375 73.9741 30.3281 73.9893C28.5545 74.0274 28.5376 74.0335 27.9404 72.3154C27.776 71.8426 27.5501 71.6585 27.0519 71.6761C26.0116 71.7129 24.969 71.7007 23.9278 71.6805C23.5287 71.6728 23.2902 71.8157 23.1876 72.2561ZM25.2605 69.343C25.7816 69.3113 26.3103 69.4099 26.8882 69.2614C26.535 67.9187 26.0959 66.6444 25.5039 65.3933C25.0357 66.5828 24.6555 67.7676 24.2948 68.9586C24.2211 69.2021 24.3763 69.331 24.6185 69.3373C24.7951 69.3418 24.9718 69.3414 25.2605 69.343Z" fill="#78A55A"/>
<path d="M61.7441 56.6261C61.1407 58.3065 59.5291 59.0713 57.899 58.9948C56.6073 58.9341 55.4318 58.5267 54.6204 57.231C54.3364 56.7775 54.1471 56.2761 54.0285 55.7358C53.9558 55.4043 54.0077 55.176 54.3542 55.1376C54.8092 55.0872 55.2618 55.009 55.7162 54.9498C56.0523 54.906 56.1548 55.2209 56.2992 55.474C56.8542 56.4468 57.8589 56.8659 58.7914 56.5043C59.2914 56.3104 59.6646 55.9699 59.7013 55.2996C59.7365 54.6588 59.4973 54.1908 58.9155 53.9347C58.4077 53.711 57.8722 53.5714 57.3477 53.3996C56.8221 53.2275 56.3023 53.0419 55.8087 52.762C54.7428 52.1576 54.2437 51.1195 54.2435 49.7976C54.2432 48.5001 54.6645 47.3755 55.6912 46.7238C57.1839 45.7763 58.725 45.7733 60.2484 46.631C61.0576 47.0867 61.5077 47.9095 61.7442 48.8987C61.8298 49.2566 61.7445 49.5016 61.4077 49.5797C61.063 49.6596 60.7196 49.7464 60.3741 49.821C60.0326 49.8948 59.7891 49.7886 59.5803 49.4135C59.0722 48.5008 58.0826 48.1843 57.2537 48.6132C56.8525 48.8208 56.6023 49.1626 56.5786 49.6904C56.5548 50.2205 56.8278 50.5195 57.1997 50.7252C57.5977 50.9453 58.0164 51.0987 58.4424 51.2331C58.9172 51.3829 59.3949 51.5343 59.8521 51.742C61.7379 52.5986 62.4228 54.3539 61.7441 56.6261Z" fill="#78A55A"/>
<path d="M11.9888 58.7665C10.9808 59.1356 10.0067 58.9727 9 58.9077C9.06062 58.3173 9.36325 57.98 9.58994 57.6099C10.573 56.0049 11.5553 54.3989 12.5656 52.8126C12.8241 52.4067 12.7953 52.1085 12.5457 51.7168C11.535 50.1307 10.5508 48.5261 9.56463 46.923C9.43555 46.7132 9.27165 46.5095 9.25341 46.1962C9.71394 45.9308 10.2167 46.1456 10.6798 46.0537C11.8229 45.8267 12.5015 46.3273 12.9752 47.4072C13.3717 48.3113 13.9298 49.138 14.4139 49.9946C14.7464 49.8836 14.7949 49.604 14.915 49.3956C15.4648 48.4419 16.0114 47.4859 16.5417 46.5203C16.7253 46.1861 16.9538 46.0385 17.3329 46.0517C18.1057 46.0786 18.88 46.0597 19.6129 46.0597C19.7808 46.4258 19.5746 46.5931 19.4589 46.7792C18.4212 48.4493 17.3888 50.1232 16.3284 51.7775C16.0718 52.1778 16.0786 52.4776 16.3365 52.8711C17.3902 54.4787 18.4175 56.1053 19.4516 57.7269C19.6532 58.043 19.8802 58.3472 20 58.7338C19.6759 59.0753 19.2898 58.9803 18.9392 58.9737C16.6966 58.9313 17.3394 59.3267 16.1415 57.3933C15.5747 56.4786 15.0433 55.5399 14.4942 54.6131C14.4863 54.5997 14.458 54.5996 14.3562 54.5654C13.5844 55.9405 12.8024 57.3339 11.9888 58.7665Z" fill="#78A55A"/>
<path d="M32.886 63.3928C35.8141 60.8806 40.4954 61.9112 41.8277 65.3255C42.0981 66.0186 42.0098 66.1411 41.2351 66.1456C41.0507 66.1466 40.8645 66.1293 40.6823 66.1477C39.8359 66.233 39.2515 66.0582 38.738 65.2662C37.8332 63.8708 35.4521 63.9942 34.3658 65.3787C33.2356 66.8191 33.2931 69.324 34.4887 70.7338C35.6949 72.1562 38.1026 72.0527 39.0861 70.4897C39.398 69.9941 39.7405 69.821 40.3118 69.8738C40.6973 69.9094 41.0896 69.8871 41.4787 69.8805C41.923 69.8729 42.0924 70.0679 41.9517 70.4592C41.2228 72.4857 39.6703 73.8762 37.1758 73.9913C33.0844 74.1801 31.2435 71.2591 31.0329 68.7628C30.9076 67.2778 31.13 65.9025 31.872 64.5945C32.1251 64.1483 32.4646 63.7666 32.886 63.3928Z" fill="#78A55A"/>
<path d="M70.3086 53.095C69.2609 53.093 68.2721 53.1035 67.2839 53.0829C66.8447 53.0738 66.6334 53.205 66.6607 53.6611C66.6891 54.1366 66.6888 54.6163 66.66 55.0918C66.6335 55.5276 66.791 55.6905 67.257 55.6822C68.5746 55.6587 69.8934 55.6916 71.2109 55.6654C71.7208 55.6553 71.8987 55.8614 71.9424 56.3197C72.0969 57.9399 72.0507 57.996 70.3707 57.993C68.5378 57.9897 66.7045 57.972 64.872 57.9997C64.2515 58.0091 64.0286 57.7818 64.029 57.2011C64.0316 53.6821 64.0228 50.1631 64 46.6443C63.9968 46.1417 64.2051 45.996 64.7003 46.0001C66.842 46.0179 68.9841 46.0193 71.1258 46.0003C71.6716 45.9955 71.8543 46.2155 71.8511 46.7112C71.8395 48.4842 71.9811 48.2281 70.3305 48.2435C69.3009 48.2531 68.2708 48.2555 67.2414 48.2379C66.8155 48.2306 66.6439 48.3876 66.6604 48.7989C66.6811 49.315 66.6844 49.8334 66.6598 50.3492C66.6401 50.7603 66.7956 50.9141 67.2294 50.9055C68.2999 50.8843 69.3716 50.9181 70.4418 50.8912C70.9492 50.8785 71.1664 51.0471 71.1213 51.5424C71.0962 51.8187 71.0931 52.101 71.1214 52.3766C71.1783 52.9315 70.9211 53.1509 70.3086 53.095Z" fill="#78A55A"/>
<path d="M3.43901 48.2478C2.77629 48.173 2.5376 48.4361 2.60433 49.0036C2.6753 49.6071 2.31956 50.3753 2.76223 50.7774C3.17056 51.1484 3.95848 50.8769 4.57841 50.8961C5.26635 50.9174 5.95589 50.9143 6.64409 50.8975C7.07821 50.887 7.23839 51.0679 7.23561 51.4676C7.22248 53.3607 7.41968 53.0744 5.60982 53.0924C4.81692 53.1002 4.02311 53.1118 3.23111 53.0848C2.72538 53.0676 2.56961 53.272 2.59846 53.7242C2.6275 54.1793 2.62704 54.6388 2.59633 55.0938C2.56667 55.5334 2.73534 55.6896 3.20349 55.6818C4.53865 55.6595 5.8751 55.6968 7.20981 55.6644C7.82064 55.6496 8.00974 55.8715 7.99962 56.4311C7.96715 58.2274 8.17667 57.9787 6.36137 57.9884C4.50414 57.9984 2.64658 57.9756 0.789641 57.9998C0.190402 58.0076 -0.00309923 57.8046 0.000436674 57.2347C0.0221153 53.7393 0.0222282 50.2436 4.65509e-05 46.7482C-0.00364051 46.1674 0.211258 45.9941 0.801163 46.0009C2.92943 46.0255 5.05842 46.0272 7.18662 46.0002C7.80707 45.9923 7.98214 46.2351 7.98082 46.779C7.97655 48.5371 8.00106 48.1907 6.55629 48.2638C5.53143 48.3156 4.51346 48.2146 3.43901 48.2478Z" fill="#78A55A"/>
<path d="M61.8833 63.5931C61.943 64.2097 61.6955 64.3857 61.2073 64.3746C60.1446 64.3504 59.0801 64.3977 58.0183 64.3558C57.4731 64.3343 57.2996 64.5509 57.3477 65.1149C57.3816 65.5115 57.3786 65.9166 57.348 66.3139C57.308 66.8329 57.5248 66.961 57.9607 66.948C58.8766 66.9209 59.7939 66.9535 60.71 66.9324C61.1518 66.9222 61.3387 67.0924 61.3328 67.593C61.3109 69.4457 61.4688 69.1521 59.9039 69.1717C59.2074 69.1804 58.5106 69.1832 57.8143 69.1712C57.4907 69.1656 57.3439 69.297 57.3542 69.6625C57.3688 70.1821 57.3702 70.703 57.3541 71.2225C57.3421 71.6126 57.4906 71.749 57.8435 71.7446C59.0165 71.7299 60.1901 71.7589 61.3627 71.7311C61.8442 71.7197 62.0116 71.9067 61.9994 72.4266C61.956 74.2667 62.2225 73.9679 60.5795 73.9858C58.9483 74.0036 57.3165 73.9717 55.6855 73.9997C55.1797 74.0084 54.9995 73.8114 55.0009 73.2736C55.0103 69.753 55.0087 66.2323 55 62.7116C54.9988 62.2064 55.1694 61.9982 55.6502 62.0033C57.5014 62.0229 59.3531 62.0293 61.2041 62.0003C61.7347 61.9919 61.9461 62.1814 61.8879 62.7559C61.8619 63.0128 61.8835 63.2755 61.8833 63.5931Z" fill="#78A55A"/>
<path d="M32 46.8315C32.0139 46.0121 32.0139 46.011 32.828 46.0107C34.9106 46.0101 36.9934 46.0269 39.0756 46.0002C39.6816 45.9924 39.8838 46.2025 39.8734 46.7643C39.8406 48.5364 40.0255 48.2245 38.3706 48.2439C37.3295 48.2561 36.2876 48.2624 35.247 48.2378C34.7506 48.2261 34.5749 48.4144 34.5976 48.8705C34.6222 49.366 34.6216 49.8642 34.5984 50.3597C34.5787 50.7797 34.7642 50.9123 35.1901 50.9046C36.2726 50.8849 37.3566 50.922 38.4385 50.8894C39.018 50.872 39.2615 51.0325 39.2484 51.6238C39.2117 53.2723 39.3999 53.0812 37.6998 53.0892C36.8876 53.0931 36.0749 53.1022 35.2634 53.079C34.7923 53.0655 34.5656 53.2084 34.5981 53.6906C34.6288 54.1455 34.6273 54.6052 34.5975 55.0603C34.5672 55.5232 34.7411 55.6904 35.2408 55.6801C36.573 55.6525 37.9068 55.692 39.2389 55.661C39.8115 55.6476 40.0123 55.8316 39.9994 56.3805C39.9566 58.2126 40.2225 57.9811 38.3578 57.989C36.4836 57.9969 34.6089 57.9727 32.7351 57.9998C32.1754 58.0078 32.0209 57.8123 32.0216 57.3059C32.0267 53.8302 32.0079 50.3545 32 46.8315Z" fill="#78A55A"/>
<path d="M21.0047 53.3259C21.0028 51.0995 20.9989 48.9327 21.0003 46.7659C21.0007 46.0281 21.0304 46.0037 21.8317 46.0025C23.1883 46.0003 24.5449 45.998 25.9014 46.0028C28.1433 46.0108 29.9083 47.4736 29.9932 49.3877C30.1078 51.9721 28.7774 53.4996 26.2475 53.7407C25.634 53.7992 25.0228 53.8524 24.411 53.8201C23.8724 53.7917 23.709 54.0014 23.7235 54.4816C23.7517 55.4152 23.716 56.3504 23.7427 57.2841C23.7572 57.7947 23.5482 58.0007 23.0006 57.9982C20.6557 57.9879 21.0433 58.1907 21.0149 56.2481C21.0009 55.2941 21.0076 54.3398 21.0047 53.3259ZM23.7414 49.8053C23.7444 50.2609 23.7463 50.7166 23.7509 51.1722C23.7528 51.355 23.7626 51.5823 24.003 51.5885C24.8807 51.611 25.786 51.7618 26.5879 51.2654C27.1537 50.9151 27.4846 50.1602 27.332 49.5468C27.164 48.8717 26.7471 48.4535 25.9763 48.3122C24.0126 47.9521 23.7412 48.1027 23.7414 49.8053Z" fill="#78A55A"/>
<path d="M7.99654 63.1271C7.99597 63.3452 7.98613 63.5061 7.9966 63.6654C8.0304 64.1796 7.8112 64.3196 7.37911 64.2859C6.81218 64.2416 6.23981 64.29 5.67209 64.2533C5.21586 64.2238 5.09255 64.4425 5.0954 64.9235C5.11155 67.6458 5.10748 70.3683 5.10972 73.0907C5.11045 73.9735 5.08856 73.9972 4.3003 73.9996C2.89822 74.0039 2.8967 74.0039 2.89572 72.4087C2.89424 70.0065 2.89733 67.6043 2.89382 65.2022C2.89258 64.3548 2.80999 64.2593 2.07505 64.2655C1.59511 64.2696 1.11489 64.2923 0.635661 64.3235C0.201012 64.3518 -0.0437874 64.2009 0.00649207 63.6475C0.0370934 63.3106 0.0303725 62.9661 0.00894227 62.6275C-0.0208646 62.1567 0.153799 61.9946 0.568689 62.0001C2.00993 62.0194 3.45149 62.0081 4.89293 62.0084C5.60475 62.0086 6.31657 62.0089 7.02839 62.0089C7.9949 62.0089 7.9949 62.0088 7.99654 63.1271Z" fill="#78A55A"/>
</svg>
