<svg width="26" height="23" viewBox="0 0 26 23" fill="none" xmlns="http://www.w3.org/2000/svg">
<path fill-rule="evenodd" clip-rule="evenodd" d="M0.969727 7.45438H23.2728C23.0001 3.66327 20.0124 0.666504 16.377 0.666504H7.86545C4.23161 0.666504 1.24237 3.66346 0.969727 7.45438ZM7.36414 4.80316L6.83165 3.10615L7.84127 2.74833L8.37376 4.44534L7.36414 4.80316ZM16.8798 4.80769L15.8702 4.44987L16.4027 2.75286L17.4123 3.11068L16.8798 4.80769ZM11.5887 3.49418V1.79717H12.6523V3.49418H11.5887Z" fill="#C1BFD9"/>
<path fill-rule="evenodd" clip-rule="evenodd" d="M1.11869 11.333C0.819973 11.333 0.539189 11.4339 0.327095 11.6176C0.116501 11.8001 0 12.0446 0 12.3034C0 12.8377 0.501844 13.2724 1.1187 13.2724H7.75758L5.89209 11.333L1.11869 11.333Z" fill="#C1BFD9"/>
<path fill-rule="evenodd" clip-rule="evenodd" d="M9.69702 13.2724H24.0575C24.3658 13.2724 24.6556 13.1715 24.8746 12.9878C25.0919 12.8053 25.2122 12.5608 25.2122 12.3021C25.2122 11.7677 24.6942 11.333 24.0575 11.333H11.6226L9.69702 13.2724Z" fill="#C1BFD9"/>
<path fill-rule="evenodd" clip-rule="evenodd" d="M15.579 18.9626L12.9647 16.1831H0.969727C1.09469 17.9344 1.79475 19.562 2.9748 20.8165C4.28125 22.2056 6.01793 22.9695 7.86535 22.9695H16.377C20.0109 22.9695 23.0001 19.9726 23.2728 16.1816H18.1932L15.579 18.9626Z" fill="#C1BFD9"/>
<path fill-rule="evenodd" clip-rule="evenodd" d="M2.90918 15.1979H13.6657L15.93 17.1513L18.1944 15.1979H22.3031V14.2422H2.91069L2.90918 15.1979Z" fill="#C1BFD9"/>
<path fill-rule="evenodd" clip-rule="evenodd" d="M22.3031 8.42432H2.90918V9.72781H6.49424L9.00406 13.2728L11.5154 9.72781H22.3029L22.3031 8.42432Z" fill="#C1BFD9"/>
</svg>
