<svg width="29" height="25" viewBox="0 0 29 25" fill="none" xmlns="http://www.w3.org/2000/svg">
<g opacity="0.8">
<path fill-rule="evenodd" clip-rule="evenodd" d="M1.08698 7.60875H26.087C25.7814 3.35917 22.4323 0 18.3574 0H8.81656C4.7433 0 1.39259 3.35938 1.08698 7.60875ZM8.25463 4.63691L7.65775 2.73468L8.78946 2.33359L9.38634 4.23582L8.25463 4.63691ZM18.921 4.64199L17.7892 4.24089L18.3861 2.33866L19.5178 2.73976L18.921 4.64199ZM12.99 3.16963V1.2674H14.1822V3.16963H12.99Z" fill="#C1BFD9"/>
<path fill-rule="evenodd" clip-rule="evenodd" d="M1.25397 11.9568C0.919128 11.9568 0.60439 12.0699 0.366649 12.2759C0.130588 12.4803 0 12.7544 0 13.0445C0 13.6434 0.56253 14.1307 1.25398 14.1307H8.69566L6.60459 11.9568L1.25397 11.9568Z" fill="#C1BFD9"/>
<path fill-rule="evenodd" clip-rule="evenodd" d="M10.8695 14.1307H26.9665C27.3121 14.1307 27.637 14.0176 27.8824 13.8117C28.126 13.6072 28.2608 13.3331 28.2608 13.043C28.2608 12.4441 27.6802 11.9568 26.9665 11.9568H13.0279L10.8695 14.1307Z" fill="#C1BFD9"/>
<path fill-rule="evenodd" clip-rule="evenodd" d="M17.4628 20.5084L14.5324 17.3927H1.08698C1.22705 19.3559 2.01177 21.1803 3.33451 22.5865C4.79894 24.1435 6.74563 24.9999 8.81644 24.9999H18.3574C22.4306 24.9999 25.7814 21.6405 26.087 17.3911H20.3932L17.4628 20.5084Z" fill="#C1BFD9"/>
<path fill-rule="evenodd" clip-rule="evenodd" d="M3.26093 16.2885H15.3182L17.8563 18.4782L20.3945 16.2885H25.0001V15.2173H3.26262L3.26093 16.2885Z" fill="#C1BFD9"/>
<path fill-rule="evenodd" clip-rule="evenodd" d="M25.0001 8.6958H3.26093V10.1569H7.2795L10.0928 14.1306L12.9078 10.1569H24.9999L25.0001 8.6958Z" fill="#C1BFD9"/>
</g>
</svg>
