<svg width="40" height="40" viewBox="0 0 40 40" fill="none" xmlns="http://www.w3.org/2000/svg">
<path d="M18.9687 26.8622L20.0979 24.1805C19.3522 22.9479 18.0468 21.9976 16.4587 21.5289L16.2669 21.4814C15.0496 22.1967 13.551 22.6238 11.9429 22.6238C10.3335 22.6238 8.82928 22.2025 7.612 21.4814L7.42024 21.5289C5.15461 22.1967 3.45006 23.8437 3.15479 25.8945L2.73435 29.3517C2.66049 29.9594 3.24286 30.4883 3.98861 30.4883H11.7232C11.6351 30.1515 11.6635 29.7962 11.8041 29.4663L12.3425 28.1792C12.6749 27.3922 13.5896 26.8621 14.6081 26.8621L18.9687 26.8622Z" fill="#C1BFD9"/>
<path d="M11.9403 21.0602C14.9759 21.0602 17.436 19.0544 17.436 16.5811C17.436 14.1077 14.9757 12.1031 11.9403 12.1031C8.9048 12.1031 6.44324 14.1101 6.44324 16.5811C6.44324 19.0533 8.90487 21.0602 11.9403 21.0602Z" fill="#C1BFD9"/>
<path d="M36.7968 21.7188H23.5C23.2969 21.7188 23.1165 21.8241 23.0498 21.9804L20.3367 28.4272H14.6065C14.4034 28.4272 14.223 28.5325 14.1562 28.6888L13.6136 29.9758C13.5071 30.227 13.7372 30.4897 14.0639 30.4897L33.4319 30.4874C33.635 30.4874 33.8154 30.3821 33.8822 30.2258L37.2458 22.2326C37.3509 21.9815 37.1222 21.7188 36.7955 21.7188L36.7968 21.7188ZM28.4615 27.0661C27.8081 27.0661 27.2797 26.6355 27.2797 26.1031C27.2797 25.5707 27.8095 25.1401 28.4615 25.1401C29.1135 25.1401 29.6433 25.5707 29.6433 26.1031C29.6433 26.6355 29.1149 27.0661 28.4615 27.0661Z" fill="#C1BFD9"/>
<path d="M28.9829 5.06714C25.237 5.06714 22.2003 7.54169 22.2003 10.5937C22.2003 13.6458 25.2373 16.1202 28.9829 16.1202C32.7285 16.1202 35.7654 13.6456 35.7654 10.5937C35.7654 7.54151 32.7285 5.06714 28.9829 5.06714ZM29.6704 13.5175V14.2281C29.6704 14.3207 29.5794 14.3948 29.4658 14.3948H28.5013C28.3877 14.3948 28.2968 14.3196 28.2968 14.2281V13.5175C27.2726 13.4481 26.4474 12.7999 26.3366 11.9735C26.3238 11.8728 26.4147 11.7826 26.5397 11.7826H27.517C27.6107 11.7826 27.6945 11.8346 27.7144 11.9099C27.7869 12.1969 28.0994 12.4122 28.4715 12.4122H29.4971C29.9488 12.4122 30.3124 12.0939 30.2655 11.7177C30.2258 11.3902 29.855 11.1529 29.4516 11.1529H28.5567C27.4573 11.1529 26.4729 10.5094 26.3394 9.62052C26.1888 8.60662 27.1093 7.74784 28.2968 7.66799V6.95735C28.2968 6.86476 28.3877 6.79068 28.5013 6.79068H29.4658C29.5794 6.79068 29.6703 6.86591 29.6703 6.95735V7.66799C30.6945 7.73627 31.5198 8.38559 31.6306 9.21196C31.6433 9.31381 31.5524 9.40293 31.4274 9.40293H30.4502C30.3564 9.40293 30.2726 9.35084 30.2527 9.27561C30.1803 8.98858 29.8678 8.7733 29.4956 8.7733H28.5169C28.1121 8.7733 27.7428 9.00941 27.7016 9.33695C27.6547 9.71309 28.0184 10.0326 28.4701 10.0326H29.4104C30.5098 10.0326 31.4942 10.6761 31.6277 11.565C31.7783 12.5789 30.8578 13.4377 29.6704 13.5175Z" fill="#C1BFD9"/>
<path d="M28.9829 20.6089C28.5071 20.6089 28.1207 20.2941 28.1207 19.9064V17.6934C28.1207 17.3057 28.5071 16.9908 28.9829 16.9908C29.4588 16.9908 29.8452 17.3057 29.8452 17.6934V19.9064C29.8452 20.2941 29.4588 20.6089 28.9829 20.6089Z" fill="#C1BFD9"/>
<path d="M25.8338 20.0601C25.3579 20.0601 24.9716 19.7453 24.9716 19.3575V17.1446C24.9716 16.7568 25.3579 16.442 25.8338 16.442C26.3096 16.442 26.696 16.7568 26.696 17.1446V19.3575C26.696 19.7453 26.3096 20.0601 25.8338 20.0601Z" fill="#C1BFD9"/>
<path d="M32.132 20.0601C31.6561 20.0601 31.2698 19.7453 31.2698 19.3575V17.1446C31.2698 16.7568 31.6561 16.442 32.132 16.442C32.6078 16.442 32.9942 16.7568 32.9942 17.1446V19.3575C32.9942 19.7453 32.6078 20.0601 32.132 20.0601Z" fill="#C1BFD9"/>
</svg>
