<svg width="33" height="33" viewBox="0 0 33 33" fill="none" xmlns="http://www.w3.org/2000/svg">
<path d="M15.6491 22.1613L16.5808 19.9489C15.9656 18.932 14.8886 18.148 13.5784 17.7613L13.4202 17.7222C12.4159 18.3123 11.1796 18.6646 9.85289 18.6646C8.52515 18.6646 7.28414 18.317 6.27989 17.7222L6.12169 17.7613C4.25254 18.3123 2.84629 19.671 2.60269 21.363L2.25583 24.2151C2.19489 24.7164 2.67535 25.1528 3.29059 25.1528H9.67159C9.59893 24.8749 9.62237 24.5818 9.73839 24.3097L10.1825 23.2478C10.4568 22.5986 11.2114 22.1612 12.0517 22.1612L15.6491 22.1613Z" fill="#C1BFD9"/>
<path d="M9.85077 17.3747C12.3551 17.3747 14.3847 15.7199 14.3847 13.6794C14.3847 11.6388 12.355 9.98511 9.85077 9.98511C7.34646 9.98511 5.31567 11.6408 5.31567 13.6794C5.31567 15.719 7.34652 17.3747 9.85077 17.3747Z" fill="#C1BFD9"/>
<path d="M30.3573 17.918H19.3875C19.2199 17.918 19.0711 18.0049 19.016 18.1338L16.7777 23.4524H12.0503C11.8828 23.4524 11.7339 23.5393 11.6789 23.6682L11.2312 24.7301C11.1433 24.9373 11.3331 25.154 11.6027 25.154L27.5813 25.1521C27.7489 25.1521 27.8977 25.0652 27.9528 24.9363L30.7278 18.3419C30.8145 18.1347 30.6258 17.918 30.3563 17.918L30.3573 17.918ZM23.4807 22.3295C22.9416 22.3295 22.5057 21.9743 22.5057 21.5351C22.5057 21.0958 22.9428 20.7406 23.4807 20.7406C24.0186 20.7406 24.4557 21.0958 24.4557 21.5351C24.4557 21.9743 24.0198 22.3295 23.4807 22.3295Z" fill="#C1BFD9"/>
<path d="M23.9109 4.18042C20.8206 4.18042 18.3153 6.22192 18.3153 8.7398C18.3153 11.2578 20.8208 13.2992 23.9109 13.2992C27.001 13.2992 29.5065 11.2577 29.5065 8.7398C29.5065 6.22177 27.001 4.18042 23.9109 4.18042ZM24.4781 11.152V11.7382C24.4781 11.8146 24.4031 11.8757 24.3093 11.8757H23.5136C23.4199 11.8757 23.3449 11.8137 23.3449 11.7382V11.152C22.5 11.0947 21.8191 10.56 21.7277 9.8782C21.7172 9.79513 21.7922 9.72065 21.8953 9.72065H22.7015C22.7789 9.72065 22.848 9.76362 22.8644 9.82568C22.9242 10.0625 23.182 10.2401 23.489 10.2401H24.3351C24.7078 10.2401 25.0078 9.97751 24.9691 9.66716C24.9363 9.39693 24.6304 9.2012 24.2976 9.2012H23.5594C22.6523 9.2012 21.8402 8.67029 21.73 7.93696C21.6058 7.10049 22.3652 6.392 23.3449 6.32612V5.73984C23.3449 5.66345 23.4199 5.60234 23.5136 5.60234H24.3093C24.4031 5.60234 24.4781 5.66441 24.4781 5.73984V6.32612C25.323 6.38246 26.0038 6.91814 26.0953 7.59989C26.1058 7.68392 26.0308 7.75745 25.9277 7.75745H25.1214C25.0441 7.75745 24.9749 7.71448 24.9585 7.65241C24.8988 7.4156 24.641 7.238 24.3339 7.238H23.5265C23.1925 7.238 22.8878 7.4328 22.8539 7.70301C22.8152 8.01333 23.1152 8.27689 23.4878 8.27689H24.2636C25.1706 8.27689 25.9828 8.8078 26.0929 9.54113C26.2171 10.3776 25.4578 11.0861 24.4781 11.152Z" fill="#C1BFD9"/>
<path d="M23.9109 17.0024C23.5183 17.0024 23.1996 16.7426 23.1996 16.4228V14.5971C23.1996 14.2772 23.5183 14.0175 23.9109 14.0175C24.3035 14.0175 24.6222 14.2772 24.6222 14.5971V16.4228C24.6222 16.7426 24.3035 17.0024 23.9109 17.0024Z" fill="#C1BFD9"/>
<path d="M21.3129 16.5496C20.9203 16.5496 20.6016 16.2899 20.6016 15.97V14.1443C20.6016 13.8244 20.9203 13.5647 21.3129 13.5647C21.7055 13.5647 22.0242 13.8244 22.0242 14.1443V15.97C22.0242 16.2899 21.7055 16.5496 21.3129 16.5496Z" fill="#C1BFD9"/>
<path d="M26.5089 16.5496C26.1164 16.5496 25.7976 16.2899 25.7976 15.97V14.1443C25.7976 13.8244 26.1164 13.5647 26.5089 13.5647C26.9015 13.5647 27.2203 13.8244 27.2203 14.1443V15.97C27.2203 16.2899 26.9015 16.5496 26.5089 16.5496Z" fill="#C1BFD9"/>
</svg>
