<svg width="45" height="45" viewBox="0 0 45 45" fill="none" xmlns="http://www.w3.org/2000/svg">
<path d="M34.8574 15.0077H29.7086C30.3638 14.5233 30.7841 13.8306 30.7841 13.0546V12.9244C30.7841 11.4647 29.3267 10.2772 27.5353 10.2772H27.2956C25.2725 10.2772 23.4988 11.1522 22.5015 12.4595C21.5043 11.1522 19.7305 10.2772 17.7073 10.2772H17.4676C15.6763 10.2772 14.2189 11.4647 14.2189 12.9244V13.0546C14.2189 13.8306 14.6375 14.5233 15.2943 15.0077H10.1455C9.20588 15.0077 8.44043 15.6301 8.44043 16.397V18.3723C8.44043 19.1236 9.17712 19.733 10.0928 19.7564H18.3499V15.1381H20.055V19.7564H24.9559V15.1381H26.661V19.7564H34.9181C35.8337 19.733 36.5704 19.1236 36.5704 18.3723V16.397C36.5704 15.6314 35.8066 15.0077 34.8653 15.0077H34.8574ZM17.4662 14.3137C16.6144 14.3137 15.9225 13.7486 15.9225 13.0559V12.9257C15.9225 12.2317 16.616 11.6679 17.4662 11.6679H17.7059C19.6427 11.6679 21.2582 12.8124 21.5874 14.315H17.4663L17.4662 14.3137ZM29.079 13.0559C29.079 13.7499 28.3855 14.3137 27.5354 14.3137H23.4142C23.7418 12.8111 25.3589 11.6666 27.2957 11.6666H27.5355C28.3872 11.6666 29.0791 12.2317 29.0791 12.9244L29.079 13.0559Z" fill="#C1BFD9"/>
<path d="M20.8746 21.146H24.1234V32.5443H20.8746V21.146Z" fill="#C1BFD9"/>
<path d="M9.69669 13.056C9.50333 13.056 9.33555 12.9505 9.28441 12.8008C8.61645 10.8294 8.15144 10.4505 5.73203 9.90624C5.54666 9.86458 5.41882 9.72656 5.41882 9.57031C5.41882 9.41276 5.54826 9.27604 5.73203 9.23438C8.15144 8.69011 8.61645 8.31121 9.28441 6.33984C9.38829 6.03776 10.0067 6.03776 10.109 6.33984C10.7769 8.31121 11.242 8.69011 13.6614 9.23438C13.8467 9.27604 13.9746 9.41406 13.9746 9.57031C13.9746 9.72786 13.8451 9.86458 13.6614 9.90624C11.242 10.4505 10.7769 10.8294 10.109 12.8008C10.0578 12.9518 9.88845 13.056 9.69669 13.056Z" fill="#C1BFD9"/>
<path d="M36.1374 13.75C35.9457 13.75 35.7779 13.6459 35.7267 13.4948C35.217 11.9883 34.8894 11.7227 33.0421 11.3073C32.8567 11.2657 32.7289 11.1289 32.7289 10.9727C32.7289 10.8164 32.8567 10.6797 33.0421 10.6381C34.891 10.2227 35.217 9.95576 35.7267 8.45056C35.829 8.14978 36.4458 8.14978 36.5481 8.45056C37.0579 9.95706 37.3855 10.2227 39.2328 10.6381C39.4181 10.6797 39.546 10.8164 39.546 10.9727C39.546 11.1289 39.4181 11.2657 39.2328 11.3073C37.3839 11.7227 37.0579 11.9896 36.5481 13.4948C36.497 13.6459 36.3292 13.75 36.1374 13.75Z" fill="#C1BFD9"/>
<path d="M10.0898 21.146V25.1943C10.4845 25.4144 10.7833 25.7373 10.9175 26.1331C11.1333 26.7711 11.6318 27.1774 12.4149 27.3532C13.3369 27.5602 13.9777 28.249 13.9777 29.0263C13.9777 29.8037 13.3353 30.4912 12.4149 30.6995C11.2627 30.9586 11.2403 30.969 10.9335 31.8701C11.4481 32.2854 12.156 32.5432 12.9358 32.5432H19.1695V21.1449H10.0881L10.0898 21.146Z" fill="#C1BFD9"/>
<path d="M8.86413 31.8033C8.67237 31.8033 8.50457 31.6991 8.45344 31.5481C7.94367 30.0416 7.61607 29.776 5.76719 29.3593C5.58182 29.3176 5.45398 29.1809 5.45398 29.0247C5.45398 28.8684 5.58182 28.7317 5.76719 28.69C7.61607 28.2747 7.94208 28.0077 8.45344 26.5012C8.55572 26.2004 9.17254 26.2004 9.27482 26.5012C9.78458 28.0077 10.1122 28.2734 11.9611 28.69C12.1464 28.7317 12.2743 28.8684 12.2743 29.0247C12.2743 29.1809 12.1464 29.3176 11.9611 29.3593C10.1122 29.7747 9.78618 30.0416 9.27482 31.5481C9.22368 31.6991 9.05589 31.8033 8.86413 31.8033Z" fill="#C1BFD9"/>
<path d="M34.4324 31.34C33.4912 31.34 32.6602 30.8243 32.4093 30.0848C31.7302 28.0835 31.6103 27.9845 29.1526 27.4324C28.2481 27.2293 27.6137 26.5509 27.6137 25.784C27.6137 25.0171 28.245 24.3413 29.151 24.1369C31.6103 23.5835 31.7318 23.4845 32.411 21.4832C32.4525 21.3634 32.5132 21.2515 32.582 21.146H25.8303V32.5443H32.064C33.1395 32.5443 34.0648 32.0508 34.549 31.3334C34.509 31.336 34.4706 31.3412 34.4323 31.3412L34.4324 31.34Z" fill="#C1BFD9"/>
<path d="M34.4324 29.9517C34.255 29.9517 34.1016 29.8553 34.0537 29.7173C33.2179 27.2499 32.6362 26.7759 29.6081 26.095C29.4371 26.0572 29.3204 25.9309 29.3204 25.7864C29.3204 25.6419 29.4387 25.5169 29.6081 25.4778C32.6363 24.7968 33.218 24.3229 34.0537 21.8555C34.1479 21.5781 34.7168 21.5781 34.8127 21.8555C35.6485 24.3229 36.2302 24.7969 39.2583 25.4778C39.4293 25.5156 39.546 25.6419 39.546 25.7864C39.546 25.9309 39.4277 26.0559 39.2583 26.095C36.2301 26.776 35.6484 27.2499 34.8127 29.7173C34.7664 29.8566 34.6114 29.9517 34.434 29.9517H34.4324Z" fill="#C1BFD9"/>
</svg>
