<svg width="31" height="31" viewBox="0 0 31 31" fill="none" xmlns="http://www.w3.org/2000/svg">
<g clip-path="url(#clip0_704_73)">
<path d="M26.4452 10.3422H21.8848C22.4651 9.78605 22.8373 8.99073 22.8373 8.09969V7.95019C22.8373 6.27431 21.5465 4.91089 19.9598 4.91089H19.7475C17.9557 4.91089 16.3846 5.91552 15.5013 7.41649C14.6181 5.91552 13.0471 4.91089 11.2551 4.91089H11.0428C9.45612 4.91089 8.1653 6.27431 8.1653 7.95019V8.09969C8.1653 8.99069 8.53611 9.78601 9.11785 10.3422H4.55746C3.72521 10.3422 3.04724 11.0568 3.04724 11.9373V14.2052C3.04724 15.0678 3.69974 15.7675 4.51076 15.7944H11.8242V10.4919H13.3344V15.7944H17.6752V10.4919H19.1854V15.7944H26.4989C27.3099 15.7675 27.9624 15.0678 27.9624 14.2052V11.9373C27.9624 11.0583 27.2858 10.3422 26.4522 10.3422H26.4452ZM11.0415 9.54536C10.2871 9.54536 9.67421 8.89654 9.67421 8.10122V7.95172C9.67421 7.15491 10.2885 6.50758 11.0415 6.50758H11.2538C12.9692 6.50758 14.4002 7.82167 14.6917 9.54688H11.0415L11.0415 9.54536ZM21.3271 8.10122C21.3271 8.89803 20.7129 9.54536 19.9599 9.54536H16.3097C16.5998 7.82015 18.0322 6.50606 19.7477 6.50606H19.96C20.7144 6.50606 21.3272 7.15488 21.3272 7.9502L21.3271 8.10122Z" fill="#C1BFD9"/>
<path d="M14.0604 17.3899H16.9379V30.4769H14.0604V17.3899Z" fill="#C1BFD9"/>
<path d="M4.15994 8.10138C3.98868 8.10138 3.84007 7.98028 3.79478 7.80836C3.20316 5.54494 2.79129 5.10991 0.648384 4.48501C0.484202 4.43717 0.370972 4.2787 0.370972 4.09931C0.370972 3.91841 0.485619 3.76144 0.648384 3.71361C2.79129 3.08871 3.20316 2.65368 3.79478 0.390254C3.88678 0.0434178 4.43452 0.0434178 4.52511 0.390254C5.11673 2.65368 5.5286 3.08871 7.6715 3.71361C7.83569 3.76145 7.94892 3.91991 7.94892 4.09931C7.94892 4.2802 7.83427 4.43717 7.6715 4.48501C5.5286 5.10991 5.11673 5.54494 4.52511 7.80836C4.47982 7.98178 4.32979 8.10138 4.15994 8.10138Z" fill="#C1BFD9"/>
<path d="M27.5789 8.89815C27.4091 8.89815 27.2605 8.77855 27.2152 8.60514C26.7637 6.87545 26.4735 6.57046 24.8373 6.09356C24.6732 6.04572 24.5599 5.88875 24.5599 5.70935C24.5599 5.52996 24.6732 5.37298 24.8373 5.32514C26.4749 4.84824 26.7637 4.54176 27.2152 2.81357C27.3058 2.46823 27.8521 2.46823 27.9427 2.81357C28.3942 4.54326 28.6844 4.84824 30.3205 5.32514C30.4847 5.37298 30.5979 5.52996 30.5979 5.70935C30.5979 5.88875 30.4847 6.04573 30.3205 6.09356C28.6829 6.57046 28.3942 6.87694 27.9427 8.60514C27.8974 8.77855 27.7488 8.89815 27.5789 8.89815Z" fill="#C1BFD9"/>
<path d="M4.50816 17.3899V22.038C4.85776 22.2906 5.12243 22.6614 5.24132 23.1159C5.43239 23.8484 5.874 24.3148 6.56755 24.5167C7.38422 24.7544 7.95178 25.5452 7.95178 26.4377C7.95178 27.3302 7.38281 28.1196 6.56755 28.3588C5.54706 28.6563 5.52724 28.6682 5.25548 29.7028C5.71123 30.1797 6.33826 30.4756 7.02895 30.4756H12.5502V17.3887H4.50671L4.50816 17.3899Z" fill="#C1BFD9"/>
<path d="M3.42252 29.6261C3.25267 29.6261 3.10406 29.5065 3.05877 29.3331C2.60726 27.6034 2.3171 27.2984 0.679513 26.82C0.51533 26.7722 0.4021 26.6152 0.4021 26.4358C0.4021 26.2564 0.51533 26.0995 0.679513 26.0516C2.3171 25.5747 2.60584 25.2682 3.05877 23.5385C3.14935 23.1932 3.69568 23.1932 3.78627 23.5385C4.23778 25.2682 4.52794 25.5732 6.16552 26.0516C6.32971 26.0995 6.44294 26.2564 6.44294 26.4358C6.44294 26.6152 6.32971 26.7722 6.16552 26.82C4.52794 27.2969 4.23919 27.6034 3.78627 29.3331C3.74098 29.5065 3.59236 29.6261 3.42252 29.6261Z" fill="#C1BFD9"/>
<path d="M26.0687 29.0941C25.235 29.0941 24.4991 28.5021 24.2768 27.6529C23.6753 25.3551 23.5692 25.2415 21.3923 24.6076C20.5912 24.3744 20.0293 23.5956 20.0293 22.715C20.0293 21.8344 20.5884 21.0586 21.3909 20.8239C23.5691 20.1885 23.6767 20.0749 24.2783 17.7771C24.3151 17.6395 24.3689 17.511 24.4297 17.3899H18.4497V30.4769H23.971C24.9236 30.4769 25.7431 29.9103 26.1719 29.0865C26.1365 29.0895 26.1026 29.0955 26.0686 29.0955L26.0687 29.0941Z" fill="#C1BFD9"/>
<path d="M26.0686 27.5001C25.9115 27.5001 25.7756 27.3894 25.7332 27.231C24.9929 24.398 24.4778 23.8538 21.7957 23.072C21.6442 23.0286 21.5409 22.8836 21.5409 22.7177C21.5409 22.5517 21.6456 22.4082 21.7957 22.3634C24.4778 21.5815 24.993 21.0373 25.7332 18.2044C25.8167 17.886 26.3206 17.886 26.4055 18.2044C27.1458 21.0374 27.6609 21.5816 30.343 22.3634C30.4945 22.4067 30.5978 22.5517 30.5978 22.7177C30.5978 22.8836 30.4931 23.0271 30.343 23.072C27.6609 23.8539 27.1457 24.398 26.4055 27.231C26.3645 27.3909 26.2272 27.5001 26.0701 27.5001H26.0686Z" fill="#C1BFD9"/>
</g>
<defs>
<clipPath id="clip0_704_73">
<rect width="31" height="31" fill="white"/>
</clipPath>
</defs>
</svg>
