<svg width="23" height="23" viewBox="0 0 23 23" fill="none" xmlns="http://www.w3.org/2000/svg">
<g clip-path="url(#clip0_702_15)">
<path d="M0.66109 10.9455C2.82799 16.3468 7.42977 20.1699 11.1936 22.8977V22.8962C11.2833 22.9659 11.3902 23.0015 11.4999 23C11.6096 23 11.7164 22.9643 11.8062 22.8962C13.889 21.4262 15.8508 19.7626 17.6715 17.9239C19.6318 15.952 21.2189 13.5822 22.3387 10.9456C23.0738 9.19672 23.2006 7.21868 22.6963 5.3769C22.192 3.53515 21.0907 1.95517 19.5962 0.928083C17.4892 -0.452085 14.3079 -0.634852 11.5 2.78378C8.69202 -0.62712 5.51071 -0.452085 3.40377 0.928083C1.9093 1.95505 0.80805 3.53504 0.303727 5.3769C-0.200595 7.21864 -0.0740477 9.19668 0.66109 10.9455ZM8.21754 10.4545V10.4529C8.21897 10.2531 8.36856 10.0905 8.55376 10.0889H10.2021V8.29674C10.2035 8.09537 10.3531 7.93272 10.5369 7.93117H12.463C12.6468 7.93272 12.7964 8.09536 12.7978 8.29674V10.0889H14.4461C14.6313 10.0905 14.7809 10.2531 14.7823 10.4529V12.5471C14.7809 12.747 14.6313 12.9096 14.4461 12.9112H12.7978V14.7033C12.7964 14.9047 12.6468 15.0674 12.463 15.0689H10.5369C10.3531 15.0674 10.2035 14.9047 10.2021 14.7033V12.9112H8.55376C8.36856 12.9096 8.21897 12.747 8.21754 12.5471V10.4545Z" fill="#C1BFD9"/>
</g>
<defs>
<clipPath id="clip0_702_15">
<rect width="23" height="23" fill="white"/>
</clipPath>
</defs>
</svg>
