<svg width="26" height="26" viewBox="0 0 26 26" fill="none" xmlns="http://www.w3.org/2000/svg">
<path d="M0.747319 12.3732C3.19685 18.479 8.39887 22.8008 12.6536 25.8844V25.8826C12.7551 25.9614 12.8759 26.0017 12.9999 25.9999C13.1239 25.9999 13.2447 25.9597 13.3461 25.8826C15.7006 24.2209 17.9183 22.3403 19.9764 20.2618C22.1925 18.0327 23.9866 15.3538 25.2524 12.3732C26.0834 10.3963 26.2268 8.16025 25.6567 6.07823C25.0866 3.99626 23.8417 2.21019 22.1523 1.04914C19.7704 -0.511053 16.1742 -0.717659 13 3.14689C9.82576 -0.708918 6.2295 -0.511053 3.84774 1.04914C2.15833 2.21006 0.913448 3.99613 0.343344 6.07823C-0.22676 8.1602 -0.0837061 10.3962 0.747319 12.3732ZM9.2894 11.8181V11.8164C9.29101 11.5905 9.46011 11.4066 9.66947 11.4049H11.5328V9.37892C11.5344 9.15129 11.7035 8.96742 11.9112 8.96567H14.0886C14.2963 8.96742 14.4654 9.15128 14.4671 9.37892V11.4049H16.3304C16.5397 11.4066 16.7088 11.5905 16.7104 11.8164V14.1837C16.7088 14.4096 16.5397 14.5935 16.3304 14.5952H14.4671V16.6212C14.4654 16.8488 14.2963 17.0327 14.0886 17.0344H11.9112C11.7035 17.0327 11.5344 16.8488 11.5328 16.6212V14.5952H9.66947C9.46011 14.5935 9.29101 14.4096 9.2894 14.1837V11.8181Z" fill="#C1BFD9"/>
</svg>
