<?xml version="1.0" encoding="UTF-8"?>
<svg version="1.1" xmlns="http://www.w3.org/2000/svg" width="64" height="64">
<path d="M0 0 C1.21236328 0.01353516 1.21236328 0.01353516 2.44921875 0.02734375 C3.37154297 0.04474609 3.37154297 0.04474609 4.3125 0.0625 C4.3125 1.0525 4.3125 2.0425 4.3125 3.0625 C3.466875 3.84625 2.62125 4.63 1.75 5.4375 C0.945625 6.30375 0.14125 7.17 -0.6875 8.0625 C-0.63770416 10.822665 -0.63770416 10.822665 0.3125 13.0625 C2.45304182 14.11300452 2.45304182 14.11300452 5.3125 14.0625 C7.90255725 12.32330867 10.10374879 10.25852066 12.3125 8.0625 C13.86340815 9.61340815 13.51927311 11.09946233 13.5625 13.25 C13.49363646 18.67300342 11.80105289 22.02263123 8.625 26.375 C4.6143835 29.3016661 0.19583911 29.0625 -4.6875 29.0625 C-3.37492945 32.00854456 -2.02127957 33.91628043 0.38671875 36.05078125 C0.97130859 36.59283203 1.55589844 37.13488281 2.15820312 37.69335938 C3.38668428 38.81501608 4.62640243 39.92448725 5.87695312 41.02148438 C7.59214 42.63387426 9.03427585 44.08402888 10.3125 46.0625 C10.35366836 50.47208905 10.06282301 52.24965007 7.0625 55.5 C4.01019559 57.23426387 2.74900755 57.46829653 -0.6875 57.0625 C-2.63208008 55.68554688 -2.63208008 55.68554688 -4.45703125 53.78125 C-5.11767578 53.10449219 -5.77832031 52.42773438 -6.45898438 51.73046875 C-7.13251953 51.01503906 -7.80605469 50.29960938 -8.5 49.5625 C-9.19287109 48.84707031 -9.88574219 48.13164063 -10.59960938 47.39453125 C-12.30735699 45.62789579 -14.00236688 43.85067513 -15.6875 42.0625 C-17.1725 42.5575 -17.1725 42.5575 -18.6875 43.0625 C-19.52929 45.03356127 -19.52929 45.03356127 -20.0625 47.375 C-21.03098143 50.47809357 -21.69691512 52.07385353 -23.8125 54.625 C-27.83993248 56.63871624 -31.26724417 56.7363684 -35.6875 56.0625 C-39.32217079 54.43849816 -40.46158696 53.40136956 -42.6875 50.0625 C-43.35543625 45.48014668 -43.32176459 41.38868959 -41.3125 37.1875 C-38.10361767 34.58983335 -34.93017688 33.42589982 -31.02734375 32.15234375 C-28.3209508 30.89177007 -27.26796503 29.55497109 -25.6875 27.0625 C-31.89983696 20.30785691 -31.89983696 20.30785691 -39.125 14.75 C-42.0787771 12.80482971 -43.33526571 11.32377093 -44.6875 8.0625 C-44.375 5.25 -44.375 5.25 -43.6875 3.0625 C-41.6875 2.1875 -41.6875 2.1875 -38.6875 2.0625 C-33.62500334 4.82028028 -30.52108988 8.10371772 -27.6875 13.0625 C-25.11174655 15.82407935 -22.41507593 18.45154252 -19.6875 21.0625 C-17.61373856 19.82674704 -17.61373856 19.82674704 -15.6875 18.0625 C-15.65520345 16.06011394 -15.63130632 14.05506728 -15.7265625 12.0546875 C-15.66693486 9.01367802 -14.56855592 7.3976039 -12.6875 5.0625 C-8.51744606 1.30945145 -5.58399957 -0.08092753 0 0 Z M-11.5625 8.8125 C-13.00488505 11.18881114 -13.00488505 11.18881114 -12.2890625 14.68359375 C-12.24031365 18.59502437 -13.31945748 20.34322871 -15.90625 23.23828125 C-17.31275243 24.63817418 -18.7407472 26.01674538 -20.1875 27.375 C-20.88359375 28.07689453 -21.5796875 28.77878906 -22.296875 29.50195312 C-26.87691618 33.95053016 -30.65912253 36.07236257 -36.6875 38.0625 C-39.39718844 40.24093048 -39.65274906 40.82793114 -40.1875 44.4375 C-39.95622152 48.15596081 -39.95622152 48.15596081 -37.625 51 C-33.94687488 53.58251338 -32.09518137 53.78375695 -27.6875 53.0625 C-24.40661805 50.87524537 -23.72534115 49.18175697 -22.52734375 45.40625 C-20.63684069 40.24755883 -17.35180583 36.88015189 -13.5 33.0625 C-12.86513672 32.38316406 -12.23027344 31.70382813 -11.57617188 31.00390625 C-6.85004387 26.25388477 -6.85004387 26.25388477 -3.53417969 25.70800781 C-1.58242548 25.76095195 0.36620701 25.90728671 2.3125 26.0625 C5.57794565 24.52433641 7.73243013 21.91999459 9.75 18.9375 C10.56711797 16.86719824 10.56711797 16.86719824 9.3125 14.0625 C8.7865625 14.8359375 8.7865625 14.8359375 8.25 15.625 C6.3125 17.0625 6.3125 17.0625 2.8125 17 C-0.6875 16.0625 -0.6875 16.0625 -2.625 14.3125 C-3.90899487 11.59345203 -4.13372903 10.03736023 -3.6875 7.0625 C-2.1875 4.75 -2.1875 4.75 -0.6875 3.0625 C-5.35446713 3.0625 -8.23440367 5.70627676 -11.5625 8.8125 Z M-40.6875 5.0625 C-40.6875 8.63825896 -39.59909393 10.11545935 -37.6875 13.0625 C-36.3675 12.7325 -35.0475 12.4025 -33.6875 12.0625 C-33.6875 11.0725 -33.6875 10.0825 -33.6875 9.0625 C-37.1525 7.0825 -37.1525 7.0825 -40.6875 5.0625 Z M-11.9375 34.8125 C-13.94419386 36.84953601 -13.94419386 36.84953601 -13.45825195 39.0168457 C-12.16512412 42.44893887 -9.44775645 44.73191843 -6.875 47.25 C-6.07352539 48.06887695 -6.07352539 48.06887695 -5.25585938 48.90429688 C-1.54871016 52.61703432 -1.54871016 52.61703432 3.3125 54.0625 C5.58394074 52.20817913 5.58394074 52.20817913 7.3125 50.0625 C5.8330497 45.10955768 2.97149953 42.26952332 -0.625 38.75 C-1.16318359 38.20021484 -1.70136719 37.65042969 -2.25585938 37.08398438 C-6.65178484 32.53869429 -6.65178484 32.53869429 -11.9375 34.8125 Z " fill="#000000" transform="translate(47.6875,4.9375)"/>
<path d="M0 0 C0.66 0.66 1.32 1.32 2 2 C1.875 5.5 1.875 5.5 1 9 C-1.17794085 10.80243381 -2.26731601 11.06660764 -5.0625 10.8125 C-7.4300832 9.81964253 -8.58112996 9.16564375 -10 7 C-9.9375 3.9375 -9.9375 3.9375 -9 1 C-5.97447702 -1.48525102 -3.61516279 -1.14163036 0 0 Z M-4 2 C-4.99 2.99 -5.98 3.98 -7 5 C-6.01 5.99 -5.02 6.98 -4 8 C-3.01 7.01 -2.02 6.02 -1 5 C-1.99 4.01 -2.98 3.02 -4 2 Z " fill="#000000" transform="translate(20,45)"/>
<path d="M0 0 C4.057041 0.53039297 5.94844566 2.57643552 8.75 5.4375 C9.54921875 6.24058594 10.3484375 7.04367188 11.171875 7.87109375 C13 10 13 10 13 12 C8.67743102 11.50036856 6.70081922 10.22344124 3.6875 7.125 C2.64142578 6.07699219 2.64142578 6.07699219 1.57421875 5.0078125 C0 3 0 3 0 0 Z " fill="#000000" transform="translate(37,44)"/>
<path d="M0 0 C3.76929105 0.56878941 5.58477614 2.15221174 8.25 4.8125 C8.95640625 5.49957031 9.6628125 6.18664063 10.390625 6.89453125 C12 9 12 9 12 13 C8.62801098 11.53424802 6.35012996 9.64818479 3.75 7.0625 C3.04359375 6.37285156 2.3371875 5.68320312 1.609375 4.97265625 C0 3 0 3 0 0 Z " fill="#000000" transform="translate(40,41)"/>
<path d="M0 0 C3.2548802 0.58021778 4.93652408 1.52647141 7.25 3.875 C7.77078125 4.38804688 8.2915625 4.90109375 8.828125 5.4296875 C10 7 10 7 10 10 C6.7451198 9.41978222 5.06347592 8.47352859 2.75 6.125 C2.22921875 5.61195312 1.7084375 5.09890625 1.171875 4.5703125 C0 3 0 3 0 0 Z " fill="#000000" transform="translate(38,18)"/>
<path d="M0 0 C1.32 0.33 2.64 0.66 4 1 C4 1.99 4 2.98 4 4 C2.68 3.67 1.36 3.34 0 3 C0 2.01 0 1.02 0 0 Z " fill="#000000" transform="translate(21,41)"/>
<path d="M0 0 C1.98 0.99 1.98 0.99 4 2 C4 2.66 4 3.32 4 4 C2.68 3.67 1.36 3.34 0 3 C0 2.01 0 1.02 0 0 Z " fill="#000000" transform="translate(25,37)"/>
<path d="M0 0 C1.32 0.33 2.64 0.66 4 1 C4 1.99 4 2.98 4 4 C2.68 3.34 1.36 2.68 0 2 C0 1.34 0 0.68 0 0 Z " fill="#000000" transform="translate(28,34)"/>
<path d="M0 0 C1.98 0.99 1.98 0.99 4 2 C4 2.66 4 3.32 4 4 C2.68 3.67 1.36 3.34 0 3 C0 2.01 0 1.02 0 0 Z " fill="#000000" transform="translate(32,30)"/>
<path d="M0 0 C1.32 0.33 2.64 0.66 4 1 C4 1.99 4 2.98 4 4 C2.68 3.34 1.36 2.68 0 2 C0 1.34 0 0.68 0 0 Z " fill="#000000" transform="translate(35,27)"/>
</svg>
