<svg width="26" height="26" viewBox="0 0 26 26" fill="none" xmlns="http://www.w3.org/2000/svg">
<g clip-path="url(#clip0_704_63)">
<path d="M13 19.2677C14.3166 19.2677 15.5028 18.6436 16.0064 17.6878C16.51 16.7307 16.2308 15.6293 15.301 14.8978C14.3697 14.1651 12.9712 13.9467 11.7547 14.3429C10.5381 14.7391 9.74634 15.6723 9.74634 16.7081C9.74483 17.3871 10.0876 18.0386 10.6989 18.5183C11.3087 18.9992 12.1369 19.2689 13 19.2677Z" fill="#C1BFD9"/>
<path d="M6.84912 23.417C6.85215 24.6378 8.10811 25.6259 9.65984 25.6282H16.331C17.0773 25.6282 17.7933 25.3955 18.3196 24.9803C18.8475 24.5662 19.1433 24.0029 19.1433 23.417C19.1387 21.232 16.8877 19.4612 14.1104 19.4575H11.8821C9.10478 19.4611 6.85378 21.232 6.84912 23.417Z" fill="#C1BFD9"/>
<path d="M19.9834 12.4346C18.8048 12.4322 17.7401 12.9883 17.2865 13.8451C16.8345 14.7007 17.0817 15.6876 17.9145 16.3439C18.7472 17.0003 20.0001 17.1972 21.0892 16.8427C22.1783 16.4883 22.8897 15.653 22.8897 14.7258C22.8867 13.462 21.5883 12.4382 19.9834 12.4346Z" fill="#C1BFD9"/>
<path d="M20.9756 17.184H18.9794C18.4075 17.184 17.8403 17.2711 17.3109 17.4405C17.1652 17.974 16.8619 18.4716 16.425 18.8952C18.4652 19.5444 19.9153 20.9955 20.2384 22.7077H22.9641C23.6316 22.7077 24.2717 22.4989 24.7434 22.1278C25.2151 21.7567 25.4806 21.2531 25.4806 20.728C25.476 18.7722 23.4618 17.1876 20.9756 17.184Z" fill="#C1BFD9"/>
<path d="M3.11011 14.7258C3.11162 15.6518 3.82149 16.4847 4.90908 16.8392C5.99666 17.1924 7.24803 16.9955 8.07929 16.3392C8.91051 15.684 9.15775 14.6995 8.70727 13.8451C8.25524 12.9895 7.19348 12.4334 6.01639 12.4346C4.41006 12.4358 3.11011 13.462 3.11011 14.7258Z" fill="#C1BFD9"/>
<path d="M3.0359 22.7078H5.76165C6.08474 20.9954 7.53484 19.5445 9.57499 18.8953C9.13814 18.4717 8.83479 17.9741 8.68917 17.4406C8.15979 17.2712 7.5925 17.1841 7.02063 17.1841H5.02448C2.53839 17.1877 0.523947 18.7724 0.519287 20.7284C0.519287 21.2535 0.784733 21.757 1.25646 22.1282C1.72818 22.4993 2.36851 22.7078 3.0359 22.7078Z" fill="#C1BFD9"/>
<path d="M10.3366 8.97883C10.8538 8.56953 11.5227 8.29981 12.2463 8.20914V13.2809V13.2797C12.2463 13.5339 12.5072 13.738 12.8287 13.738C13.1503 13.738 13.4112 13.5339 13.4112 13.2797V8.20795V8.20914C14.1317 8.30342 14.7976 8.57311 15.3148 8.97883C15.424 9.06356 15.5727 9.1089 15.7259 9.10771C15.8791 9.10652 16.0262 9.06117 16.137 8.97883C17.4672 7.93347 19.6075 7.89767 20.9909 8.89888C21.0849 9.06356 21.2912 9.17095 21.5202 9.17454C21.675 9.17454 21.8221 9.1268 21.9313 9.04088C22.0405 8.95377 22.1027 8.83802 22.1027 8.7163V8.63038C22.0724 6.79028 21.1592 5.02527 19.5468 3.69241C17.9329 2.35827 15.7396 1.55397 13.4038 1.43941V0.730576C13.4038 0.477593 13.1429 0.272339 12.8213 0.272339C12.4997 0.272339 12.2388 0.477593 12.2388 0.730576V1.43941C9.90441 1.55516 7.71267 2.36065 6.10156 3.6936C4.48917 5.02774 3.57753 6.79037 3.54872 8.63035V8.66734C3.54872 8.67927 3.54114 8.69837 3.54114 8.71627C3.54265 8.96806 3.80204 9.17212 4.12361 9.17451C4.35417 9.17331 4.56348 9.06591 4.65905 8.89885C6.03938 7.89167 8.18721 7.92628 9.51294 8.9788C9.74198 9.15541 10.1075 9.15544 10.3366 8.97883Z" fill="#C1BFD9"/>
</g>
<defs>
<clipPath id="clip0_704_63">
<rect width="26" height="26" fill="white"/>
</clipPath>
</defs>
</svg>
