<svg width="46" height="46" viewBox="0 0 46 46" fill="none" xmlns="http://www.w3.org/2000/svg">
<path d="M23 27.4909C24.4179 27.4909 25.6953 26.7948 26.2376 25.7287C26.78 24.6612 26.4794 23.4327 25.4781 22.6168C24.4751 21.7995 22.969 21.5559 21.6589 21.9978C20.3488 22.4397 19.4961 23.4806 19.4961 24.6359C19.4945 25.3933 19.8636 26.12 20.5219 26.6551C21.1786 27.1915 22.0705 27.4923 23 27.4909Z" fill="#C1BFD9"/>
<path d="M16.376 32.1189C16.3792 33.4805 17.7318 34.5826 19.4029 34.5852H26.5873C27.391 34.5852 28.162 34.3257 28.7288 33.8625C29.2973 33.4006 29.6158 32.7724 29.6158 32.1189C29.6109 29.6818 27.1868 27.7066 24.1958 27.7025H21.7961C18.8052 27.7065 16.381 29.6817 16.376 32.1189Z" fill="#C1BFD9"/>
<path d="M30.5206 19.8693C29.2513 19.8666 28.1046 20.4869 27.6162 21.4425C27.1294 22.3969 27.3956 23.4976 28.2925 24.2297C29.1893 24.9618 30.5386 25.1814 31.7114 24.7861C32.8843 24.3907 33.6504 23.459 33.6504 22.4248C33.6471 21.0153 32.2488 19.8733 30.5206 19.8693Z" fill="#C1BFD9"/>
<path d="M31.589 25.1668H29.4393C28.8235 25.1668 28.2125 25.264 27.6424 25.453C27.4856 26.0479 27.1589 26.603 26.6885 27.0755C28.8856 27.7995 30.4472 29.4181 30.7951 31.3279H33.7306C34.4493 31.3279 35.1387 31.095 35.6467 30.6811C36.1547 30.2671 36.4406 29.7054 36.4406 29.1198C36.4357 26.9383 34.2666 25.1709 31.589 25.1668Z" fill="#C1BFD9"/>
<path d="M12.3494 22.4248C12.351 23.4577 13.1155 24.3867 14.2867 24.7821C15.458 25.176 16.8056 24.9564 17.7008 24.2244C18.596 23.4937 18.8622 22.3956 18.3771 21.4425C17.8903 20.4882 16.7468 19.8679 15.4792 19.8693C13.7493 19.8706 12.3494 21.0153 12.3494 22.4248Z" fill="#C1BFD9"/>
<path d="M12.2694 31.328H15.2048C15.5528 29.418 17.1144 27.7996 19.3115 27.0755C18.841 26.603 18.5144 26.048 18.3575 25.453C17.7874 25.264 17.1765 25.1669 16.5607 25.1669H14.4109C11.7336 25.1709 9.56422 26.9384 9.5592 29.1201C9.5592 29.7058 9.84507 30.2675 10.3531 30.6814C10.8611 31.0953 11.5507 31.328 12.2694 31.328Z" fill="#C1BFD9"/>
<path d="M20.1317 16.0148C20.6888 15.5583 21.4092 15.2574 22.1884 15.1563V20.8133V20.8119C22.1884 21.0955 22.4693 21.3231 22.8156 21.3231C23.1619 21.3231 23.4429 21.0955 23.4429 20.8119V15.155V15.1563C24.2188 15.2615 24.9359 15.5623 25.493 16.0148C25.6106 16.1093 25.7707 16.1599 25.9357 16.1586C26.1006 16.1572 26.2591 16.1066 26.3783 16.0148C27.8109 14.8488 30.1158 14.8089 31.6056 15.9256C31.7069 16.1093 31.929 16.2291 32.1757 16.2331C32.3423 16.2331 32.5008 16.1798 32.6184 16.084C32.736 15.9868 32.803 15.8577 32.803 15.722V15.6261C32.7703 13.5737 31.7869 11.6051 30.0505 10.1184C28.3125 8.63032 25.9504 7.73322 23.4349 7.60544V6.81482C23.4349 6.53265 23.1539 6.30371 22.8076 6.30371C22.4613 6.30371 22.1803 6.53265 22.1803 6.81482V7.60544C19.6664 7.73455 17.306 8.63298 15.571 10.1197C13.8346 11.6078 12.8528 13.5738 12.8218 15.6261V15.6674C12.8218 15.6807 12.8136 15.702 12.8136 15.7219C12.8152 16.0028 13.0946 16.2304 13.4409 16.233C13.6892 16.2317 13.9146 16.1119 14.0175 15.9256C15.504 14.8022 17.8171 14.8408 19.2448 16.0148C19.4914 16.2118 19.8851 16.2118 20.1317 16.0148Z" fill="#C1BFD9"/>
</svg>
