<svg width="27" height="27" viewBox="0 0 27 27" fill="none" xmlns="http://www.w3.org/2000/svg">
<g clip-path="url(#clip0_702_27)">
<path d="M10.755 26.2967C10.0883 26.2967 9.54515 26.8341 9.54515 27.4938C9.54515 28.1549 10.0883 28.6909 10.755 28.6909C11.4232 28.6909 11.9649 28.1535 11.9649 27.4938C11.9649 26.8327 11.4218 26.2967 10.755 26.2967ZM10.755 28.0395C10.4508 28.0395 10.2036 27.7948 10.2036 27.4938C10.2036 27.1928 10.4508 26.9482 10.755 26.9482C11.0592 26.9482 11.3065 27.1928 11.3065 27.4938C11.3065 27.7948 11.0593 28.0395 10.755 28.0395ZM11.2774 23.1576L8.14216 28.5303C8.08382 28.6306 7.97408 28.6938 7.856 28.6938C7.79905 28.6938 7.7421 28.6787 7.69209 28.6499C7.53512 28.5605 7.48094 28.3599 7.57124 28.2046L10.7064 22.8319C10.7648 22.7316 10.8745 22.6683 10.9926 22.6683C11.0495 22.6683 11.1065 22.6835 11.1565 22.7123C11.3135 22.8017 11.3676 23.0023 11.2774 23.1576ZM30.9262 22.5543L27.8007 18.6702L27.7924 18.6345C27.002 15.226 24.9434 12.8593 23.3544 11.4727C22.2695 10.5257 21.261 9.89624 20.6067 9.53479L20.4317 9.43858L20.5609 9.2874C21.4208 8.28545 21.7805 6.94956 21.6638 5.20669C21.6555 5.08437 21.5805 4.97854 21.4666 4.92907C21.4249 4.9112 21.3805 4.90158 21.3346 4.90158C21.2596 4.90158 21.186 4.92769 21.1277 4.97442C21.1179 4.98267 20.0567 5.80319 18.9968 5.80319C18.9148 5.80319 18.8342 5.79907 18.7565 5.78808C18.2633 5.7276 17.8591 5.47884 17.5201 5.0308C17.0742 4.44255 16.5089 4.10309 15.8393 4.01924C15.7337 4.0055 15.624 4 15.5143 4C14.1974 4 13.0055 4.9332 12.9556 4.97306C12.8805 5.03216 12.8361 5.12013 12.8319 5.21358C12.7736 6.6292 13.157 7.98848 13.971 9.25031L14.0654 9.39737L13.9112 9.48121C13.1986 9.86606 11.7901 10.7182 10.376 12.1118C9.20219 13.2677 8.26732 14.5569 7.59639 15.9462C6.80879 17.5763 6.38369 19.3492 6.33508 21.2158L6.3323 21.2969L6.26563 21.3436C4.84735 22.3428 4 23.9632 4 25.6798C4 28.6127 6.41146 30.9986 9.37575 30.9986C10.5246 30.9986 11.6219 30.644 12.5471 29.972L12.6151 29.9225L12.6957 29.9486C14.0779 30.3884 15.6114 30.611 17.2561 30.611C17.8367 30.611 18.4146 30.5822 18.973 30.5258L19.1494 30.508L19.1549 30.6839C19.1605 30.8612 19.305 31 19.4842 31H22.7249C22.9069 31 23.0542 30.8543 23.0542 30.6743V29.4786L23.15 29.4346C23.9348 29.0731 24.6461 28.6292 25.2614 28.1179L25.5323 27.8925V30.6743C25.5323 30.8543 25.6796 31 25.8615 31H29.1023C29.2843 31 29.4315 30.8543 29.4315 30.6743V23.0849H30.6706C30.7956 23.0849 30.9123 23.0121 30.9679 22.9008C31.0221 22.7881 31.0068 22.6534 30.929 22.5558L30.9262 22.5543ZM16.992 23.7115V22.7522H16.2391C15.6807 22.7522 15.2264 22.3028 15.2264 21.7502V21.4039C15.2264 21.2238 15.3737 21.0781 15.5557 21.0781C15.7376 21.0781 15.8849 21.2238 15.8849 21.4039V21.7502C15.8849 21.944 16.0432 22.1007 16.2391 22.1007H18.2741C18.47 22.1007 18.6284 21.944 18.6284 21.7502V20.2356C18.6284 20.0418 18.47 19.8852 18.2741 19.8852H16.2391C15.6807 19.8852 15.2264 19.4358 15.2264 18.8832V17.5569C15.2264 17.0044 15.6806 16.555 16.2391 16.555H16.992V15.5956C16.992 15.4156 17.1392 15.2699 17.3212 15.2699C17.5032 15.2699 17.6504 15.4156 17.6504 15.5956V16.555H18.2727C18.8312 16.555 19.2854 17.0044 19.2854 17.5569V17.8607C19.2854 18.0407 19.1382 18.1864 18.9562 18.1864C18.7742 18.1864 18.627 18.0407 18.627 17.8607V17.5569C18.627 17.3631 18.4686 17.2065 18.2728 17.2065H16.2377C16.0418 17.2065 15.8835 17.3631 15.8835 17.5569V18.8832C15.8835 19.077 16.0418 19.2337 16.2377 19.2337H18.2728C18.8312 19.2337 19.2854 19.6831 19.2854 20.2356V21.7502C19.2854 22.3027 18.8312 22.7522 18.2728 22.7522H17.6504V23.7115C17.6504 23.8916 17.5032 24.0373 17.3212 24.0373C17.1393 24.0373 16.992 23.8916 16.992 23.7115ZM13.4859 5.48169V5.39511L13.5581 5.347C13.9471 5.08724 14.718 4.65155 15.5084 4.65155C15.5946 4.65155 15.6779 4.65704 15.7599 4.66666C16.2516 4.72851 16.6544 4.9759 16.992 5.42257C17.4379 6.01219 18.0047 6.35302 18.6742 6.4355C18.7784 6.44787 18.8853 6.45474 18.9937 6.45474C19.6882 6.45474 20.3481 6.18673 20.7787 5.96272L21.0315 5.83078L21.0204 6.1139C20.9676 7.41682 20.5634 8.4105 19.7855 9.14994L19.7382 9.1953H14.7277L14.6791 9.1252C13.8859 7.98445 13.4844 6.75848 13.4872 5.48184L13.4859 5.48169ZM9.37684 30.3473C6.77644 30.3473 4.66074 28.2541 4.66074 25.6812C4.66074 23.1082 6.77633 21.0136 9.37684 21.0136C11.9773 21.0136 14.0929 23.1068 14.0929 25.6812C14.0929 28.2555 11.9773 30.3473 9.37684 30.3473ZM22.7232 26.3314C22.5413 26.3314 22.394 26.4771 22.394 26.6571V30.3473H19.8131V26.6571C19.8131 26.4771 19.6658 26.3314 19.4838 26.3314H18.599L21.1035 23.2183L23.6081 26.3314H22.7232ZM29.0993 22.4322C28.9173 22.4322 28.7701 22.5779 28.7701 22.7579V30.3473H26.1892V22.7579C26.1892 22.5779 26.0419 22.4322 25.8599 22.4322H24.9751L27.4796 19.3192L29.9842 22.4322H29.0993ZM9.20721 23.8657C9.20721 23.206 8.66409 22.6686 7.99732 22.6686C7.32916 22.6686 6.78743 23.206 6.78743 23.8657C6.78743 24.5268 7.33055 25.0628 7.99732 25.0628C8.66547 25.0628 9.20721 24.5254 9.20721 23.8657ZM7.44584 23.8657C7.44584 23.5647 7.6931 23.3201 7.99732 23.3201C8.30154 23.3201 8.5488 23.5647 8.5488 23.8657C8.5488 24.1667 8.30154 24.4113 7.99732 24.4113C7.6931 24.4113 7.44584 24.1667 7.44584 23.8657Z" fill="#C1BFD9"/>
</g>
<defs>
<clipPath id="clip0_702_27">
<rect width="27" height="27" fill="white"/>
</clipPath>
</defs>
</svg>
