<svg width="20" height="23" viewBox="0 0 20 23" fill="none" xmlns="http://www.w3.org/2000/svg">
<g clip-path="url(#clip0_410_24)">
<path d="M12.8002 11.3859C14.025 11.3881 15.2231 11.0558 16.2425 10.4311C17.262 9.80637 18.057 8.91736 18.5268 7.87666C18.9967 6.83596 19.1202 5.69038 18.8818 4.58503C18.6434 3.47967 18.0538 2.46427 17.1877 1.66743C16.3216 0.870593 15.2179 0.328166 14.0164 0.108854C12.8149 -0.110458 11.5698 0.00321178 10.4386 0.435466C9.30736 0.867721 8.34105 1.59911 7.66202 2.537C6.98298 3.4749 6.62178 4.57709 6.62415 5.70399C6.62457 6.2933 6.72304 6.87907 6.91615 7.44095L1.24815 12.6482C1.16919 12.7197 1.10658 12.8051 1.06399 12.8993C1.0214 12.9934 0.9997 13.0945 1.00015 13.1965V15.7725C0.998018 15.8755 1.0183 15.9779 1.05981 16.0736C1.10132 16.1693 1.16321 16.2564 1.24185 16.3298C1.32049 16.4032 1.41429 16.4613 1.51773 16.5009C1.62116 16.5404 1.73215 16.5605 1.84415 16.56H4.64415C4.75514 16.5605 4.86513 16.5407 4.96776 16.5019C5.0704 16.463 5.16365 16.4059 5.24213 16.3337C5.32061 16.2615 5.38276 16.1757 5.42499 16.0812C5.46721 15.9868 5.48868 15.8856 5.48815 15.7835V14.4918H6.89615C7.11967 14.4909 7.33374 14.4087 7.49179 14.2633C7.64984 14.1179 7.7391 13.921 7.74015 13.7154V12.42H9.14415C9.25501 12.4204 9.36484 12.4004 9.46719 12.3613C9.56953 12.3221 9.66234 12.2645 9.74015 12.1918L10.9122 11.1173C11.5229 11.2949 12.1596 11.3855 12.8002 11.3859ZM14.2082 3.10591C14.4868 3.10591 14.7592 3.18198 14.9908 3.32448C15.2224 3.46698 15.4029 3.6695 15.5094 3.90641C15.6158 4.14332 15.6435 4.40397 15.5888 4.65534C15.5341 4.90672 15.3996 5.13752 15.2023 5.31853C15.005 5.49954 14.7538 5.62262 14.4804 5.67219C14.207 5.72176 13.9238 5.69558 13.6666 5.59697C13.4093 5.49836 13.1897 5.33176 13.0355 5.11826C12.8813 4.90475 12.7994 4.65395 12.8002 4.39759C12.8001 4.22672 12.837 4.05755 12.9085 3.89986C12.9801 3.74218 13.0849 3.59913 13.217 3.47899C13.3491 3.35885 13.5058 3.26402 13.6779 3.19998C13.8501 3.13594 14.0344 3.10396 14.2202 3.10591H14.2082Z" fill="#C1BFD9"/>
</g>
<defs>
<clipPath id="clip0_410_24">
<rect width="20" height="23" fill="white"/>
</clipPath>
</defs>
</svg>
