<svg width="18" height="17" viewBox="0 0 18 17" fill="none" xmlns="http://www.w3.org/2000/svg">
<g clip-path="url(#clip0_410_24)">
<path d="M11.8002 11.3859C13.025 11.3881 14.2231 11.0558 15.2425 10.4311C16.262 9.80637 17.057 8.91736 17.5268 7.87666C17.9967 6.83596 18.1202 5.69038 17.8818 4.58503C17.6434 3.47967 17.0538 2.46427 16.1877 1.66743C15.3216 0.870593 14.2179 0.328166 13.0164 0.108854C11.8149 -0.110458 10.5698 0.00321178 9.43856 0.435466C8.30736 0.867721 7.34105 1.59911 6.66202 2.537C5.98298 3.4749 5.62178 4.57709 5.62415 5.70399C5.62457 6.2933 5.72304 6.87907 5.91615 7.44095L0.248153 12.6482C0.169194 12.7197 0.106581 12.8051 0.0639932 12.8993C0.0214049 12.9934 -0.000300265 13.0945 0.000152602 13.1965V15.7725C-0.00198224 15.8755 0.0183011 15.9779 0.0598093 16.0736C0.101318 16.1693 0.163212 16.2564 0.241853 16.3298C0.320493 16.4032 0.41429 16.4613 0.517725 16.5009C0.621161 16.5404 0.732147 16.5605 0.844153 16.56H3.64415C3.75514 16.5605 3.86513 16.5407 3.96776 16.5019C4.0704 16.463 4.16365 16.4059 4.24213 16.3337C4.32061 16.2615 4.38276 16.1757 4.42499 16.0812C4.46721 15.9868 4.48868 15.8856 4.48815 15.7835V14.4918H5.89615C6.11967 14.4909 6.33374 14.4087 6.49179 14.2633C6.64984 14.1179 6.7391 13.921 6.74015 13.7154V12.42H8.14415C8.25501 12.4204 8.36484 12.4004 8.46719 12.3613C8.56953 12.3221 8.66234 12.2645 8.74015 12.1918L9.91215 11.1173C10.5229 11.2949 11.1596 11.3855 11.8002 11.3859ZM13.2082 3.10591C13.4868 3.10591 13.7592 3.18198 13.9908 3.32448C14.2224 3.46698 14.4029 3.6695 14.5094 3.90641C14.6158 4.14332 14.6435 4.40397 14.5888 4.65534C14.5341 4.90672 14.3996 5.13752 14.2023 5.31853C14.005 5.49954 13.7538 5.62262 13.4804 5.67219C13.207 5.72176 12.9238 5.69558 12.6666 5.59697C12.4093 5.49836 12.1897 5.33176 12.0355 5.11826C11.8813 4.90475 11.7994 4.65395 11.8002 4.39759C11.8001 4.22672 11.837 4.05755 11.9085 3.89986C11.9801 3.74218 12.0849 3.59913 12.217 3.47899C12.3491 3.35885 12.5058 3.26402 12.6779 3.19998C12.8501 3.13594 13.0344 3.10396 13.2202 3.10591H13.2082Z" fill="#C1BFD9"/>
</g>
<defs>
<clipPath id="clip0_410_24">
<rect width="18.0001" height="17" fill="white"/>
</clipPath>
</defs>
</svg>
