<svg width="23" height="22" viewBox="0 0 23 22" fill="none" xmlns="http://www.w3.org/2000/svg">
<path d="M22.9295 11.3606C22.8853 11.4653 22.8212 11.5591 22.7404 11.6399L20.3818 13.9672V13.9683C20.0368 14.3087 19.4773 14.3087 19.1312 13.9683C18.7861 13.6268 18.7861 13.0747 19.1312 12.7343L19.9804 11.8963H13.8588C13.3711 11.8963 12.9742 11.5057 12.9742 11.0234C12.9742 10.5411 13.3711 10.1505 13.8588 10.1505H19.9804L19.1312 9.31253C18.8072 8.96882 18.816 8.43311 19.1533 8.10032C19.4905 7.76753 20.0335 7.75879 20.3818 8.0785L22.7404 10.4058V10.4069C22.8211 10.4877 22.8853 10.5815 22.9295 10.6862C23.0235 10.9012 23.0235 11.1456 22.9295 11.3606ZM18.5772 16.0163C18.0917 16.0229 17.6992 16.4102 17.6925 16.8892V19.2166C17.6925 19.294 17.6616 19.3682 17.6063 19.4228C17.551 19.4773 17.4758 19.5079 17.3973 19.5079H11.2049V2.58586H17.3973C17.4758 2.58586 17.551 2.61641 17.6063 2.67097C17.6616 2.72552 17.6925 2.79972 17.6925 2.8761V5.20452C17.6925 5.68571 18.0884 6.0774 18.5772 6.0774C19.0659 6.0774 19.4618 5.68571 19.4618 5.20452V2.8761C19.4551 1.75444 18.5351 0.845549 17.3973 0.840074H10.8046C10.6929 0.687317 10.5624 0.550917 10.4154 0.432009C9.91447 0.0457594 9.26205 -0.0906346 8.64613 0.0599491L1.56912 1.80573C0.646897 2.0305 -0.0011026 2.84775 1.41286e-06 3.7839V18.263C-0.0011043 19.1991 0.646897 20.0164 1.56912 20.2411L8.64613 21.9869C8.81089 22.0044 8.97676 22.0044 9.14152 21.9869C9.60263 21.9869 10.0505 21.8352 10.4154 21.5559C10.5624 21.4381 10.6929 21.3006 10.8046 21.1489H17.3973C18.513 21.1435 19.4242 20.2695 19.4618 19.1708V16.8423C19.4551 16.3634 19.0626 15.976 18.5772 15.9695V16.0163Z" fill="#C1BFD9"/>
</svg>
