<svg width="15" height="24" viewBox="0 0 15 24" fill="none" xmlns="http://www.w3.org/2000/svg">
<path d="M0 4.82803C0 4.33323 0.15356 3.8587 0.426898 3.50883C0.700236 3.15896 1.07096 2.9624 1.45752 2.9624H13.5425C13.929 2.9624 14.2998 3.15896 14.5731 3.50883C14.8464 3.8587 15 4.33323 15 4.82803V14.3718C15 14.8666 14.8464 15.3411 14.5731 15.691C14.2998 16.0408 13.929 16.2374 13.5425 16.2374H1.45752C1.07096 16.2374 0.700236 16.0408 0.426898 15.691C0.15356 15.3411 0 14.8666 0 14.3718V4.82803ZM1.86621 5.5244L7.25713 10.2374H7.25918C7.26959 10.2463 7.28034 10.2546 7.29141 10.2622L7.2999 10.2678C7.31162 10.2755 7.32364 10.2824 7.33594 10.2884C7.34879 10.2945 7.36189 10.2996 7.3752 10.3038H7.37871C7.39194 10.3079 7.40534 10.311 7.41885 10.3132C7.42061 10.3132 7.42236 10.3083 7.42412 10.3087C7.43762 10.3089 7.45112 10.3081 7.46455 10.3064C7.47779 10.3081 7.49109 10.3088 7.50439 10.3087C7.50615 10.3087 7.50791 10.3109 7.50967 10.3105C7.52296 10.3088 7.53616 10.3062 7.54922 10.3027H7.55303C7.56623 10.2986 7.57923 10.2936 7.59199 10.2877C7.60408 10.2818 7.61591 10.2752 7.62744 10.2678L7.63623 10.2622C7.64648 10.255 7.65674 10.2475 7.66553 10.2389H7.66729L7.66963 10.237L13.1303 5.5874C13.1703 5.55328 13.2047 5.50939 13.2315 5.45825C13.2583 5.40711 13.2769 5.34972 13.2864 5.28936C13.2958 5.229 13.2959 5.16684 13.2866 5.10644C13.2773 5.04604 13.2587 4.98858 13.2321 4.93734C13.2054 4.8861 13.1711 4.84208 13.1312 4.8078C13.0912 4.77352 13.0464 4.74965 12.9992 4.73755C12.9521 4.72545 12.9035 4.72536 12.8563 4.73728C12.8091 4.7492 12.7643 4.7729 12.7242 4.80703L7.46895 9.28865L2.2793 4.75115C2.19911 4.68554 2.10211 4.66247 2.00886 4.68682C1.91561 4.71118 1.83343 4.78104 1.77973 4.88161C1.72602 4.98219 1.70502 5.10557 1.72116 5.22562C1.73731 5.34568 1.78933 5.45297 1.86621 5.52478V5.5244Z" fill="#C1BFD9"/>
</svg>
