<?xml version="1.0" encoding="UTF-8"?>
<svg version="1.1" xmlns="http://www.w3.org/2000/svg" width="48" height="48">
<path d="M0 0 C4.62 0 9.24 0 14 0 C14.33 1.32 14.66 2.64 15 4 C16.134375 3.979375 17.26875 3.95875 18.4375 3.9375 C22 4 22 4 23 5 C22.92455507 8.12719243 22.82317194 11.24439299 22.609375 14.36523438 C22.48658436 16.64317488 22.48658436 16.64317488 23 20 C25.34141752 22.3979583 25.34141752 22.3979583 28 24 C29.84862688 27.69725375 29.47587094 31.96461442 29 36 C27.20353146 38.93423195 26.0558929 40.47205355 23 42 C21.37834248 42.12148305 19.75115673 42.17543652 18.125 42.1875 C17.26132812 42.20167969 16.39765625 42.21585938 15.5078125 42.23046875 C13 42 13 42 11.22265625 40.9921875 C7.68893986 39.41474644 4.12977412 39.83243741 0.3125 39.9375 C-2.46264267 39.99906849 -5.22323867 40.02065604 -8 40 C-9.7329298 38.2670702 -9.12820046 36.03785664 -9.13894653 33.72851562 C-9.1369223 32.99310547 -9.13489807 32.25769531 -9.1328125 31.5 C-9.13376923 30.74912109 -9.13472595 29.99824219 -9.13571167 29.22460938 C-9.13639338 27.63411373 -9.13453972 26.04361533 -9.13037109 24.453125 C-9.12502267 22.01035345 -9.13031634 19.56776579 -9.13671875 17.125 C-9.13605797 15.58333293 -9.1347768 14.04166597 -9.1328125 12.5 C-9.13483673 11.76458984 -9.13686096 11.02917969 -9.13894653 10.27148438 C-9.11495161 5.11495161 -9.11495161 5.11495161 -8 4 C-5.66702567 3.95907063 -3.33294775 3.95758277 -1 4 C-0.67 2.68 -0.34 1.36 0 0 Z M4 3 C4 3.99 4 4.98 4 6 C5.98 6 7.96 6 10 6 C10 5.01 10 4.02 10 3 C8.02 3 6.04 3 4 3 Z M0 14 C0 14.99 0 15.98 0 17 C4.62 17 9.24 17 14 17 C14 16.01 14 15.02 14 14 C9.38 14 4.76 14 0 14 Z M0 20 C0 20.99 0 21.98 0 23 C1.41154099 23.27748242 2.82979799 23.52093516 4.25 23.75 C5.03890625 23.88921875 5.8278125 24.0284375 6.640625 24.171875 C9.66152549 24.21029189 9.66152549 24.21029189 13 20 C8.71 20 4.42 20 0 20 Z M0 26 C0 26.99 0 27.98 0 29 C1.98 29 3.96 29 6 29 C6 31.31 6 33.62 6 36 C6.33 36 6.66 36 7 36 C7 32.7 7 29.4 7 26 C4.69 26 2.38 26 0 26 Z M17 30 C17 30.66 17 31.32 17 32 C17.66 32 18.32 32 19 32 C19 31.34 19 30.68 19 30 C18.34 30 17.68 30 17 30 Z " fill="#77A559" transform="translate(17,4)"/>
</svg>
