<svg width="30" height="30" viewBox="0 0 30 30" fill="none" xmlns="http://www.w3.org/2000/svg">
<g clip-path="url(#clip0_705_92)">
<path d="M4.5 14.4C6.15685 14.4 7.5 13.3255 7.5 12C7.5 10.6745 6.15685 9.59998 4.5 9.59998C2.84315 9.59998 1.5 10.6745 1.5 12C1.5 13.3255 2.84315 14.4 4.5 14.4Z" fill="#C1BFD9"/>
<path d="M15 14.4C16.6569 14.4 18 13.3255 18 12C18 10.6745 16.6569 9.59998 15 9.59998C13.3431 9.59998 12 10.6745 12 12C12 13.3255 13.3431 14.4 15 14.4Z" fill="#C1BFD9"/>
<path d="M25.5 14.4C27.1569 14.4 28.5 13.3255 28.5 12C28.5 10.6745 27.1569 9.59998 25.5 9.59998C23.8431 9.59998 22.5 10.6745 22.5 12C22.5 13.3255 23.8431 14.4 25.5 14.4Z" fill="#C1BFD9"/>
</g>
<defs>
<clipPath id="clip0_705_92">
<rect width="30" height="30" fill="white"/>
</clipPath>
</defs>
</svg>
