<svg width="21" height="26" viewBox="0 0 21 26" fill="none" xmlns="http://www.w3.org/2000/svg">
<path fill-rule="evenodd" clip-rule="evenodd" d="M3.33786 8.22947C3.24762 6.58643 5.53999 3.30488 6.43936 4.63936C6.44235 4.64312 6.44458 4.64688 6.44682 4.65064L8.32235 7.69534C8.34696 7.73596 8.52668 8.08052 8.53563 8.12717C8.68105 8.90807 7.91443 9.65512 7.33275 10.5172C7.25967 10.6256 7.19628 10.8054 7.26042 10.919C7.7802 11.833 8.24852 12.3943 8.95846 13.1105C9.66839 13.8267 10.2247 14.2991 11.1308 14.8235C11.2434 14.8889 11.4216 14.8243 11.529 14.7505C12.3837 14.1645 13.1249 13.3903 13.8982 13.537C13.9444 13.5461 14.2867 13.7266 14.3263 13.7522L17.3443 15.6443C17.3488 15.6465 17.3518 15.6488 17.3555 15.6518C18.6785 16.5591 15.4256 18.8717 13.7968 18.7799C11.4387 18.6475 8.88986 17.1993 6.89715 15.189C4.90444 13.1802 3.469 10.6089 3.33765 8.22927L3.33786 8.22947Z" fill="#C1BFD9"/>
</svg>
