<svg width="28" height="26" viewBox="0 0 28 26" fill="none" xmlns="http://www.w3.org/2000/svg">
<path d="M28 4.39524H27.0156C26.7823 4.39524 26.593 4.57706 26.593 4.80128V11.3977H24.3169V4.80128C24.3169 4.57708 24.1276 4.39524 23.8943 4.39524H22.9099L25.4549 1.94946L28 4.39524ZM1.40697 4.80128V11.3977H3.68315L3.68172 4.80128C3.68172 4.57708 3.87093 4.39524 4.10426 4.39524H5.08869L2.54506 1.94946L0 4.39524H0.984437C1.21632 4.39524 1.40697 4.57706 1.40697 4.80128ZM12.6983 3.02951L12.4536 1.862C12.4081 1.6419 12.556 1.42862 12.785 1.38487C13.0141 1.34113 13.236 1.48331 13.2815 1.70205L13.559 3.02816H14.4396L14.717 1.70205C14.7625 1.48194 14.9858 1.33974 15.2135 1.38487C15.4425 1.42862 15.5905 1.64326 15.5449 1.862L15.3002 3.02951H15.6773L16.821 0.812061C16.0713 1.01849 15.636 0.777883 15.1637 0.432017C14.8493 0.199608 14.5761 0 14 0C13.4238 0 13.1521 0.199598 12.8363 0.430652C12.364 0.776531 11.9301 1.01715 11.1789 0.810696L12.3227 3.02951H12.6983ZM11.9386 3.84157C11.6825 3.84157 11.4734 4.04116 11.4734 4.28723C11.4734 4.5333 11.6826 4.73426 11.9386 4.73426H16.0612C16.3159 4.73426 16.525 4.5333 16.525 4.28723C16.525 4.04117 16.3173 3.84157 16.0612 3.84157H11.9386ZM7.86552 15.819C7.42453 14.9399 7.19403 13.9775 7.19403 12.9822C7.19403 10.2958 9.22125 6.99017 11.7406 5.53005C11.8046 5.53962 11.8714 5.54372 11.9383 5.54372H16.0609C16.1292 5.54372 16.1946 5.53962 16.2587 5.53005C18.7767 6.99014 20.8037 10.2957 20.8037 12.9822C20.8037 13.5605 20.7241 14.1347 20.569 14.6897C20.1906 14.8237 19.8435 15.0356 19.5476 15.3131L17.8859 16.8743C17.3809 16.322 16.644 15.9843 15.8303 15.9843H12.7845C11.9551 15.4512 11.0873 15.1818 10.201 15.1818C10.1683 15.1818 10.1356 15.1832 10.1028 15.1832C9.35027 15.201 8.60056 15.4142 7.86508 15.8189L7.86552 15.819ZM11.5158 10.073C11.5158 10.8673 12.0806 11.6711 13.1603 11.6711H14.839C15.4294 11.6711 15.6385 12.0949 15.6385 12.4559C15.6385 12.6664 15.5645 12.8674 15.4379 13.0068C15.2957 13.1626 15.0951 13.2406 14.839 13.2406H11.9383C11.705 13.2406 11.5158 13.4224 11.5158 13.6466C11.5158 13.8708 11.705 14.0527 11.9383 14.0527H13.5772V14.9878C13.5772 15.212 13.7664 15.3938 13.9997 15.3938C14.233 15.3938 14.4222 15.212 14.4222 14.9878V14.0527H14.839C15.4735 14.0527 15.8605 13.7751 16.0739 13.5414C16.3385 13.2516 16.4836 12.866 16.4836 12.4545C16.4836 11.6616 15.9188 10.8577 14.839 10.8577H13.1604C12.57 10.8577 12.3609 10.4339 12.3609 10.0716C12.3609 9.8611 12.4348 9.65876 12.5614 9.51933C12.7037 9.36348 12.9043 9.28556 13.1603 9.28556H16.0625C16.2958 9.28556 16.485 9.10373 16.485 8.87951C16.485 8.65528 16.2958 8.47346 16.0625 8.47346H14.4222L14.4208 7.54244C14.4208 7.31824 14.2316 7.13639 13.9983 7.13639C13.7649 7.13639 13.5757 7.31822 13.5757 7.54244V8.47619H13.1589C12.5244 8.47619 12.1375 8.75508 11.9241 8.98748C11.6609 9.2773 11.5158 9.66284 11.5158 10.073ZM23.0675 15.9257C23.8656 16.7104 23.8499 17.9723 23.0348 18.7392L20.6661 20.9649L19.0059 22.5275C18.4881 23.0115 17.8621 23.2562 17.1437 23.2562L11.1743 23.2589L10.6181 23.7934L11.4688 24.6109C11.6338 24.7695 11.6338 25.0265 11.4688 25.1851L8.66483 27.8811C8.58516 27.9576 8.47846 28 8.36608 28C8.25369 28 8.147 27.9576 8.06733 27.8811L1.35134 21.4243C1.27167 21.3477 1.22757 21.2452 1.22757 21.1372C1.22757 21.0292 1.27167 20.9266 1.35134 20.8501L4.15671 18.1555C4.32174 17.9969 4.58919 17.9969 4.7542 18.1555L5.46124 18.835L7.52972 17.0235C7.53683 17.0167 7.54394 17.0112 7.55106 17.0058C8.40318 16.355 9.26813 16.016 10.1231 15.9955C10.9355 15.9763 11.7406 16.247 12.5188 16.798H15.8307C16.7283 16.798 17.4823 17.4036 17.6744 18.2116L20.1383 15.8957C20.9549 15.126 22.268 15.141 23.0675 15.9257ZM22.4643 16.4917C21.9906 16.0269 21.2124 16.0187 20.7301 16.4739L17.4454 19.5622C17.1125 20.0845 16.5135 20.4331 15.8321 20.4331H11.0022C10.7689 20.4331 10.5797 20.2513 10.5797 20.027C10.5797 19.8028 10.7689 19.621 11.0022 19.621H15.8306C16.2204 19.621 16.5604 19.4146 16.7397 19.1111C16.7497 19.0947 16.7582 19.0783 16.7667 19.0619C16.7696 19.055 16.7738 19.0495 16.7767 19.0427C16.8023 18.9921 16.8222 18.9388 16.8379 18.8841C16.8407 18.8718 16.845 18.8609 16.8478 18.8486C16.8521 18.8349 16.8549 18.8212 16.8578 18.8076C16.8635 18.783 16.8663 18.757 16.8692 18.731C16.8706 18.7214 16.8706 18.7132 16.872 18.7037C16.8748 18.675 16.8763 18.6449 16.8763 18.6148C16.8763 18.0598 16.4068 17.6072 15.8306 17.6072H12.3765C12.2826 17.6072 12.1916 17.5772 12.1176 17.5225C10.8003 16.5368 9.48152 16.5724 8.08897 17.6319L6.06034 19.4077L10.0253 23.218L10.7053 22.5645C10.7849 22.4879 10.8916 22.4455 11.004 22.4455L17.1468 22.4428C17.6447 22.4428 18.0601 22.2801 18.4186 21.9452L20.0774 20.3839L22.446 18.1583C22.9283 17.7044 22.9352 16.9565 22.4643 16.4917Z" fill="#C1BFD9"/>
</svg>
