<svg width="26" height="26" viewBox="0 0 26 26" fill="none" xmlns="http://www.w3.org/2000/svg">
<g clip-path="url(#clip0_704_48)">
<path d="M26 4.08129H25.0859C24.8692 4.08129 24.6935 4.25013 24.6935 4.45834V10.5836H22.5799V4.45834C22.5799 4.25015 22.4042 4.08129 22.1876 4.08129H21.2735L23.6367 1.81022L26 4.08129ZM1.30647 4.45834V10.5836H3.42007L3.41874 4.45834C3.41874 4.25015 3.59444 4.08129 3.81109 4.08129H4.72522L2.36327 1.81022L0 4.08129H0.91412C1.12944 4.08129 1.30647 4.25013 1.30647 4.45834ZM11.7912 2.81311L11.564 1.729C11.5218 1.52462 11.6591 1.32658 11.8718 1.28596C12.0845 1.24533 12.2906 1.37736 12.3329 1.58047L12.5905 2.81186H13.4082L13.6658 1.58047C13.708 1.37609 13.9154 1.24405 14.1268 1.28596C14.3395 1.32658 14.4769 1.52588 14.4346 1.729L14.2074 2.81311H14.5574L15.6195 0.754057C14.9234 0.945744 14.5191 0.72232 14.0806 0.401158C13.7886 0.185351 13.535 0 13 0C12.465 0 12.2127 0.185341 11.9194 0.399891C11.4808 0.721064 11.0779 0.944496 10.3804 0.752789L11.4425 2.81311H11.7912ZM11.0858 3.56717C10.8481 3.56717 10.6539 3.75251 10.6539 3.981C10.6539 4.20949 10.8481 4.3961 11.0858 4.3961H14.914C15.1504 4.3961 15.3446 4.20949 15.3446 3.981C15.3446 3.75251 15.1518 3.56717 14.914 3.56717H11.0858ZM7.3037 14.689C6.8942 13.8728 6.68017 12.9791 6.68017 12.0549C6.68017 9.5604 8.56259 6.49087 10.9019 5.13505C10.9614 5.14393 11.0235 5.14774 11.0856 5.14774H14.9137C14.9771 5.14774 15.0379 5.14393 15.0973 5.13505C17.4355 6.49084 19.3177 9.56033 19.3177 12.0549C19.3177 12.5919 19.2438 13.1251 19.0998 13.6405C18.7484 13.7649 18.4261 13.9616 18.1513 14.2193L16.6084 15.669C16.1394 15.1562 15.4551 14.8426 14.6996 14.8426H11.8713C11.1012 14.3475 10.2953 14.0974 9.47235 14.0974C9.44197 14.0974 9.41158 14.0987 9.3812 14.0987C8.6824 14.1152 7.98623 14.3132 7.30329 14.689L7.3037 14.689ZM10.6932 9.35348C10.6932 10.091 11.2177 10.8375 12.2203 10.8375H13.7791C14.3273 10.8375 14.5215 11.231 14.5215 11.5662C14.5215 11.7617 14.4528 11.9483 14.3352 12.0777C14.2031 12.2225 14.0168 12.2948 13.7791 12.2948H11.0856C10.8689 12.2948 10.6932 12.4637 10.6932 12.6719C10.6932 12.8801 10.8689 13.0489 11.0856 13.0489H12.6074V13.9172C12.6074 14.1254 12.7831 14.2943 12.9997 14.2943C13.2164 14.2943 13.3921 14.1254 13.3921 13.9172V13.0489H13.7791C14.3683 13.0489 14.7276 12.7912 14.9257 12.5741C15.1714 12.305 15.3062 11.947 15.3062 11.5649C15.3062 10.8286 14.7817 10.0822 13.7791 10.0822H12.2203C11.6721 10.0822 11.4779 9.68866 11.4779 9.35224C11.4779 9.15674 11.5466 8.96885 11.6642 8.83938C11.7963 8.69466 11.9826 8.6223 12.2203 8.6223H14.9152C15.1318 8.6223 15.3075 8.45346 15.3075 8.24526C15.3075 8.03705 15.1318 7.86821 14.9152 7.86821H13.3921L13.3907 7.00369C13.3907 6.7955 13.2151 6.62665 12.9984 6.62665C12.7817 6.62665 12.606 6.79549 12.606 7.00369V7.87075H12.219C11.6298 7.87075 11.2705 8.12972 11.0724 8.34551C10.828 8.61464 10.6932 8.97263 10.6932 9.35348ZM21.4198 14.7882C22.1609 15.5168 22.1463 16.6886 21.3894 17.4007L19.19 19.4674L17.6484 20.9184C17.1675 21.3678 16.5863 21.595 15.9192 21.595L10.3761 21.5976L9.85964 22.0939L10.6496 22.853C10.8028 23.0003 10.8028 23.2389 10.6496 23.3862L8.04591 25.8896C7.97193 25.9606 7.87286 26 7.7685 26C7.66414 26 7.56507 25.9606 7.49109 25.8896L1.25481 19.894C1.18084 19.8229 1.13989 19.7277 1.13989 19.6274C1.13989 19.5271 1.18084 19.4319 1.25481 19.3608L3.85981 16.8587C4.01304 16.7114 4.26139 16.7114 4.41462 16.8587L5.07115 17.4896L6.99188 15.8076C6.99849 15.8012 7.00509 15.7961 7.0117 15.7911C7.80296 15.1868 8.60612 14.872 9.40005 14.8529C10.1544 14.8352 10.902 15.0865 11.6246 15.5981H14.6999C15.5334 15.5981 16.2336 16.1605 16.4119 16.9108L18.6999 14.7603C19.4581 14.0456 20.6774 14.0595 21.4198 14.7882ZM20.8597 15.3137C20.4198 14.8821 19.6972 14.8745 19.2494 15.2972L16.1993 18.1649C15.8901 18.6499 15.334 18.9736 14.7012 18.9736H10.2164C9.99972 18.9736 9.82401 18.8047 9.82401 18.5965C9.82401 18.3883 9.99971 18.2195 10.2164 18.2195H14.6999C15.0618 18.2195 15.3776 18.0278 15.544 17.746C15.5533 17.7308 15.5612 17.7155 15.5691 17.7003C15.5717 17.6939 15.5757 17.6889 15.5784 17.6825C15.6021 17.6356 15.6206 17.586 15.6352 17.5353C15.6378 17.5238 15.6418 17.5137 15.6444 17.5023C15.6484 17.4896 15.651 17.4769 15.6536 17.4642C15.6589 17.4413 15.6616 17.4172 15.6642 17.3931C15.6655 17.3842 15.6655 17.3766 15.6669 17.3677C15.6695 17.341 15.6708 17.3131 15.6708 17.2852C15.6708 16.7698 15.2349 16.3496 14.6999 16.3496H11.4925C11.4053 16.3496 11.3208 16.3217 11.2521 16.2709C10.0288 15.3556 8.80427 15.3886 7.51119 16.3724L5.62745 18.0215L9.30916 21.5595L9.9406 20.9527C10.0146 20.8816 10.1137 20.8423 10.218 20.8423L15.922 20.8398C16.3844 20.8398 16.7701 20.6887 17.103 20.3777L18.6433 18.928L20.8427 16.8613C21.2905 16.4398 21.297 15.7453 20.8597 15.3137Z" fill="#C1BFD9"/>
</g>
<defs>
<clipPath id="clip0_704_48">
<rect width="26" height="26" fill="white"/>
</clipPath>
</defs>
</svg>
