<svg width="24" height="25" viewBox="0 0 24 25" fill="none" xmlns="http://www.w3.org/2000/svg">
<path d="M13.7322 4.68773L17.8448 8.80031H21.1521L14.8245 2.47266C14.7835 3.36 14.3669 4.15212 13.7308 4.6864L13.7322 4.68773Z" fill="#C1BFD9"/>
<path d="M9.76985 4.68787C9.13377 4.14966 8.71324 3.36015 8.67357 2.47412L2.34967 8.80178H5.65702L9.76958 4.68919L9.76985 4.68787Z" fill="#C1BFD9"/>
<path d="M10.3081 4.14581C10.41 4.22648 10.5184 4.29789 10.6295 4.36269C10.7485 4.42749 10.8728 4.48436 11.0024 4.52799C11.2365 4.60866 11.4904 4.64966 11.7509 4.64966C12.0114 4.64966 12.2653 4.60602 12.4994 4.52403C12.6276 4.48039 12.7533 4.42617 12.8723 4.35873C12.9873 4.29393 13.0918 4.22384 13.1936 4.14185C13.7279 3.71471 14.0704 3.05879 14.0704 2.32352C14.0704 2.06564 14.0294 1.81967 13.9514 1.58824C13.8297 1.2259 13.6234 0.904559 13.3523 0.644019C13.2611 0.555416 13.1632 0.474748 13.0548 0.403337C12.6819 0.149432 12.2322 0 11.7482 0C11.2642 0 10.8133 0.149435 10.4443 0.403337C10.3398 0.474748 10.238 0.555416 10.1468 0.644019C9.87568 0.901892 9.6654 1.2259 9.54773 1.58824C9.4697 1.81834 9.42871 2.06565 9.42871 2.32352C9.42871 3.05879 9.77385 3.71471 10.3095 4.14185L10.3081 4.14581Z" fill="#C1BFD9"/>
<path d="M1.02885 24.9999H22.4759C23.0446 24.9999 23.5048 24.5397 23.5048 23.971V10.5882C23.5048 10.0195 23.0446 9.55933 22.4759 9.55933H1.02885C0.460208 9.55933 0 10.0195 0 10.5882V23.9673C0 24.5359 0.464169 24.9962 1.02885 24.9962V24.9999ZM5.58185 16.3498L10.7077 11.224C10.9854 10.9463 11.3503 10.7969 11.7431 10.7969H11.7603C12.1464 10.7969 12.5154 10.9489 12.7931 11.224L17.9189 16.3498C18.1966 16.6236 18.3487 16.9925 18.3487 17.3853C18.3487 17.7781 18.1993 18.1338 17.9321 18.4075C17.9282 18.4115 17.9255 18.4181 17.9189 18.4207C17.7086 18.631 17.4481 18.7659 17.1638 18.8241V22.9367C17.1638 23.3942 16.7949 23.7632 16.3373 23.7632H7.66089C6.92958 23.7632 6.33714 23.1707 6.33714 22.4394V18.8238C6.05282 18.7696 5.78833 18.6307 5.58203 18.4205C5.57806 18.4165 5.57542 18.4139 5.5688 18.4072C5.30168 18.1335 5.15223 17.7712 5.15223 17.385C5.15223 16.9989 5.30416 16.6236 5.58185 16.3498Z" fill="#C1BFD9"/>
<path d="M11.751 14.3231L7.65166 18.4224C7.49561 18.5811 7.30256 18.7002 7.09625 18.7676V22.4374C7.09625 22.7495 7.34619 22.9994 7.65829 22.9994H9.69348V20.2408C9.69348 19.1168 10.5769 18.1686 11.6983 18.1422C12.2643 18.1289 12.7985 18.3458 13.2019 18.7452C13.5906 19.134 13.8049 19.6497 13.8049 20.1972V23.0007H15.8665C16.164 23.0007 16.4047 22.76 16.4047 22.4625V18.769C16.1944 18.6976 16.0053 18.5799 15.8467 18.4199L11.7497 14.3206L11.751 14.3231Z" fill="#C1BFD9"/>
<path d="M6.12822 17.8951C6.18905 17.9559 6.26046 18.0035 6.33848 18.0339C6.44692 18.0776 6.56594 18.0987 6.68362 18.0882C6.69684 18.0882 6.70742 18.0882 6.718 18.0842C6.86347 18.0644 6.99174 18.0035 7.09754 17.9043C7.10415 17.8977 7.11076 17.8938 7.11737 17.8871L11.4879 13.5166C11.5593 13.4452 11.6572 13.4055 11.755 13.4055C11.8529 13.4055 11.9507 13.4465 12.0222 13.5166L16.39 17.8844C16.39 17.8844 16.4032 17.8977 16.4098 17.9016C16.5143 17.9995 16.6465 18.0603 16.7893 18.0815C16.7999 18.0815 16.8131 18.0815 16.8237 18.0854C16.9454 18.096 17.0604 18.0788 17.1689 18.0312C17.2469 17.9968 17.3183 17.9506 17.3791 17.8924L17.3897 17.8818C17.522 17.7496 17.596 17.5737 17.596 17.3845C17.596 17.1954 17.522 17.0196 17.3897 16.8833L12.2615 11.7551C12.1293 11.6229 11.9468 11.5488 11.7577 11.5488C11.562 11.5488 11.3821 11.6202 11.2499 11.7551L6.1217 16.8833C5.98946 17.0156 5.91541 17.1954 5.91541 17.3845C5.91541 17.5736 5.98682 17.7495 6.1217 17.8818C6.1217 17.8818 6.12832 17.8884 6.13228 17.8924L6.12822 17.8951Z" fill="#C1BFD9"/>
<path d="M11.7511 18.9026C11.037 18.9026 10.4551 19.4845 10.4551 20.1986V23.0021H13.0484V20.1986C13.0484 19.8534 12.9135 19.5281 12.6662 19.2848C12.4189 19.0375 12.0936 18.9026 11.7525 18.9026H11.7511Z" fill="#C1BFD9"/>
</svg>
