<svg width="25" height="27" viewBox="0 0 25 27" fill="none" xmlns="http://www.w3.org/2000/svg">
<path d="M14.6057 4.98586L18.9799 9.36007H22.4976L15.7675 2.62988C15.7239 3.57368 15.2808 4.41619 14.6042 4.98446L14.6057 4.98586Z" fill="#C1BFD9"/>
<path d="M10.3915 4.98641C9.71493 4.41396 9.26765 3.57423 9.22545 2.63184L2.49927 9.36203H6.01701L10.3912 4.98782L10.3915 4.98641Z" fill="#C1BFD9"/>
<path d="M10.9639 4.40955C11.0722 4.49535 11.1876 4.5713 11.3057 4.64022C11.4323 4.70914 11.5645 4.76963 11.7024 4.81604C11.9513 4.90184 12.2214 4.94544 12.4985 4.94544C12.7755 4.94544 13.0456 4.89903 13.2946 4.81182C13.431 4.76541 13.5646 4.70774 13.6912 4.63601C13.8136 4.56708 13.9247 4.49254 14.033 4.40533C14.6012 3.95103 14.9655 3.25338 14.9655 2.47133C14.9655 2.19705 14.9219 1.93543 14.8389 1.68928C14.7095 1.30389 14.4901 0.962103 14.2018 0.684988C14.1047 0.590749 14.0006 0.504949 13.8853 0.428995C13.4886 0.158938 13.0104 0 12.4956 0C11.9808 0 11.5012 0.158941 11.1088 0.428995C10.9977 0.504949 10.8894 0.590749 10.7923 0.684988C10.504 0.959265 10.2803 1.30389 10.1552 1.68928C10.0722 1.93402 10.0286 2.19706 10.0286 2.47133C10.0286 3.25338 10.3957 3.95103 10.9653 4.40533L10.9639 4.40955Z" fill="#C1BFD9"/>
<path d="M1.0943 26.5903H23.9057C24.5105 26.5903 25 26.1008 25 25.496V11.2618C25 10.657 24.5105 10.1675 23.9057 10.1675H1.0943C0.489484 10.1675 0 10.657 0 11.2618V25.492C0 26.0968 0.493697 26.5863 1.0943 26.5863V26.5903ZM5.93693 17.39L11.3888 11.938C11.6842 11.6427 12.0724 11.4837 12.4901 11.4837H12.5084C12.9191 11.4837 13.3116 11.6455 13.6069 11.938L19.0588 17.39C19.3542 17.6811 19.5159 18.0735 19.5159 18.4913C19.5159 18.9091 19.357 19.2874 19.0729 19.5785C19.0686 19.5828 19.0658 19.5898 19.0588 19.5926C18.8351 19.8163 18.5581 19.9597 18.2556 20.0216V24.3958C18.2556 24.8825 17.8632 25.2749 17.3766 25.2749H8.14823C7.3704 25.2749 6.74027 24.6448 6.74027 23.8669V20.0213C6.43786 19.9636 6.15655 19.816 5.93712 19.5923C5.9329 19.5881 5.93009 19.5853 5.92306 19.5783C5.63894 19.2871 5.47998 18.9017 5.47998 18.491C5.47998 18.0803 5.64157 17.6811 5.93693 17.39Z" fill="#C1BFD9"/>
<path d="M12.4985 15.2341L8.13834 19.5943C7.97237 19.7631 7.76704 19.8896 7.54761 19.9614V23.8646C7.54761 24.1965 7.81344 24.4624 8.1454 24.4624H10.3101V21.5284C10.3101 20.3328 11.2496 19.3243 12.4424 19.2962C13.0444 19.2821 13.6126 19.5128 14.0416 19.9375C14.4551 20.351 14.683 20.8996 14.683 21.4819V24.4638H16.8758C17.1922 24.4638 17.4482 24.2078 17.4482 23.8914V19.9629C17.2246 19.887 17.0234 19.7618 16.8547 19.5916L12.497 15.2314L12.4985 15.2341Z" fill="#C1BFD9"/>
<path d="M6.5181 19.0332C6.5828 19.0979 6.65875 19.1485 6.74174 19.1809C6.85707 19.2273 6.98366 19.2498 7.10883 19.2385C7.1229 19.2385 7.13415 19.2385 7.1454 19.2343C7.30012 19.2132 7.43655 19.1485 7.54908 19.043C7.55611 19.036 7.56314 19.0318 7.57018 19.0247L12.2187 14.3761C12.2947 14.3002 12.3988 14.258 12.5029 14.258C12.6069 14.258 12.711 14.3016 12.787 14.3761L17.4326 19.0219C17.4326 19.0219 17.4467 19.0359 17.4537 19.0401C17.5649 19.1442 17.7055 19.2089 17.8574 19.2314C17.8687 19.2314 17.8827 19.2314 17.894 19.2356C18.0234 19.2469 18.1458 19.2286 18.2611 19.178C18.3441 19.1414 18.42 19.0922 18.4847 19.0303L18.496 19.019C18.6366 18.8784 18.7154 18.6913 18.7154 18.4902C18.7154 18.289 18.6366 18.102 18.496 17.9571L13.0416 12.5026C12.9009 12.362 12.7068 12.2832 12.5057 12.2832C12.2975 12.2832 12.1062 12.3592 11.9656 12.5026L6.51117 17.9571C6.37052 18.0977 6.29175 18.289 6.29175 18.4902C6.29175 18.6913 6.3677 18.8784 6.51117 19.019C6.51117 19.019 6.5182 19.0261 6.52242 19.0303L6.5181 19.0332Z" fill="#C1BFD9"/>
<path d="M12.4985 20.1045C11.739 20.1045 11.1201 20.7234 11.1201 21.4829V24.4648H13.8784V21.4829C13.8784 21.1158 13.7349 20.7698 13.4719 20.511C13.2088 20.248 12.8628 20.1045 12.5 20.1045H12.4985Z" fill="#C1BFD9"/>
</svg>
