<svg width="25" height="25" viewBox="0 0 25 25" fill="none" xmlns="http://www.w3.org/2000/svg">
<path fill-rule="evenodd" clip-rule="evenodd" d="M23.7071 10.0482L13.4396 15.1363C12.8849 15.413 12.2931 15.413 11.7364 15.1422L1.29493 10.0402C1.08692 9.93801 0.961927 9.73663 0.961927 9.50251V8.64143L0.375001 9.10968C0.13086 9.30313 0 9.57593 0 9.89139V23.015C0 24.1082 0.877927 25 1.9541 25H23.0459C24.1201 25 25 24.1082 25 23.015V9.9013C25 9.58979 24.8721 9.32095 24.6328 9.12751L24.0351 8.64141V9.51241C24.0351 9.74454 23.9131 9.94592 23.706 10.0481L23.7071 10.0482ZM3.58881 5.19429H21.4101C22.3183 5.19429 23.0595 5.94723 23.0595 6.86983V9.01558C23.0595 9.17232 22.9775 9.30426 22.8408 9.37371L22.0214 9.77847C21.8916 9.84395 21.7392 9.74772 21.7392 9.59892V8.71501C21.7392 8.47891 21.583 8.27953 21.3564 8.22594C20.7207 8.07714 20.2197 7.56824 20.0761 6.92539C20.0244 6.69326 19.8252 6.53452 19.5927 6.53452H5.40721C5.17283 6.53452 4.97653 6.69325 4.92381 6.92539C4.77732 7.56923 4.27831 8.07814 3.64353 8.22594C3.41502 8.27852 3.25876 8.47792 3.25876 8.71501V9.58005C3.25876 9.65147 3.22653 9.71199 3.16696 9.74869C3.10836 9.7854 3.04098 9.78937 2.97848 9.75861L2.1611 9.35982C2.02243 9.29237 1.93845 9.15844 1.93845 9.00169V6.86785C1.93845 5.94527 2.68163 5.19231 3.58983 5.19231L3.58881 5.19429ZM12.4991 7.43824C14.2872 7.43824 15.7373 8.9124 15.7373 10.7308C15.7373 12.5472 14.2862 14.0203 12.4991 14.0203C10.709 14.0203 9.26082 12.5462 9.26082 10.7308C9.26082 8.91242 10.71 7.43824 12.4991 7.43824ZM6.26756 9.71394C6.82029 9.71394 7.26756 10.1683 7.26756 10.7298C7.26756 11.1068 7.06346 11.4361 6.76269 11.6117L5.28124 10.8865C5.27342 10.8359 5.26952 10.7824 5.26952 10.7298C5.26952 10.1683 5.71679 9.71394 6.26756 9.71394ZM18.7276 9.71394C19.2784 9.71394 19.7276 10.1683 19.7276 10.7298C19.7276 10.7972 19.7198 10.8617 19.7071 10.9252L18.2764 11.6335C17.9522 11.4669 17.7295 11.1246 17.7295 10.7298C17.7295 10.1683 18.1768 9.71394 18.7276 9.71394ZM13.6006 11.8438C13.4805 12.1146 13.2637 12.2912 12.9932 12.3974C12.8486 12.4519 12.6904 12.4867 12.5166 12.5015L12.458 13.0978C12.4541 13.1305 12.4424 13.1503 12.4102 13.1652C12.3203 13.1999 12.0879 13.2019 12.0029 13.1573C11.9648 13.1364 11.9512 13.1047 11.959 13.062L12.0176 12.4956C11.8555 12.4728 11.4863 12.3894 11.3701 12.2654C11.3477 12.2446 11.334 12.2148 11.3262 12.1722C11.3057 12.0869 11.3018 11.824 11.3359 11.7367C11.374 11.6434 11.4561 11.6821 11.5205 11.7208C11.7686 11.8696 12.0195 11.947 12.3086 11.947C12.5234 11.947 12.6816 11.9063 12.7832 11.825C12.9414 11.703 13 11.446 12.8711 11.2853C12.7685 11.1534 12.5928 11.072 12.4404 11.0165C12.2441 10.9431 12.0517 10.8736 11.8652 10.7705C11.667 10.6603 11.5224 10.5155 11.4345 10.3022C11.3427 10.08 11.3466 9.75463 11.4365 9.53041C11.5332 9.28835 11.7148 9.12565 11.9492 9.02546C12.0752 8.97288 12.2158 8.93816 12.374 8.91733L12.4296 8.35982C12.4336 8.32509 12.4453 8.30922 12.4775 8.29434C12.5537 8.25764 12.8125 8.26359 12.8867 8.30228C12.9248 8.32013 12.9326 8.35684 12.9326 8.39751L12.8789 8.92229C13.0351 8.94511 13.1875 8.98578 13.332 9.05622C13.4062 9.09094 13.4521 9.12764 13.4687 9.21296C13.4863 9.29827 13.4951 9.55123 13.4629 9.63458C13.4345 9.71791 13.3564 9.67525 13.3027 9.64648C13.0927 9.53835 12.8574 9.45502 12.6191 9.45502C12.4843 9.45502 12.3203 9.47585 12.2119 9.56117C12.0693 9.67327 12.0478 9.91135 12.1582 10.0522C12.2607 10.1861 12.4404 10.2655 12.5947 10.323C12.8789 10.4272 13.2138 10.5393 13.4345 10.7566C13.707 11.0294 13.749 11.4976 13.6006 11.8438ZM3.02256 19.3008H10.2296C10.5801 19.3008 10.8673 19.5915 10.8673 19.9486C10.8673 20.3047 10.5811 20.5964 10.2296 20.5964H3.02256C2.67198 20.5964 2.38485 20.3057 2.38485 19.9486C2.38485 19.5925 2.67098 19.3008 3.02256 19.3008ZM3.02256 21.6668H8.47182C8.82239 21.6668 9.10952 21.9574 9.10952 22.3146C9.10952 22.6707 8.82339 22.9624 8.47182 22.9624H3.02256C2.67198 22.9624 2.38485 22.6717 2.38485 22.3146C2.38485 21.9585 2.67098 21.6668 3.02256 21.6668ZM17.5686 3.49198L13.6603 0.378957C13.4123 0.181545 13.1291 0.0555661 12.8371 0H12.1593C11.8664 0.0545605 11.5841 0.18154 11.3361 0.378957L7.42584 3.49198C7.294 3.59813 7.24127 3.77075 7.29791 3.93344C7.35357 4.09613 7.49811 4.20228 7.66901 4.20228H17.3293C17.4992 4.20228 17.6437 4.09613 17.6984 3.93344C17.7541 3.77075 17.7043 3.59715 17.5705 3.49198H17.5686Z" fill="#C1BFD9"/>
</svg>
