<svg width="23" height="22" viewBox="0 0 23 22" fill="none" xmlns="http://www.w3.org/2000/svg">
<path d="M19.8467 6.5648L19.4557 5.83968C20.7966 3.47248 20.7092 3.40208 20.447 3.19968L18.7335 1.892L18.5633 1.77936H18.3655C18.2597 1.77936 17.9492 1.77936 15.3433 2.7016L14.3842 2.39888C13.1445 0 13.018 0 12.65 0H10.2373C9.8739 0 9.7336 0 8.5859 2.40768L7.6314 2.7104C5.8719 2.1296 4.8392 1.8304 4.5609 1.8304H4.3309L2.4909 3.2384C2.208 3.4584 2.1091 3.53056 3.5282 5.8608L3.1372 6.58416C0 7.53104 0 7.62256 0 7.92V9.76448C0 10.0549 0 10.157 3.1487 11.0387L3.5397 11.7603C2.1988 14.1275 2.2885 14.1979 2.5484 14.4003L4.2619 15.7098L4.4321 15.8242H4.6322C4.7357 15.8242 5.0439 15.8242 7.6521 14.9002L8.6089 15.2046C9.8486 17.6 9.9751 17.6 10.35 17.6H12.7581C13.1284 17.6 13.2595 17.6 14.4118 15.1941L15.3709 14.8914C17.1304 15.4722 18.1585 15.7714 18.4368 15.7714H18.6668L20.5252 14.351C20.7897 14.1434 20.8817 14.0712 19.4718 11.7498L19.8605 11.0264C23 10.069 23 9.96864 23 9.68V7.83552C23 7.54512 23 7.44304 19.8467 6.5648ZM11.5 11.8782C10.7034 11.8796 9.92426 11.7001 9.26109 11.3625C8.59792 11.0248 8.0806 10.5442 7.77461 9.98139C7.46863 9.41861 7.38774 8.79901 7.54219 8.20104C7.69664 7.60307 8.07948 7.05361 8.64225 6.62223C9.20502 6.19085 9.92241 5.89695 10.7036 5.77773C11.4848 5.65852 12.2946 5.71935 13.0306 5.95253C13.7665 6.18571 14.3955 6.58075 14.8379 7.08764C15.2803 7.59452 15.5163 8.19046 15.5158 8.8C15.514 9.61506 15.0905 10.3964 14.338 10.9732C13.5855 11.5501 12.5651 11.8754 11.5 11.8782Z" fill="#C1BFD9"/>
</svg>
