<svg width="25" height="25" viewBox="0 0 25 25" fill="none" xmlns="http://www.w3.org/2000/svg">
<path d="M21.5725 9.325L21.1475 8.295C22.605 4.9325 22.51 4.8325 22.225 4.545L20.3625 2.6875L20.1775 2.5275H19.9625C19.8475 2.5275 19.51 2.5275 16.6775 3.8375L15.635 3.4075C14.2875 0 14.15 0 13.75 0H11.1275C10.7325 0 10.58 0 9.3325 3.42L8.295 3.85C6.3825 3.025 5.26 2.6 4.9575 2.6H4.7075L2.7075 4.6C2.4 4.9125 2.2925 5.015 3.835 8.325L3.41 9.3525C0 10.6975 0 10.8275 0 11.25V13.87C0 14.2825 0 14.4275 3.4225 15.68L3.8475 16.705C2.39 20.0675 2.4875 20.1675 2.77 20.455L4.6325 22.315L4.8175 22.4775H5.035C5.1475 22.4775 5.4825 22.4775 8.3175 21.165L9.3575 21.5975C10.705 25 10.8425 25 11.25 25H13.8675C14.27 25 14.4125 25 15.665 21.5825L16.7075 21.1525C18.62 21.9775 19.7375 22.4025 20.04 22.4025H20.29L22.31 20.385C22.5975 20.09 22.6975 19.9875 21.165 16.69L21.5875 15.6625C25 14.3025 25 14.16 25 13.75V11.13C25 10.7175 25 10.5725 21.5725 9.325ZM12.5 16.8725C11.6342 16.8745 10.7872 16.6195 10.0664 16.1399C9.34557 15.6602 8.78326 14.9775 8.45066 14.1781C8.11807 13.3787 8.03015 12.4986 8.19803 11.6492C8.36591 10.7998 8.78205 10.0193 9.39375 9.40658C10.0055 8.79382 10.7852 8.37634 11.6343 8.207C12.4834 8.03766 13.3637 8.12408 14.1637 8.4553C14.9636 8.78652 15.6473 9.34765 16.1282 10.0677C16.6091 10.7877 16.8655 11.6342 16.865 12.5C16.863 13.6578 16.4027 14.7676 15.5848 15.587C14.7668 16.4064 13.6577 16.8685 12.5 16.8725Z" fill="#C1BFD9"/>
</svg>
