<svg width="27" height="25" viewBox="0 0 27 25" fill="none" xmlns="http://www.w3.org/2000/svg">
<path fill-rule="evenodd" clip-rule="evenodd" d="M2.43058 2.50351H3.41162V3.71821C3.41162 4.83104 4.31958 5.73901 5.43239 5.73901C6.54521 5.73901 7.45317 4.83104 7.45317 3.71821V2.50351H9.21929V3.71821C9.21929 4.83104 10.1272 5.73901 11.2401 5.73901C12.3529 5.73901 13.2608 4.83104 13.2608 3.71821V2.50351H15.027V3.71821C15.027 4.83104 15.9349 5.73901 17.0477 5.73901C18.1606 5.73901 19.0685 4.83104 19.0685 3.71821V2.50351H20.0495C21.386 2.50351 22.48 3.59751 22.48 4.93399V6.81637H0V4.93399C0 3.59751 1.093 2.50351 2.43058 2.50351ZM16.6026 21.8012C16.6026 18.93 18.9301 16.6025 21.8013 16.6025C24.6725 16.6025 27 18.93 27 21.8012C27 24.6725 24.6725 27 21.8013 27C18.9301 27 16.6026 24.6725 16.6026 21.8012ZM19.774 24.863H21.436V25.71C21.436 25.9116 21.5999 26.0755 21.8014 26.0755C22.0029 26.0755 22.1668 25.9116 22.1668 25.71V24.863H22.4813C23.4247 24.863 24.1943 24.0923 24.1943 23.15C24.1943 22.2088 23.4214 21.437 22.478 21.437H22.1668V19.4727H23.8288C24.0304 19.4727 24.1943 19.3088 24.1943 19.1073C24.1943 18.9057 24.0304 18.7418 23.8288 18.7418H22.1668V17.8948C22.1668 17.6921 22.0029 17.5293 21.8014 17.5293C21.5999 17.5293 21.436 17.6932 21.436 17.8948V18.7418H21.1215C20.1781 18.7418 19.4086 19.5125 19.4086 20.4548C19.4086 21.3982 20.1792 22.1678 21.1215 22.1678H21.436V24.1321H19.774C19.5724 24.1321 19.4086 24.296 19.4086 24.4975C19.4086 24.6991 19.5724 24.863 19.774 24.863ZM22.1668 24.131C22.5543 24.131 22.8577 24.1587 23.1744 23.8421C23.7956 23.2209 23.3483 22.1667 22.4779 22.1667H22.1668V24.131ZM21.1215 21.4359H21.436V19.4716C21.0484 19.4716 20.7451 19.4439 20.4284 19.7606C19.805 20.3851 20.2612 21.4359 21.1215 21.4359ZM17.049 0C16.3392 0 15.759 0.580225 15.759 1.28999V3.71827C15.759 4.42804 16.3392 5.00826 17.049 5.00826C17.7588 5.00826 18.339 4.42804 18.339 3.71827V1.28999C18.339 0.580225 17.7588 0 17.049 0ZM5.43157 0C4.72181 0 4.14159 0.580225 4.14159 1.28999V3.71827C4.14159 4.42804 4.72181 5.00826 5.43157 5.00826C6.14133 5.00826 6.72155 4.42804 6.72155 3.71827V1.28999C6.72266 0.580225 6.14133 0 5.43157 0ZM11.2403 0C10.5305 0 9.95031 0.580225 9.95031 1.28999V3.71827C9.95031 4.42804 10.5305 5.00826 11.2403 5.00826C11.9501 5.00826 12.5303 4.42804 12.5303 3.71827V1.28999C12.5303 0.580225 11.9501 0 11.2403 0ZM22.4813 7.54839H0.000141789V21.6443C0.000141789 22.9807 1.09414 24.0748 2.43061 24.0748H16.3237C16.0325 23.3749 15.8719 22.6076 15.8719 21.8026C15.8719 18.5272 18.5272 15.872 21.8025 15.872C22.0328 15.872 22.2587 15.8852 22.4824 15.9107L22.4813 7.54839ZM12.1871 10.6498V10.2678C12.1871 9.98983 11.8803 9.81376 11.6401 9.95218L10.483 10.6199C10.2349 10.7605 10.236 11.1126 10.4796 11.2533L11.6102 11.9066C11.8925 12.0882 12.1871 11.8756 12.1871 11.6087V11.3939C14.3274 11.8346 15.903 13.7292 15.903 15.9602C15.903 18.5358 13.8158 20.6229 11.2403 20.6229C8.16418 20.6229 5.9475 17.7007 6.73581 14.7532C6.78785 14.5583 6.67159 14.3579 6.47781 14.3059C6.28293 14.2538 6.08252 14.3701 6.03048 14.5639C5.11696 17.9765 7.68363 21.3526 11.2402 21.3526C14.2189 21.3526 16.6337 18.9376 16.6337 15.9591C16.6337 13.3249 14.7347 11.1002 12.1867 10.6498L12.1871 10.6498Z" fill="#C1BFD9"/>
</svg>
