<svg width="34" height="34" viewBox="0 0 34 34" fill="none" xmlns="http://www.w3.org/2000/svg">
<path d="M28.6695 25.9259C28.4063 26.2958 27.9197 26.523 27.3957 26.523H6.60436C6.08036 26.523 5.59379 26.2958 5.33057 25.9259C8.97444 24.035 12.2477 21.7074 15.0379 19.0196C15.5269 18.5503 16.244 18.2798 16.9999 18.2798C17.7557 18.2798 18.4729 18.5503 18.9619 19.0196C21.7522 21.7074 25.0256 24.035 28.6695 25.9259Z" fill="#C1BFD9"/>
<path d="M14.1409 18.6645C11.5305 21.1496 8.49503 23.315 5.12903 25.0966V15.9325C5.13024 15.6796 5.27633 15.4425 5.52504 15.291C5.77255 15.1395 6.0937 15.0923 6.39194 15.1631C9.26432 15.84 11.9133 17.0374 14.1409 18.6645Z" fill="#C1BFD9"/>
<path d="M28.871 15.9326V25.0968C25.5047 23.3151 22.4694 21.1497 19.8591 18.6647H19.8603C22.0868 17.0375 24.7356 15.8402 27.6092 15.1635H27.608C27.9063 15.0926 28.2274 15.1399 28.4749 15.2914C28.7237 15.4429 28.8698 15.6798 28.871 15.9326Z" fill="#C1BFD9"/>
<path d="M20.5292 5.51333H13.4708L15.8083 4.03174H15.8095C16.5098 3.58805 17.4902 3.58805 18.1905 4.03272L20.5292 5.51333Z" fill="#C1BFD9"/>
<path d="M6.81695 9.73083V14.4452L6.65999 14.4079H6.66119C6.14684 14.2839 5.59267 14.34 5.13024 14.5613L5.12903 11.5736C5.13024 11.0857 5.40673 10.6252 5.87882 10.3262L6.81695 9.73083Z" fill="#C1BFD9"/>
<path d="M28.871 11.5734V14.5611C28.4074 14.3397 27.8532 14.2846 27.3388 14.4076L27.1819 14.445L27.1831 9.73059L28.1225 10.3248L28.1212 10.3258C28.5933 10.6249 28.8698 11.0854 28.871 11.5734Z" fill="#C1BFD9"/>
<path d="M15.8978 13.7811H17.075L16.4858 12.5435L15.8978 13.7811Z" fill="#C1BFD9"/>
<path d="M24.7419 6.30029H9.25825C8.44448 6.30128 7.78284 6.83941 7.78284 7.50347V14.7019H7.78404C10.3799 15.4486 12.7718 16.6046 14.8196 18.1049C16.1006 17.2893 17.8996 17.2893 19.1805 18.1049C21.2283 16.6046 23.62 15.4486 26.2161 14.7019L26.2173 7.50347C26.2173 6.83941 25.5556 6.30128 24.7419 6.30029ZM21.8441 8.86213H22.3416C22.9815 8.86213 22.9815 9.64917 22.3416 9.64917H21.8441C21.2042 9.65113 21.2042 8.86409 21.8441 8.86409V8.86213ZM13.0761 15.2164C13.0761 15.7368 12.1102 15.7368 12.1102 15.2164V11.8468H11.1443C10.5056 11.8468 10.5056 11.0598 11.1443 11.0598H14.0469C14.6856 11.0598 14.6856 11.8468 14.0469 11.8468H13.0761V15.2164ZM17.8235 15.357L17.4492 14.57H15.5246L15.1479 15.357C14.9161 15.8421 14.0153 15.5577 14.2472 15.0727L16.0341 11.3116C16.1065 11.1601 16.2852 11.0597 16.4844 11.0597C16.6836 11.0597 16.8624 11.1601 16.9348 11.3116L18.7229 15.0737C18.956 15.5597 18.0553 15.844 17.8235 15.357ZM11.6587 9.65108C11.0187 9.65108 11.0187 8.86404 11.6587 8.86404H19.5355C20.1754 8.86404 20.1754 9.65108 19.5355 9.65108H11.6587ZM23.2641 15.007C23.607 15.4497 22.7811 15.8589 22.4467 15.4261L21.4071 14.0743L20.3627 15.4261C20.0283 15.8609 19.2037 15.4516 19.5454 15.007L20.8348 13.3345L19.5454 11.6621C19.2049 11.2194 20.0235 10.8022 20.3627 11.243L21.4071 12.5957L22.4491 11.2439C22.7896 10.8012 23.607 11.2223 23.2665 11.663L21.977 13.3355L23.2641 15.007Z" fill="#C1BFD9"/>
</svg>
