<svg width="32" height="33" viewBox="0 0 32 33" fill="none" xmlns="http://www.w3.org/2000/svg">
<path d="M12.4443 17.7778L14.313 16.6997C14.8738 15.5775 18.2061 8.92199 18.6666 8.00134V8L13.7552 10.8321L12.4443 17.7778Z" fill="#C1BFD9"/>
<path d="M10.286 11.9803C13.383 10.0057 21.5315 4.81174 24.5193 2.90681C24.8881 2.67128 25.0002 2.17558 24.7678 1.80174C24.5355 1.42791 24.0466 1.31425 23.6779 1.54978L23.5009 1.66344C23.2416 1.82913 22.8972 1.72643 22.7675 1.44434C22.1341 0.0694818 20.4714 -0.411169 19.2247 0.384459L2.66675 10.938L3.25159 11.8815L8.38146 12.4279C9.046 12.4991 9.72139 12.3391 10.286 11.9803ZM17.7809 2.3056C18.02 2.1536 18.3347 2.22618 18.4846 2.46855L18.6818 2.78762C18.8318 3.03 18.7602 3.34907 18.5211 3.50107C18.282 3.65307 17.9673 3.5805 17.8174 3.33812L17.6202 3.01906C17.4716 2.77805 17.5432 2.4576 17.7809 2.3056ZM16.2087 3.30935C16.4478 3.15735 16.7625 3.22993 16.9124 3.47231L17.1096 3.79137C17.2596 4.03375 17.188 4.35282 16.9489 4.50483C16.7098 4.65683 16.3951 4.58425 16.2452 4.34187L16.048 4.02281C15.8981 3.78043 15.9697 3.46135 16.2087 3.30935ZM14.6352 4.31174C14.8729 4.15974 15.189 4.23232 15.3389 4.47469L15.5361 4.79376C15.686 5.03614 15.6144 5.35521 15.3754 5.50721C15.1363 5.65921 14.8216 5.58664 14.6717 5.34426L14.4745 5.0252C14.3245 4.78282 14.3975 4.46374 14.6352 4.31174ZM13.063 5.31413C13.3021 5.16213 13.6168 5.2347 13.7667 5.47708L13.9639 5.79614C14.1787 6.14259 13.9288 6.589 13.533 6.589C13.3629 6.589 13.1981 6.50273 13.1008 6.34662L12.9036 6.02756C12.7524 5.78518 12.8239 5.46613 13.063 5.31413ZM11.4895 6.31651C11.7285 6.16451 12.0432 6.23709 12.1932 6.47947L12.3904 6.79853C12.5403 7.04091 12.4687 7.35998 12.2296 7.51199C11.9906 7.66399 11.6759 7.59141 11.5259 7.34903L11.3287 7.02997C11.1788 6.78896 11.2504 6.46851 11.4895 6.31651ZM9.91727 7.32027C10.1563 7.16827 10.4711 7.24084 10.621 7.48322L10.8182 7.80228C10.9681 8.04466 10.8965 8.36374 10.6574 8.51574C10.4184 8.66774 10.1037 8.59516 9.95373 8.35279L9.75654 8.03372C9.60661 7.79134 9.6782 7.47227 9.91727 7.32027ZM8.18301 9.03607C8.03309 8.79369 8.10467 8.47462 8.34374 8.32262C8.58281 8.17062 8.89753 8.2432 9.04746 8.48557L9.24465 8.80464C9.39458 9.04702 9.32299 9.36609 9.08392 9.51809C8.84485 9.67009 8.53014 9.59751 8.38021 9.35514L8.18301 9.03607Z" fill="#C1BFD9"/>
<path d="M26.7849 28.272C26.0528 28.3578 25.4589 28.9789 24.5477 29.1845C23.5789 29.4038 22.6115 29.3098 21.7508 28.9121C21.1967 28.6561 20.7725 28.1808 20.362 28.0596C19.7969 27.8934 19.2249 28.3374 18.5613 29.4569C18.2657 29.9567 17.9168 31.0381 16.8509 31.0381C16.1284 31.0381 15.8055 30.5369 15.592 30.206C14.8025 28.983 13.5683 28.5499 12.226 27.8226C10.2569 26.7576 10.2269 25.4066 11.2052 24.4763C12.0029 23.7177 13.1797 23.493 13.623 22.6949C13.9158 22.1665 14.1074 21.653 14.2428 21.1015C14.641 19.4413 16.0421 19.553 16.9685 19.6265C17.9605 19.7055 18.3874 19.6823 18.6296 19.128C18.8923 18.5288 18.6159 18.2509 17.8196 17.6653C17.6622 17.5495 17.5008 17.4311 17.3489 17.3044C16.8015 16.8468 16.4198 16.1821 16.3035 15.4807C16.272 15.2942 16.2597 15.1144 16.2515 14.94L15.1308 17.3698C15.0884 17.461 15.0214 17.5373 14.9365 17.5904L12.0685 19.3854C11.6909 19.6224 11.2079 19.2996 11.2845 18.8624L12.5556 11.5557L10.655 12.7446C10.3034 12.9653 9.91886 13.1287 9.51932 13.2322C7.94302 15.3609 7.11108 17.886 7.11108 20.5431C7.11108 27.3513 12.6747 32.889 19.5134 32.889C23.0177 32.889 26.1868 31.4344 28.4444 29.1016C27.9751 28.4764 27.4184 28.1985 26.7849 28.272Z" fill="#C1BFD9"/>
<path d="M14.2223 2.16451L9.81505 2.07935L10.0312 1.93145C10.2733 1.76563 10.3458 1.41752 10.1939 1.1531C10.0421 0.888675 9.72339 0.809494 9.48128 0.975322C7.85355 2.09429 7.97527 2.00613 7.9315 2.042L4.42033 1.97328L2.66675 3.18036L9.60993 5.33312L14.2223 2.16451Z" fill="#C1BFD9"/>
<path d="M27.4289 14.2122C27.9595 14.3311 28.3993 14.6721 28.6055 15.1229C29.0371 16.0723 30.3607 16.3022 31.1112 15.5582C30.2123 13.5922 28.7567 11.9039 26.9342 10.6665C26.952 10.7453 26.974 10.8293 26.9988 10.9248C27.2448 11.8574 27.1761 12.1752 26.8393 12.8004C26.805 12.865 26.772 12.927 26.7431 12.9851C26.4985 13.4902 26.8723 14.0869 27.4289 14.2122Z" fill="#C1BFD9"/>
<path d="M1.03534 7.24557C0.716873 7.06427 0.322216 7.06661 0.00624423 7.25259L0 7.2561L1.69224 9.77799L3.55556 8.6808L1.03534 7.24557Z" fill="#C1BFD9"/>
<path d="M31.36 16.6459C30.0256 17.5776 28.0391 17.1014 27.3542 15.548C27.2727 15.3639 27.0968 15.2282 26.8723 15.1769C25.6123 14.8848 24.8987 13.535 25.4278 12.4122C25.5465 12.1589 25.6896 11.9387 25.7325 11.7463C25.8454 11.2313 25.3992 10.5848 25.4879 9.65718C23.7245 8.67424 21.7037 8.08169 19.5557 8C19.999 8.30458 20.531 8.55654 21.0459 8.85003C23.091 10.0185 23.9491 12.1076 23.1825 14.0486C22.5747 15.5895 22.3244 17.81 23.45 19.4216C24.2194 20.5264 25.508 21.2726 27.1083 21.2795C30.0816 21.2795 30.7266 24.0276 31.1971 24.8889C32.1868 22.3055 32.2853 19.383 31.36 16.6459Z" fill="#C1BFD9"/>
<path d="M26.869 22.4683C25.0576 22.4683 23.5196 21.5655 22.5997 20.175C21.519 18.5408 21.3849 16.1982 22.2417 13.9092C22.8598 12.2558 21.8984 10.7681 20.6689 10.0271C20.0642 9.66265 19.4179 9.34896 18.8829 8.88867L17.9685 10.923L18.0181 10.8915C18.2554 10.7394 18.5678 10.812 18.7167 11.0545C18.8655 11.2969 18.7944 11.6161 18.5571 11.7682L17.1976 12.6422L16.8382 13.4422C17.1935 14.1409 17.0648 14.8601 17.1587 15.4381C17.2351 15.9053 17.4818 16.3464 17.8358 16.6505C18.529 17.2464 20.0776 18.0231 19.367 19.6903C18.8172 20.9807 17.6105 20.8821 16.7296 20.8095C15.6596 20.7218 15.2989 20.7561 15.1246 21.5027C14.9704 22.1643 14.7304 22.7876 14.418 23.3643C14.0292 24.0835 13.3668 24.4575 12.7822 24.7863C12.3411 25.0343 11.4924 25.5 11.5594 26.0165C11.6023 26.3452 12.018 26.7658 12.6455 27.1137C14.0788 27.911 15.3821 28.3823 16.3128 29.8604C16.5219 30.1933 16.5662 30.222 16.6949 30.222C17.0355 30.222 17.2165 29.6302 17.498 29.1412C17.8332 28.5604 18.8522 26.7918 20.4223 27.2671C21.0525 27.4576 21.495 27.9754 21.9227 28.1781C22.5609 28.4809 23.2836 28.5507 24.0117 28.3809C24.721 28.2151 25.3378 27.5603 26.3098 27.4439C27.231 27.3329 28.0743 27.711 28.7354 28.5192C29.3146 27.7918 29.8147 26.9959 30.2223 26.1466C29.9501 25.7863 29.7262 25.3767 29.5559 24.9233C28.9016 23.1807 28.1226 22.4683 26.869 22.4683ZM22.577 25.3628C21.743 26.2752 20.3244 26.2807 19.4851 25.367C19.3524 25.2217 19.2102 25.2519 19.1915 25.2491C18.1805 25.2491 17.3854 24.3532 17.498 23.3121C17.6294 22.0998 18.9461 21.3765 20.0188 21.9861C20.6033 21.6601 21.1182 21.7368 21.1987 21.7313C22.9444 21.871 23.7905 24.0342 22.577 25.3628Z" fill="#C1BFD9"/>
<path d="M21.23 22.2265C20.9478 22.199 20.6736 22.3041 20.457 22.5242C20.2655 22.7184 19.986 22.7071 19.8049 22.4983C19.3981 22.0291 18.7314 22.3381 18.6711 23.0097C18.6251 23.5275 18.9532 23.9417 19.3429 23.9417C19.3521 23.9433 19.9138 23.8899 20.3534 24.4676C21.0397 25.3705 22.2903 24.7232 22.2194 23.4611C22.1827 22.8074 21.7575 22.2766 21.23 22.2265Z" fill="#C1BFD9"/>
</svg>
