<svg width="29" height="29" viewBox="0 0 29 29" fill="none" xmlns="http://www.w3.org/2000/svg">
<path d="M11.2778 15.6753L12.9713 14.7247C13.4795 13.7352 16.4994 7.86668 16.9167 7.05489V7.05371L12.4658 9.55097L11.2778 15.6753Z" fill="#C1BFD9"/>
<path d="M9.32165 10.5637C12.1284 8.82255 19.5129 4.24277 22.2206 2.56309C22.5548 2.35541 22.6564 1.91832 22.4458 1.58869C22.2353 1.25906 21.7922 1.15885 21.458 1.36652L21.2977 1.46674C21.0627 1.61284 20.7505 1.52228 20.633 1.27355C20.059 0.0612659 18.5522 -0.36255 17.4224 0.338998L2.41675 9.64464L2.94676 10.4766L7.5957 10.9583C8.19794 11.0211 8.81 10.88 9.32165 10.5637ZM16.1139 2.03297C16.3306 1.89895 16.6158 1.96294 16.7517 2.17666L16.9304 2.45799C17.0663 2.67171 17.0014 2.95306 16.7847 3.08709C16.5681 3.22111 16.2829 3.15712 16.147 2.9434L15.9683 2.66206C15.8336 2.44955 15.8985 2.167 16.1139 2.03297ZM14.6891 2.91804C14.9058 2.78401 15.191 2.848 15.3269 3.06172L15.5056 3.34306C15.6415 3.55678 15.5766 3.83812 15.3599 3.97215C15.1433 4.10618 14.8581 4.04218 14.7222 3.82847L14.5435 3.54713C14.4076 3.33341 14.4725 3.05206 14.6891 2.91804ZM13.2631 3.80189C13.4786 3.66787 13.765 3.73186 13.9009 3.94558L14.0796 4.22692C14.2154 4.44063 14.1506 4.72198 13.9339 4.85601C13.7173 4.99003 13.432 4.92604 13.2962 4.71232L13.1175 4.43099C12.9816 4.21727 13.0477 3.93592 13.2631 3.80189ZM11.8383 4.68575C12.055 4.55173 12.3402 4.61572 12.4761 4.82944L12.6548 5.11077C12.8494 5.41626 12.623 5.80988 12.2643 5.80988C12.1101 5.80988 11.9607 5.73381 11.8726 5.59616L11.6939 5.31482C11.5568 5.10111 11.6217 4.81978 11.8383 4.68575ZM10.4123 5.56961C10.629 5.43559 10.9142 5.49958 11.0501 5.7133L11.2288 5.99463C11.3646 6.20835 11.2998 6.4897 11.0831 6.62373C10.8664 6.75775 10.5812 6.69376 10.4454 6.48004L10.2667 6.1987C10.1308 5.98619 10.1957 5.70364 10.4123 5.56961ZM8.98752 6.45468C9.20418 6.32065 9.48939 6.38464 9.62526 6.59836L9.80397 6.8797C9.93984 7.09342 9.87496 7.37476 9.65831 7.50879C9.44165 7.64282 9.15644 7.57882 9.02057 7.36511L8.84186 7.08377C8.70599 6.87005 8.77086 6.5887 8.98752 6.45468ZM7.41585 7.9676C7.27999 7.75388 7.34486 7.47253 7.56151 7.3385C7.77817 7.20448 8.06338 7.26847 8.19925 7.48219L8.37796 7.76352C8.51383 7.97724 8.44896 8.25859 8.2323 8.39262C8.01565 8.52664 7.73043 8.46265 7.59456 8.24893L7.41585 7.9676Z" fill="#C1BFD9"/>
<path d="M24.2735 24.9289C23.6101 25.0046 23.0719 25.5522 22.2461 25.7335C21.3682 25.9269 20.4915 25.844 19.7114 25.4934C19.2092 25.2676 18.8248 24.8485 18.4528 24.7416C17.9407 24.5951 17.4224 24.9866 16.8209 25.9737C16.5531 26.4144 16.2369 27.368 15.2709 27.368C14.6162 27.368 14.3235 26.926 14.1301 26.6342C13.4146 25.5558 12.2961 25.1739 11.0796 24.5327C9.29514 23.5936 9.26787 22.4023 10.1545 21.5821C10.8774 20.9132 11.9438 20.715 12.3456 20.0113C12.611 19.5454 12.7846 19.0926 12.9073 18.6063C13.2682 17.1424 14.538 17.2409 15.3775 17.3057C16.2765 17.3753 16.6634 17.3549 16.8829 16.8662C17.121 16.3378 16.8705 16.0928 16.1488 15.5764C16.0062 15.4743 15.8598 15.3699 15.7222 15.2582C15.2262 14.8547 14.8802 14.2686 14.7748 13.6502C14.7463 13.4856 14.7351 13.3271 14.7277 13.1734L13.7121 15.3158C13.6736 15.3963 13.6129 15.4635 13.536 15.5104L10.9369 17.0931C10.5946 17.3021 10.1569 17.0175 10.2263 16.632L11.3783 10.1892L9.65591 11.2376C9.33723 11.4321 8.98876 11.5763 8.62668 11.6675C7.19816 13.5445 6.44421 15.7711 6.44421 18.114C6.44421 24.1171 11.4863 29 17.6838 29C20.8596 29 23.7316 27.7174 25.7775 25.6604C25.3522 25.1092 24.8477 24.8641 24.2735 24.9289Z" fill="#C1BFD9"/>
<path d="M12.889 1.90891L8.89489 1.83383L9.09075 1.70341C9.31016 1.5572 9.37586 1.25025 9.23826 1.0171C9.10066 0.783939 8.81182 0.71412 8.59241 0.86034C7.11728 1.84699 7.22759 1.76926 7.18792 1.80089L4.00593 1.7403L2.41675 2.80464L8.709 4.70284L12.889 1.90891Z" fill="#C1BFD9"/>
<path d="M24.8575 12.5317C25.3383 12.6365 25.7369 12.9372 25.9237 13.3347C26.3149 14.1719 27.5144 14.3746 28.1945 13.7185C27.3799 11.985 26.0608 10.4963 24.4091 9.40527C24.4253 9.47475 24.4452 9.54878 24.4676 9.63307C24.6906 10.4554 24.6283 10.7356 24.3231 11.2869C24.292 11.3438 24.2621 11.3985 24.236 11.4497C24.0142 11.895 24.353 12.4213 24.8575 12.5317Z" fill="#C1BFD9"/>
<path d="M0.938271 6.38888C0.649665 6.22901 0.292008 6.23108 0.00565883 6.39507L0 6.39816L1.53359 8.62185L3.22222 7.6544L0.938271 6.38888Z" fill="#C1BFD9"/>
<path d="M28.4198 14.6772C27.2106 15.4988 25.4103 15.0789 24.7896 13.7092C24.7157 13.5468 24.5563 13.4272 24.3528 13.382C23.211 13.1244 22.5643 11.9342 23.0438 10.9442C23.1514 10.7208 23.281 10.5267 23.3199 10.357C23.4223 9.90292 23.0179 9.33284 23.0982 8.51494C21.5002 7.64823 19.6688 7.12574 17.7222 7.05371C18.1239 7.32227 18.6061 7.54444 19.0727 7.80323C20.9261 8.83354 21.7037 10.6756 21.009 12.3871C20.4582 13.7458 20.2313 15.7038 21.2514 17.1247C21.9487 18.0989 23.1164 18.7569 24.5667 18.763C27.2613 18.763 27.8458 21.1861 28.2722 21.9456C29.1691 19.6677 29.2584 17.0907 28.4198 14.6772Z" fill="#C1BFD9"/>
<path d="M24.3499 19.8115C22.7083 19.8115 21.3145 19.0155 20.4808 17.7895C19.5014 16.3484 19.3799 14.2828 20.1563 12.2645C20.7165 10.8066 19.8453 9.49481 18.731 8.84142C18.183 8.52011 17.5973 8.2435 17.1125 7.83765L16.2838 9.6314L16.3287 9.60362C16.5438 9.46954 16.827 9.53356 16.9618 9.74736C17.0967 9.96115 17.0323 10.2426 16.8172 10.3767L15.5851 11.1473L15.2595 11.8527C15.5815 12.4688 15.4648 13.1029 15.5499 13.6127C15.6191 14.0246 15.8427 14.4135 16.1635 14.6817C16.7917 15.2071 18.1952 15.892 17.5512 17.362C17.053 18.4999 15.9594 18.4129 15.161 18.3489C14.1914 18.2716 13.8645 18.3018 13.7065 18.9601C13.5668 19.5435 13.3493 20.0931 13.0662 20.6016C12.7138 21.2358 12.1135 21.5656 11.5837 21.8555C11.184 22.0741 10.4148 22.4848 10.4756 22.9402C10.5144 23.23 10.8911 23.6009 11.4598 23.9077C12.7588 24.6107 13.9399 25.0262 14.7833 26.3295C14.9728 26.6231 15.0129 26.6484 15.1296 26.6484C15.4382 26.6484 15.6023 26.1266 15.8574 25.6954C16.1612 25.1832 17.0847 23.6238 18.5076 24.0429C19.0787 24.2108 19.4797 24.6674 19.8673 24.8462C20.4457 25.1132 21.1006 25.1748 21.7604 25.025C22.4032 24.8788 22.9622 24.3015 23.8431 24.1988C24.6779 24.1009 25.4422 24.4343 26.0413 25.147C26.5662 24.5056 27.0194 23.8038 27.3888 23.0549C27.1421 22.7372 26.9392 22.376 26.7849 21.9762C26.1919 20.4397 25.486 19.8115 24.3499 19.8115ZM20.4603 22.3638C19.7045 23.1683 18.4189 23.1731 17.6582 22.3674C17.5379 22.2394 17.4091 22.266 17.3921 22.2636C16.4759 22.2636 15.7554 21.4736 15.8574 20.5556C15.9765 19.4866 17.1697 18.8488 18.1418 19.3863C18.6716 19.0989 19.1382 19.1665 19.2111 19.1617C20.7932 19.2849 21.5599 21.1923 20.4603 22.3638Z" fill="#C1BFD9"/>
<path d="M19.2397 19.5975C18.984 19.5733 18.7354 19.666 18.5392 19.8601C18.3656 20.0313 18.1123 20.0213 17.9482 19.8372C17.5795 19.4235 16.9754 19.696 16.9207 20.2881C16.879 20.7447 17.1763 21.1099 17.5295 21.1099C17.5379 21.1114 18.0469 21.0643 18.4452 21.5736C19.0672 22.3698 20.2006 21.7991 20.1363 20.6862C20.103 20.1098 19.7177 19.6418 19.2397 19.5975Z" fill="#C1BFD9"/>
</svg>
