<svg width="29" height="29" viewBox="0 0 29 29" fill="none" xmlns="http://www.w3.org/2000/svg">
<path d="M10.973 15.6758L12.6207 14.7252C13.1151 13.7357 16.0534 7.86717 16.4595 7.05538V7.0542L12.1288 9.55145L10.973 15.6758Z" fill="#C1BFD9"/>
<path d="M9.06968 10.5637C11.8006 8.82253 18.9855 4.24276 21.6201 2.56308C21.9452 2.3554 22.044 1.91832 21.8392 1.58869C21.6343 1.25906 21.2032 1.15885 20.8781 1.36652L20.7221 1.46674C20.4934 1.61284 20.1897 1.52228 20.0754 1.27355C19.5168 0.0612657 18.0507 -0.362549 16.9515 0.338997L2.35138 9.64461L2.86707 10.4765L7.39037 10.9583C7.97633 11.0211 8.57186 10.88 9.06968 10.5637ZM15.6784 2.03297C15.8892 1.89894 16.1667 1.96293 16.2989 2.17665L16.4728 2.45799C16.605 2.6717 16.5419 2.95305 16.3311 3.08708C16.1203 3.2211 15.8428 3.15711 15.7106 2.94339L15.5367 2.66206C15.4057 2.44955 15.4688 2.16699 15.6784 2.03297ZM14.2921 2.91803C14.5029 2.784 14.7804 2.848 14.9126 3.06171L15.0865 3.34305C15.2187 3.55677 15.1556 3.83811 14.9448 3.97214C14.734 4.10617 14.4565 4.04217 14.3243 3.82845L14.1504 3.54712C14.0182 3.3334 14.0813 3.05205 14.2921 2.91803ZM12.9046 3.80188C13.1143 3.66786 13.3929 3.73185 13.5251 3.94557L13.699 4.2269C13.8312 4.44062 13.7681 4.72197 13.5573 4.85599C13.3465 4.99002 13.069 4.92602 12.9368 4.71231L12.7629 4.43097C12.6307 4.21726 12.695 3.93591 12.9046 3.80188ZM11.5183 4.68574C11.7292 4.55171 12.0067 4.61571 12.1389 4.82942L12.3127 5.11076C12.5021 5.41624 12.2818 5.80986 11.9328 5.80986C11.7828 5.80986 11.6375 5.73379 11.5517 5.59614L11.3778 5.31481C11.2444 5.10109 11.3075 4.81977 11.5183 4.68574ZM10.1309 5.56959C10.3417 5.43557 10.6192 5.49956 10.7514 5.71328L10.9253 5.99461C11.0575 6.20833 10.9943 6.48968 10.7835 6.62371C10.5727 6.75773 10.2952 6.69374 10.163 6.48002L9.98915 6.19869C9.85695 5.98618 9.92007 5.70362 10.1309 5.56959ZM8.74458 6.45466C8.95538 6.32063 9.23289 6.38462 9.36508 6.59834L9.53897 6.87968C9.67116 7.09339 9.60804 7.37474 9.39724 7.50877C9.18644 7.64279 8.90893 7.5788 8.77673 7.36508L8.60286 7.08375C8.47066 6.87003 8.53378 6.58868 8.74458 6.45466ZM7.21539 7.96757C7.08319 7.75385 7.14631 7.47251 7.35711 7.33848C7.56791 7.20446 7.84542 7.26845 7.97762 7.48217L8.1515 7.7635C8.28369 7.97722 8.22057 8.25856 8.00977 8.39259C7.79897 8.52662 7.52147 8.46262 7.38927 8.24891L7.21539 7.96757Z" fill="#C1BFD9"/>
<path d="M23.6178 24.9291C22.9723 25.0048 22.4486 25.5524 21.6451 25.7337C20.7909 25.9271 19.9379 25.8442 19.179 25.4935C18.6903 25.2678 18.3163 24.8487 17.9544 24.7418C17.4561 24.5953 16.9517 24.9868 16.3666 25.9739C16.106 26.4146 15.7983 27.3681 14.8584 27.3681C14.2214 27.3681 13.9366 26.9262 13.7484 26.6344C13.0522 25.556 11.964 25.1741 10.7803 24.5329C9.04415 23.5938 9.01762 22.4025 9.88026 21.5823C10.5837 20.9134 11.6213 20.7152 12.0122 20.0115C12.2704 19.5456 12.4393 19.0928 12.5587 18.6065C12.9098 17.1426 14.1453 17.2411 14.9621 17.3059C15.8368 17.3756 16.2133 17.3552 16.4268 16.8664C16.6585 16.338 16.4148 16.093 15.7126 15.5766C15.5738 15.4746 15.4314 15.3701 15.2975 15.2584C14.8149 14.8549 14.4783 14.2688 14.3757 13.6504C14.348 13.4859 14.3371 13.3274 14.3299 13.1736L13.3417 15.316C13.3043 15.3965 13.2452 15.4637 13.1704 15.5106L10.6415 17.0933C10.3085 17.3023 9.88263 17.0177 9.95018 16.6322L11.071 10.1895L9.39517 11.2378C9.08509 11.4324 8.74605 11.5765 8.39375 11.6677C7.00383 13.5447 6.27026 15.7713 6.27026 18.1142C6.27026 24.1173 11.1761 29.0002 17.2061 29.0002C20.2961 29.0002 23.0904 27.7176 25.0811 25.6606C24.6673 25.1094 24.1764 24.8643 23.6178 24.9291Z" fill="#C1BFD9"/>
<path d="M12.5406 1.90842L8.65445 1.83333L8.84502 1.70292C9.05851 1.55671 9.12243 1.24976 8.98855 1.01661C8.85467 0.78345 8.57363 0.713632 8.36015 0.859852C6.92488 1.8465 7.03221 1.76877 6.99361 1.8004L3.89762 1.7398L2.35138 2.80415L8.47359 4.70234L12.5406 1.90842Z" fill="#C1BFD9"/>
<path d="M24.1857 12.532C24.6535 12.6368 25.0413 12.9374 25.2231 13.3349C25.6037 14.1721 26.7708 14.3748 27.4325 13.7188C26.6399 11.9853 25.3564 10.4966 23.7494 9.40552C23.7652 9.47499 23.7846 9.54903 23.8064 9.63331C24.0233 10.4556 23.9627 10.7358 23.6658 11.2871C23.6355 11.344 23.6064 11.3987 23.5809 11.45C23.3652 11.8953 23.6948 12.4215 24.1857 12.532Z" fill="#C1BFD9"/>
<path d="M0.912915 6.38912C0.632108 6.22926 0.284117 6.23132 0.0055059 6.39531L0 6.39841L1.49214 8.62209L3.13514 7.65464L0.912915 6.38912Z" fill="#C1BFD9"/>
<path d="M27.6518 14.6777C26.4752 15.4993 24.7236 15.0793 24.1197 13.7096C24.0478 13.5473 23.8927 13.4277 23.6947 13.3825C22.5837 13.1249 21.9545 11.9347 22.4211 10.9447C22.5257 10.7213 22.6518 10.5272 22.6897 10.3575C22.7893 9.90339 22.3958 9.33332 22.474 8.51542C20.9191 7.64871 19.1373 7.12623 17.2432 7.0542C17.6341 7.32276 18.1033 7.54493 18.5572 7.80372C20.3605 8.83402 21.1172 10.6761 20.4412 12.3876C19.9053 13.7463 19.6846 15.7042 20.677 17.1252C21.3555 18.0993 22.4917 18.7573 23.9028 18.7634C26.5245 18.7634 27.0933 21.1866 27.5082 21.946C28.3808 19.6681 28.4677 17.0912 27.6518 14.6777Z" fill="#C1BFD9"/>
<path d="M23.6918 19.8115C22.0946 19.8115 20.7385 19.0155 19.9273 17.7894C18.9744 16.3484 18.8561 14.2828 19.6116 12.2645C20.1566 10.8066 19.309 9.49481 18.2248 8.84142C17.6916 8.5201 17.1218 8.2435 16.65 7.83765L15.8437 9.63139L15.8875 9.60361C16.0967 9.46953 16.3722 9.53355 16.5034 9.74735C16.6347 9.96115 16.572 10.2426 16.3627 10.3767L15.1639 11.1473L14.8471 11.8527C15.1604 12.4688 15.0469 13.1029 15.1296 13.6126C15.197 14.0245 15.4146 14.4135 15.7267 14.6816C16.3379 15.2071 17.7034 15.892 17.0768 17.362C16.5921 18.4998 15.5281 18.4129 14.7513 18.3488C13.8078 18.2715 13.4898 18.3017 13.3361 18.9601C13.2002 19.5435 12.9885 20.0931 12.7131 20.6016C12.3702 21.2358 11.7862 21.5655 11.2707 21.8554C10.8817 22.074 10.1333 22.4847 10.1925 22.9401C10.2303 23.23 10.5968 23.6008 11.1501 23.9076C12.414 24.6106 13.5631 25.0262 14.3838 26.3295C14.5682 26.623 14.6072 26.6483 14.7207 26.6483C15.021 26.6483 15.1806 26.1265 15.4289 25.6953C15.7244 25.1832 16.623 23.6238 18.0074 24.0429C18.5631 24.2108 18.9532 24.6674 19.3304 24.8462C19.8931 25.1131 20.5304 25.1747 21.1723 25.0249C21.7978 24.8788 22.3416 24.3014 23.1988 24.1987C24.011 24.1009 24.7546 24.4343 25.3375 25.1469C25.8482 24.5055 26.2892 23.8037 26.6486 23.0548C26.4086 22.7372 26.2112 22.376 26.061 21.9762C25.4841 20.4397 24.7972 19.8115 23.6918 19.8115ZM19.9073 22.3638C19.1719 23.1683 17.9211 23.1731 17.181 22.3674C17.0639 22.2394 16.9386 22.2659 16.9221 22.2635C16.0306 22.2635 15.3296 21.4735 15.4289 20.5556C15.5447 19.4866 16.7057 18.8488 17.6516 19.3863C18.167 19.0988 18.621 19.1665 18.692 19.1616C20.2313 19.2849 20.9773 21.1922 19.9073 22.3638Z" fill="#C1BFD9"/>
<path d="M18.7197 19.5983C18.4709 19.574 18.2291 19.6668 18.0381 19.8608C17.8692 20.032 17.6228 20.022 17.4631 19.838C17.1044 19.4242 16.5166 19.6967 16.4633 20.2888C16.4228 20.7454 16.7121 21.1107 17.0558 21.1107C17.0639 21.1121 17.5591 21.065 17.9467 21.5744C18.5519 22.3705 19.6546 21.7998 19.5921 20.6869C19.5597 20.1105 19.1848 19.6425 18.7197 19.5983Z" fill="#C1BFD9"/>
</svg>
