<svg width="100" height="100" viewBox="0 0 100 100" fill="none" xmlns="http://www.w3.org/2000/svg">
<path d="M50 0C22.43 0 0 22.43 0 50C0 77.57 22.43 100 50 100C77.57 100 100 77.57 100 50C100 22.43 77.57 0 50 0ZM50 96.1522C24.5522 96.1522 3.84778 75.4478 3.84778 50C3.84778 24.5522 24.5522 3.84778 50 3.84778C75.4478 3.84778 96.1522 24.5522 96.1522 50C96.1522 75.4478 75.4478 96.1522 50 96.1522Z" fill="#78A55A"/>
<path d="M50.0033 55.3277C60.6656 55.3277 67.9145 46.6799 67.9145 36.0144C67.9145 25.3466 60.6656 16.7021 50.0033 16.7021C39.3345 16.7021 32.0856 25.3466 32.0856 36.0144C32.0856 46.6799 39.3345 55.3277 50.0033 55.3277Z" fill="#78A55A"/>
<path d="M64.4689 54.0601C60.6445 57.4945 55.6378 59.5245 50.0022 59.5245C44.3645 59.5245 39.3545 57.4945 35.53 54.0601C26.4334 59.0345 20.1534 68.4778 19.6778 79.4589C27.3711 87.3745 38.1178 92.3078 50 92.3078C61.8822 92.3078 72.6289 87.3745 80.3245 79.4601C79.8489 68.4778 73.5656 59.0345 64.4689 54.0601Z" fill="#78A55A"/>
</svg>
