<svg width="26" height="26" viewBox="0 0 26 26" fill="none" xmlns="http://www.w3.org/2000/svg">
<path d="M26 11.92V14.0654C26 14.3643 25.8316 14.6243 25.5583 14.7414L23.2056 15.703C23.0104 16.4181 22.737 17.1198 22.399 17.7837L19.396 14.7805C19.5522 14.2216 19.6425 13.6236 19.6425 12.9988C19.6425 9.33311 16.665 6.35531 12.9992 6.35531C11.8815 6.35531 10.8284 6.62866 9.89246 7.12287H9.87904C8.72224 7.75989 7.76068 8.72149 7.13591 9.89177C6.64171 10.8278 6.36838 11.8809 6.36838 12.9987C6.36838 16.6522 9.33239 19.6288 12.9982 19.6288C13.6217 19.6288 14.2196 19.5372 14.7919 19.3823L17.795 22.3855C17.1324 22.7369 16.4295 22.9968 15.7023 23.1921L14.7407 25.5448C14.637 25.8182 14.3637 26 14.0781 26H11.9329C11.6339 26 11.374 25.8182 11.2569 25.5448L10.2953 23.1921C9.37278 22.9456 8.50151 22.5941 7.70836 22.1255L5.35571 23.1005C5.0958 23.2177 4.78342 23.153 4.57596 22.9443L3.05552 21.4238C2.84807 21.2164 2.78218 20.904 2.89932 20.6306L3.87431 18.29C3.40573 17.4834 3.04208 16.6133 2.80779 15.703L0.455147 14.7414C0.181809 14.6242 0 14.3643 0 14.0653V11.92C0 11.621 0.181818 11.3611 0.455147 11.2439L2.80779 10.2823C3.04208 9.37198 3.40573 8.5007 3.87431 7.6953L2.89932 5.35473C2.78218 5.08138 2.84685 4.7702 3.05552 4.56152L4.57596 3.041C4.78341 2.83355 5.09581 2.76765 5.35571 2.8848L7.70836 3.87327C8.50154 3.40467 9.37278 3.041 10.2953 2.79452L11.2569 0.441765C11.374 0.168415 11.6339 0 11.9329 0H14.0781C14.3636 0 14.637 0.168403 14.7407 0.441765L15.7023 2.79452C16.6248 3.04102 17.4961 3.40588 18.3026 3.87327L20.6431 2.8848C20.9164 2.76765 21.2276 2.83233 21.4363 3.041L22.9567 4.56152C23.1642 4.76897 23.2166 5.08138 23.1129 5.35473L22.1245 7.6953C22.5931 8.50192 22.9567 9.37201 23.2032 10.2823L25.5558 11.2439C25.8292 11.3611 25.9976 11.621 25.9976 11.92L26 11.92ZM24.2965 21.5276L22.9054 20.1364L18.8628 16.1059L17.9403 15.1699C18.1356 14.7281 18.2783 14.2473 18.343 13.7397C18.3821 13.5054 18.3955 13.2455 18.3955 12.9989C18.3955 10.0092 15.9769 7.60378 13.0006 7.60378C12.2208 7.60378 11.4924 7.75998 10.8297 8.05895L11.2983 8.52755L14.3795 11.621L11.6229 14.3777L8.0611 10.8157C7.76213 11.4784 7.60595 12.2203 7.60595 13.0001C7.60595 15.9776 10.0245 18.3818 13.0009 18.3818C13.2474 18.3818 13.4951 18.3684 13.7416 18.3293C14.248 18.2647 14.73 18.1219 15.1717 17.9266L16.1076 18.8492L21.5416 24.2834C21.9187 24.6739 22.4251 24.8557 22.9193 24.8557C23.4135 24.8557 23.9199 24.6739 24.297 24.2834C25.0645 23.5292 25.0645 22.2943 24.297 21.5267L24.2965 21.5276Z" fill="#C1BFD9"/>
</svg>
