<svg width="16" height="17" viewBox="0 0 16 17" fill="none" xmlns="http://www.w3.org/2000/svg">
<path d="M7.56002 16.6089C6.90002 16.4249 6.48002 15.8361 6.48002 15.2105V14.7321C6.48002 14.7321 6.48002 14.7137 6.50002 14.7137H9.66002V15.2289C9.64002 16.1857 8.64002 16.9217 7.56002 16.6089Z" fill="#C1BFD9"/>
<path d="M14.78 14.3825H1.34002C0.760018 14.3825 0.300018 13.9593 0.300018 13.4257V13.2601C0.300018 13.0025 0.400018 12.7633 0.600018 12.5793L2.00002 11.3281V7.26172C2.00002 4.79612 3.68002 2.71692 6.20002 1.98092C6.22002 1.98092 6.22002 1.96252 6.22002 1.94412V1.79692C6.22002 1.24492 6.50002 0.71132 7.00002 0.41692C8.36002 -0.392681 9.86002 0.58252 9.86002 1.79692V1.94412C12.4 2.68012 14.1 4.75932 14.1 7.24332V11.3281L15.5 12.5977C15.7 12.7817 15.8 13.0209 15.8 13.2785V13.4441C15.82 13.9593 15.36 14.3825 14.78 14.3825Z" fill="#C1BFD9"/>
</svg>
