<svg width="26" height="26" viewBox="0 0 26 26" fill="none" xmlns="http://www.w3.org/2000/svg">
<g clip-path="url(#clip0_700_11)">
<path fill-rule="evenodd" clip-rule="evenodd" d="M20.8647 3.2611C20.8647 3.3056 20.8393 3.34247 20.7987 3.36027L13.0394 6.51585C13.0127 6.52602 12.986 6.52602 12.9594 6.51585L5.2 3.36027C5.15937 3.34374 5.13398 3.30687 5.13398 3.2611C5.13398 3.2166 5.15937 3.17973 5.2 3.16321L12.9594 0.00762832C12.986 -0.00254277 13.0127 -0.00254277 13.0394 0.00762832L20.7987 3.16321C20.8393 3.17974 20.8647 3.2166 20.8647 3.2611ZM9.34251 5.84583C9.20794 6.24633 9.14066 6.6646 9.14066 7.08671C9.14066 9.22137 10.8685 10.953 13.0013 10.953C15.1329 10.953 16.862 9.22267 16.862 7.08671C16.862 6.66333 16.7947 6.24633 16.6602 5.84583L13.1424 7.27613C13.0497 7.31427 12.9494 7.31173 12.8643 7.27613L9.34251 5.84583ZM21.191 19.1903H15.5656C14.6744 19.1903 13.9724 19.5755 13.476 20.1553C13.2855 20.3765 13.1281 20.6257 12.9999 20.8939C12.873 20.627 12.7143 20.3765 12.5251 20.1553C12.0287 19.5755 11.3254 19.1903 10.4355 19.1903H4.81003C5.03728 17.0124 5.91578 15.3875 7.15614 14.2369C10.335 11.2911 15.6659 11.2911 18.8448 14.2369C20.0851 15.3862 20.9638 17.0111 21.191 19.1903ZM24.3077 23.4674V22.7846L15.0465 22.7859C14.8409 22.7859 14.6746 22.6193 14.6746 22.4134C14.6746 22.2074 14.8409 22.0409 15.0465 22.0409H24.3077V21.3581L16.1509 21.3594C15.9452 21.3594 15.7802 21.1929 15.7802 20.9869C15.7802 20.7809 15.9465 20.6144 16.1509 20.6144H24.3077V20.3055C24.3077 20.1936 24.2696 20.0957 24.2074 20.0257C24.1579 19.9685 24.0919 19.9342 24.0233 19.9342L15.5659 19.9329C14.9146 19.9329 14.4017 20.2139 14.0386 20.6373C13.6006 21.1484 13.3721 21.8629 13.3721 22.5533H12.6294C12.6294 21.8642 12.4009 21.1484 11.9617 20.6373C11.5998 20.2139 11.087 19.9329 10.4357 19.9329H1.97561C1.90705 19.9329 1.84104 19.9685 1.79153 20.0245C1.73059 20.0944 1.6925 20.1936 1.6925 20.3042V20.6131H9.84935C10.055 20.6131 10.2213 20.7797 10.2213 20.9856C10.2213 21.1916 10.055 21.3581 9.84935 21.3581L1.6925 21.3594V22.0422H10.9537C11.1581 22.0422 11.3244 22.2087 11.3244 22.4147C11.3244 22.6206 11.1581 22.7872 10.9537 22.7872L1.6925 22.7859V23.4687L24.3077 23.4674ZM0 24.2112H26V26H0V24.2112ZM19.825 7.62982L19.5178 10.7511C19.5152 10.7816 19.5241 10.8096 19.5444 10.8324C19.566 10.8553 19.5927 10.8668 19.6231 10.8668H21.4678C21.4995 10.8668 21.5262 10.8553 21.5465 10.8324C21.5668 10.8096 21.5757 10.7816 21.5732 10.7511L21.2672 7.62982C21.2621 7.57515 21.2164 7.5332 21.1618 7.5332H20.9168L20.9181 4.11441L20.1754 4.417V7.53443H19.9304C19.8758 7.53443 19.8301 7.57515 19.825 7.62982Z" fill="#C1BFD9"/>
</g>
<defs>
<clipPath id="clip0_700_11">
<rect width="26" height="26" fill="white"/>
</clipPath>
</defs>
</svg>
