<svg width="15" height="15" viewBox="0 0 15 15" fill="none" xmlns="http://www.w3.org/2000/svg">
<g clip-path="url(#clip0_547_14)">
<path d="M0 2.82803C0 2.33323 0.15356 1.8587 0.426898 1.50883C0.700235 1.15896 1.07096 0.962402 1.45752 0.962402H13.5425C13.929 0.962402 14.2998 1.15896 14.5731 1.50883C14.8464 1.8587 15 2.33323 15 2.82803V12.3718C15 12.8666 14.8464 13.3411 14.5731 13.691C14.2998 14.0408 13.929 14.2374 13.5425 14.2374H1.45752C1.07096 14.2374 0.700235 14.0408 0.426898 13.691C0.15356 13.3411 0 12.8666 0 12.3718V2.82803ZM1.86621 3.5244L7.25713 8.2374H7.25918C7.26959 8.24635 7.28034 8.25461 7.29141 8.26215L7.2999 8.26778C7.31162 8.27548 7.32364 8.28236 7.33594 8.2884C7.34879 8.29447 7.36189 8.2996 7.3752 8.30378H7.37871C7.39194 8.30786 7.40534 8.31099 7.41885 8.31315C7.42061 8.31315 7.42236 8.30828 7.42412 8.30865C7.43762 8.30886 7.45112 8.30811 7.46455 8.3064C7.47779 8.30808 7.49109 8.30883 7.50439 8.30865C7.50615 8.30865 7.50791 8.3109 7.50967 8.31053C7.52296 8.30884 7.53616 8.30621 7.54922 8.30265H7.55303C7.56623 8.29859 7.57923 8.29359 7.59199 8.28765C7.60407 8.28184 7.61591 8.2752 7.62744 8.26778L7.63623 8.26215C7.64648 8.25503 7.65674 8.24753 7.66553 8.2389H7.66729L7.66963 8.23703L13.1303 3.5874C13.1703 3.55328 13.2047 3.50939 13.2315 3.45825C13.2583 3.40711 13.2769 3.34972 13.2864 3.28936C13.2958 3.229 13.2959 3.16684 13.2866 3.10644C13.2773 3.04604 13.2587 2.98858 13.2321 2.93734C13.2054 2.8861 13.1711 2.84208 13.1312 2.8078C13.0912 2.77352 13.0464 2.74965 12.9992 2.73755C12.9521 2.72545 12.9035 2.72536 12.8563 2.73728C12.8091 2.7492 12.7643 2.7729 12.7242 2.80703L7.46895 7.28865L2.2793 2.75115C2.19911 2.68554 2.10211 2.66247 2.00886 2.68682C1.91561 2.71118 1.83343 2.78104 1.77973 2.88161C1.72602 2.98219 1.70502 3.10557 1.72116 3.22562C1.73731 3.34568 1.78933 3.45297 1.86621 3.52478V3.5244Z" fill="#C1BFD9"/>
</g>
<defs>
<clipPath id="clip0_547_14">
<rect width="15" height="15" fill="white" transform="matrix(-1 0 0 1 15 0)"/>
</clipPath>
</defs>
</svg>
