<svg width="26" height="7" viewBox="0 0 26 7" fill="none" xmlns="http://www.w3.org/2000/svg">
<g clip-path="url(#clip0_705_92)">
<path d="M3.24995 6.29995C4.78846 6.29995 6.03566 5.04635 6.03566 3.49995C6.03566 1.95355 4.78846 0.699951 3.24995 0.699951C1.71144 0.699951 0.464233 1.95355 0.464233 3.49995C0.464233 5.04635 1.71144 6.29995 3.24995 6.29995Z" fill="#C1BFD9"/>
<path d="M12.9999 6.29995C14.5385 6.29995 15.7857 5.04635 15.7857 3.49995C15.7857 1.95355 14.5385 0.699951 12.9999 0.699951C11.4614 0.699951 10.2142 1.95355 10.2142 3.49995C10.2142 5.04635 11.4614 6.29995 12.9999 6.29995Z" fill="#C1BFD9"/>
<path d="M22.7499 6.29995C24.2885 6.29995 25.5357 5.04635 25.5357 3.49995C25.5357 1.95355 24.2885 0.699951 22.7499 0.699951C21.2114 0.699951 19.9642 1.95355 19.9642 3.49995C19.9642 5.04635 21.2114 6.29995 22.7499 6.29995Z" fill="#C1BFD9"/>
</g>
<defs>
<clipPath id="clip0_705_92">
<rect width="26" height="7" fill="white"/>
</clipPath>
</defs>
</svg>
