<svg width="26" height="26" viewBox="0 0 26 26" fill="none" xmlns="http://www.w3.org/2000/svg">
<g clip-path="url(#clip0_704_88)">
<path fill-rule="evenodd" clip-rule="evenodd" d="M2.83679 3.2131H3.73908V4.33949C3.73908 5.37141 4.57415 6.21337 5.59764 6.21337C6.62113 6.21337 7.45621 5.37141 7.45621 4.33949V3.2131H9.08055V4.33949C9.08055 5.37141 9.91563 6.21337 10.9391 6.21337C11.9626 6.21337 12.7977 5.37141 12.7977 4.33949V3.2131H14.422V4.33949C14.422 5.37141 15.2571 6.21337 16.2806 6.21337C17.3041 6.21337 18.1392 5.37141 18.1392 4.33949V3.2131H19.0414C20.2706 3.2131 21.2768 4.22757 21.2768 5.46688V7.21241H0.601318V5.46688C0.601318 4.22757 1.60658 3.2131 2.83679 3.2131ZM15.8712 21.1078C15.8712 18.4454 18.0118 16.2871 20.6526 16.2871C23.2933 16.2871 25.434 18.4453 25.434 21.1078C25.434 23.7703 23.2933 25.9286 20.6526 25.9286C18.0118 25.9286 15.8712 23.7703 15.8712 21.1078ZM18.788 23.947H20.3166V24.7325C20.3166 24.9193 20.4673 25.0713 20.6527 25.0713C20.838 25.0713 20.9888 24.9193 20.9888 24.7325V23.947H21.278C22.1457 23.947 22.8535 23.2323 22.8535 22.3585C22.8535 21.4858 22.1426 20.7701 21.2749 20.7701H20.9888V18.9486H22.5174C22.7027 18.9486 22.8535 18.7966 22.8535 18.6097C22.8535 18.4228 22.7027 18.2709 22.5174 18.2709H20.9888V17.4854C20.9888 17.2975 20.838 17.1465 20.6527 17.1465C20.4673 17.1465 20.3166 17.2985 20.3166 17.4854V18.2709H20.0274C19.1597 18.2709 18.4519 18.9855 18.4519 19.8593C18.4519 20.7341 19.1607 21.4477 20.0274 21.4477H20.3166V23.2693H18.788C18.6026 23.2693 18.4519 23.4212 18.4519 23.6081C18.4519 23.795 18.6026 23.947 18.788 23.947ZM20.9887 23.2683C21.3452 23.2683 21.6242 23.2939 21.9155 23.0003C22.4868 22.4243 22.0754 21.4468 21.2749 21.4468H20.9887V23.2683ZM20.0274 20.7691H20.3166V18.9476C19.9602 18.9476 19.6811 18.9219 19.3899 19.2155C18.8165 19.7946 19.2361 20.7691 20.0274 20.7691ZM16.2818 0.891602C15.629 0.891602 15.0953 1.42964 15.0953 2.08781V4.33954C15.0953 4.99771 15.629 5.53575 16.2818 5.53575C16.9346 5.53575 17.4682 4.99771 17.4682 4.33954V2.08781C17.4682 1.42964 16.9346 0.891602 16.2818 0.891602ZM5.59689 0.891602C4.9441 0.891602 4.41045 1.42964 4.41045 2.08781V4.33954C4.41045 4.99771 4.9441 5.53575 5.59689 5.53575C6.24968 5.53575 6.78332 4.99771 6.78332 4.33954V2.08781C6.78434 1.42964 6.24968 0.891602 5.59689 0.891602ZM10.9393 0.891602C10.2865 0.891602 9.7529 1.42964 9.7529 2.08781V4.33954C9.7529 4.99771 10.2865 5.53575 10.9393 5.53575C11.5921 5.53575 12.1258 4.99771 12.1258 4.33954V2.08781C12.1258 1.42964 11.5921 0.891602 10.9393 0.891602ZM21.278 7.89121H0.601449V20.9623C0.601449 22.2016 1.60763 23.2161 2.83682 23.2161H15.6147C15.3468 22.5671 15.1991 21.8556 15.1991 21.1091C15.1991 18.0718 17.6413 15.6096 20.6537 15.6096C20.8655 15.6096 21.0733 15.6219 21.279 15.6456L21.278 7.89121ZM11.8101 10.7671V10.4129C11.8101 10.1551 11.528 9.99188 11.307 10.1202L10.2428 10.7394C10.0147 10.8698 10.0157 11.1963 10.2397 11.3267L11.2795 11.9325C11.5392 12.1009 11.8101 11.9038 11.8101 11.6563V11.4571C13.7787 11.8658 15.2277 13.6226 15.2277 15.6915C15.2277 18.0798 13.3081 20.0152 10.9393 20.0152C8.11014 20.0152 6.0714 17.3054 6.79643 14.5722C6.84429 14.3915 6.73736 14.2057 6.55914 14.1574C6.3799 14.1092 6.19558 14.217 6.14772 14.3967C5.30753 17.5612 7.66817 20.6918 10.9393 20.6918C13.6788 20.6918 15.8998 18.4524 15.8998 15.6904C15.8998 13.2477 14.1532 11.1848 11.8098 10.7671L11.8101 10.7671Z" fill="#C1BFD9"/>
</g>
<defs>
<clipPath id="clip0_704_88">
<rect width="26" height="26" fill="white"/>
</clipPath>
</defs>
</svg>
