<svg width="24" height="24" viewBox="0 0 24 24" fill="none" xmlns="http://www.w3.org/2000/svg">
<g clip-path="url(#clip0_704_52)">
<path d="M23.6695 22.9259C23.4063 23.2958 22.9197 23.523 22.3957 23.523H1.60436C1.08036 23.523 0.593788 23.2958 0.330566 22.9259C3.97444 21.035 7.24771 18.7074 10.0379 16.0196C10.5269 15.5503 11.244 15.2798 11.9999 15.2798C12.7557 15.2798 13.4729 15.5503 13.9619 16.0196C16.7522 18.7074 20.0256 21.035 23.6695 22.9259Z" fill="#C1BFD9"/>
<path d="M9.14088 15.6645C6.53052 18.1496 3.49503 20.315 0.129028 22.0966V12.9325C0.130236 12.6796 0.276329 12.4425 0.525036 12.291C0.772549 12.1395 1.0937 12.0923 1.39194 12.1631C4.26432 12.84 6.91326 14.0374 9.14088 15.6645Z" fill="#C1BFD9"/>
<path d="M23.871 12.9326V22.0968C20.5047 20.3151 17.4694 18.1498 14.8591 15.6647H14.8603C17.0868 14.0375 19.7356 12.8402 22.6092 12.1635H22.608C22.9063 12.0926 23.2274 12.1399 23.4749 12.2914C23.7237 12.4429 23.8698 12.6798 23.871 12.9326Z" fill="#C1BFD9"/>
<path d="M15.5292 2.51333H8.47083L10.8083 1.03174H10.8095C11.5098 0.588052 12.4902 0.588052 13.1905 1.03272L15.5292 2.51333Z" fill="#C1BFD9"/>
<path d="M1.81695 6.73083V11.4452L1.65999 11.4079H1.66119C1.14684 11.2839 0.592666 11.34 0.130235 11.5613L0.129028 8.57362C0.130236 8.08566 0.406728 7.62525 0.878821 7.32617L1.81695 6.73083Z" fill="#C1BFD9"/>
<path d="M23.871 8.57338V11.5611C23.4074 11.3397 22.8532 11.2846 22.3388 11.4076L22.1819 11.445L22.1831 6.73059L23.1225 7.32481L23.1212 7.32579C23.5933 7.62487 23.8698 8.08541 23.871 8.57338Z" fill="#C1BFD9"/>
<path d="M10.8978 10.7811H12.075L11.4858 9.54346L10.8978 10.7811Z" fill="#C1BFD9"/>
<path d="M19.7419 3.30029H4.25825C3.44448 3.30128 2.78284 3.83941 2.78284 4.50347V11.7019H2.78404C5.37991 12.4486 7.77185 13.6046 9.81957 15.1049C11.1006 14.2893 12.8996 14.2893 14.1805 15.1049C16.2283 13.6046 18.62 12.4486 21.2161 11.7019L21.2173 4.50347C21.2173 3.83941 20.5556 3.30128 19.7419 3.30029ZM16.8441 5.86213H17.3416C17.9815 5.86213 17.9815 6.64917 17.3416 6.64917H16.8441C16.2042 6.65113 16.2042 5.86409 16.8441 5.86409V5.86213ZM8.07614 12.2164C8.07614 12.7368 7.11023 12.7368 7.11023 12.2164V8.84683H6.14432C5.50562 8.84683 5.50562 8.05979 6.14432 8.05979H9.04687C9.68558 8.05979 9.68558 8.84683 9.04687 8.84683H8.07614V12.2164ZM12.8235 12.357L12.4492 11.57H10.5246L10.1479 12.357C9.91607 12.8421 9.01535 12.5577 9.24717 12.0727L11.0341 8.31156C11.1065 8.16006 11.2852 8.05971 11.4844 8.05971C11.6836 8.05971 11.8624 8.16006 11.9348 8.31156L13.7229 12.0737C13.956 12.5597 13.0553 12.844 12.8235 12.357ZM6.65865 6.65108C6.01874 6.65108 6.01874 5.86404 6.65865 5.86404H14.5355C15.1754 5.86404 15.1754 6.65108 14.5355 6.65108H6.65865ZM18.2641 12.007C18.607 12.4497 17.7811 12.8589 17.4467 12.4261L16.4071 11.0743L15.3627 12.4261C15.0283 12.8609 14.2037 12.4516 14.5454 12.007L15.8349 10.3345L14.5454 8.66207C14.2049 8.21936 15.0235 7.80222 15.3627 8.24296L16.4071 9.59568L17.4491 8.24394C17.7896 7.80124 18.607 8.2223 18.2665 8.66305L16.977 10.3355L18.2641 12.007Z" fill="#C1BFD9"/>
</g>
<defs>
<clipPath id="clip0_704_52">
<rect width="24" height="24" fill="white"/>
</clipPath>
</defs>
</svg>
